Tienne-Regular.ufo
<glyph name="exclam" format="1">
  <advance width="704"/>
  <unicode hex="0021"/>
  <outline>
    <contour>
      <point x="386" y="-22"/>
      <point x="315" y="-22"/>
      <point x="289" y="-10.5" type="qcurve" smooth="yes"/>
      <point x="264" y="0"/>
      <point x="246" y="20" type="qcurve" smooth="yes"/>
      <point x="212" y="58"/>
      <point x="211" y="140"/>
      <point x="220" y="165.5" type="qcurve" smooth="yes"/>
      <point x="228" y="191"/>
      <point x="246" y="211" type="qcurve" smooth="yes"/>
      <point x="285" y="256"/>
      <point x="385" y="256"/>
      <point x="438" y="231"/>
      <point x="456" y="211" type="qcurve" smooth="yes"/>
      <point x="492" y="170"/>
      <point x="491" y="89"/>
      <point x="474" y="40"/>
      <point x="439" y="1"/>
    </contour>
    <contour>
      <point x="444" y="920"/>
      <point x="425" y="558"/>
      <point x="425" y="443"/>
      <point x="429" y="403" type="qcurve"/>
      <point x="397" y="391"/>
      <point x="332" y="391"/>
      <point x="316.5" y="395" type="qcurve" smooth="yes"/>
      <point x="301" y="398"/>
      <point x="292" y="408" type="qcurve" smooth="yes"/>
      <point x="277" y="424"/>
      <point x="275" y="470" type="qcurve" smooth="yes"/>
      <point x="240" y="1135" type="line" smooth="yes"/>
      <point x="235" y="1235"/>
      <point x="219" y="1367"/>
      <point x="219" y="1383" type="qcurve" smooth="yes"/>
      <point x="219" y="1406" type="line" smooth="yes"/>
      <point x="219" y="1412"/>
      <point x="220" y="1419" type="qcurve"/>
      <point x="264" y="1457"/>
      <point x="416" y="1457"/>
      <point x="466" y="1409"/>
      <point x="466" y="1358" type="qcurve" smooth="yes"/>
      <point x="466" y="1352"/>
      <point x="465" y="1335"/>
      <point x="464" y="1295"/>
      <point x="460" y="1223"/>
      <point x="453" y="1101"/>
    </contour>
  </outline>
</glyph>
<glyph name="quotedbl" format="1">
  <advance width="792"/>
  <unicode hex="0022"/>
  <outline>
    <contour>
      <point x="481" y="1450" type="qcurve"/>
      <point x="521" y="1494"/>
      <point x="639" y="1494"/>
      <point x="675" y="1451"/>
      <point x="675" y="1368"/>
      <point x="672" y="1337" type="qcurve" smooth="yes"/>
      <point x="642" y="983" type="line"/>
      <point x="613" y="959"/>
      <point x="557" y="959"/>
      <point x="544" y="968.5" type="qcurve" smooth="yes"/>
      <point x="532" y="978"/>
      <point x="524" y="993" type="qcurve" smooth="yes"/>
      <point x="515" y="1011"/>
      <point x="509" y="1067" type="qcurve" smooth="yes"/>
      <point x="493" y="1260" type="line" smooth="yes"/>
      <point x="482" y="1380"/>
    </contour>
    <contour>
      <point x="117" y="1450" type="qcurve"/>
      <point x="154" y="1494"/>
      <point x="274" y="1494"/>
      <point x="311" y="1451"/>
      <point x="311" y="1419" type="qcurve" smooth="yes"/>
      <point x="311" y="1369"/>
      <point x="307" y="1337" type="qcurve"/>
      <point x="277" y="983" type="line"/>
      <point x="251" y="959"/>
      <point x="192" y="959"/>
      <point x="178.5" y="969" type="qcurve" smooth="yes"/>
      <point x="165" y="978"/>
      <point x="158" y="994" type="qcurve" smooth="yes"/>
      <point x="150" y="1013"/>
      <point x="144" y="1072" type="qcurve" smooth="yes"/>
      <point x="128" y="1260" type="line" smooth="yes"/>
      <point x="117" y="1384"/>
    </contour>
  </outline>
</glyph>
<glyph name="numbersign" format="1">
  <advance width="1240"/>
  <unicode hex="0023"/>
  <outline>
    <contour>
      <point x="461" y="582" type="line"/>
      <point x="726" y="582" type="line"/>
      <point x="781" y="848" type="line"/>
      <point x="517" y="848" type="line"/>
    </contour>
    <contour>
      <point x="1020" y="1341" type="qcurve"/>
      <point x="1021" y="1319" type="line"/>
      <point x="1015" y="1257"/>
      <point x="999" y="1188" type="qcurve" smooth="yes"/>
      <point x="955" y="985" type="line"/>
      <point x="1158" y="985" type="line"/>
      <point x="1158" y="933" type="line" smooth="yes"/>
      <point x="1158" y="882"/>
      <point x="1149" y="870" type="qcurve" smooth="yes"/>
      <point x="1134" y="848"/>
      <point x="1083" y="848" type="qcurve" smooth="yes"/>
      <point x="929" y="848" type="line"/>
      <point x="872" y="582" type="line"/>
      <point x="1085" y="582" type="line"/>
      <point x="1085" y="510" type="line" smooth="yes"/>
      <point x="1085" y="478"/>
      <point x="1063" y="450"/>
      <point x="1038" y="445" type="qcurve"/>
      <point x="845" y="445" type="line"/>
      <point x="768" y="73" type="line"/>
      <point x="714" y="73" type="line" smooth="yes"/>
      <point x="645" y="73"/>
      <point x="630" y="107" type="qcurve"/>
      <point x="633" y="131"/>
      <point x="649" y="198"/>
      <point x="657" y="240" type="qcurve" smooth="yes"/>
      <point x="698" y="445" type="line"/>
      <point x="433" y="445" type="line"/>
      <point x="356" y="73" type="line"/>
      <point x="292" y="73" type="line" smooth="yes"/>
      <point x="220" y="73"/>
      <point x="220" y="99" type="qcurve" smooth="yes"/>
      <point x="220" y="135"/>
      <point x="243" y="240" type="qcurve" smooth="yes"/>
      <point x="287" y="445" type="line"/>
      <point x="82" y="445" type="line"/>
      <point x="82" y="498" type="line" smooth="yes"/>
      <point x="82" y="548"/>
      <point x="91" y="560" type="qcurve" smooth="yes"/>
      <point x="107" y="582"/>
      <point x="157" y="582" type="qcurve" smooth="yes"/>
      <point x="313" y="582" type="line"/>
      <point x="368" y="848" type="line"/>
      <point x="156" y="848" type="line"/>
      <point x="156" y="920" type="line" smooth="yes"/>
      <point x="156" y="963"/>
      <point x="170" y="972" type="qcurve" smooth="yes"/>
      <point x="188" y="985"/>
      <point x="232" y="985" type="qcurve" smooth="yes"/>
      <point x="397" y="985" type="line"/>
      <point x="474" y="1351" type="line"/>
      <point x="529" y="1351" type="line" smooth="yes"/>
      <point x="563" y="1351"/>
      <point x="606" y="1342"/>
      <point x="615" y="1322" type="qcurve"/>
      <point x="610" y="1305"/>
      <point x="606" y="1265"/>
      <point x="601" y="1245" type="qcurve" smooth="yes"/>
      <point x="546" y="985" type="line"/>
      <point x="808" y="985" type="line"/>
      <point x="886" y="1351" type="line"/>
      <point x="939" y="1351" type="line" smooth="yes"/>
      <point x="1000" y="1351"/>
    </contour>
  </outline>
</glyph>
<glyph name="dollar" format="1">
  <advance width="1302"/>
  <unicode hex="0024"/>
  <outline>
    <contour>
      <point x="724" y="89" type="line" smooth="no"/>
      <point x="844" y="106"/>
      <point x="943" y="190"/>
      <point x="943" y="323" type="curve" smooth="yes"/>
      <point x="943" y="472.026"/>
      <point x="839.41" y="526.085"/>
      <point x="724" y="583" type="curve" smooth="no"/>
    </contour>
    <contour>
      <point x="584" y="1343" type="line" smooth="no"/>
      <point x="450" y="1325"/>
      <point x="364" y="1247"/>
      <point x="364" y="1102" type="curve" smooth="yes"/>
      <point x="364" y="955.393"/>
      <point x="463.538" y="901.185"/>
      <point x="584" y="853" type="curve" smooth="no"/>
    </contour>
    <contour>
      <point x="724" y="796" type="line" smooth="no"/>
      <point x="948.512" y="702.197"/>
      <point x="1158" y="608.543"/>
      <point x="1158" y="357" type="curve" smooth="yes"/>
      <point x="1158" y="119"/>
      <point x="956" y="-16"/>
      <point x="724" y="-34" type="curve" smooth="no"/>
      <point x="724" y="-238" type="line" smooth="no"/>
      <point x="656" y="-238" type="line" smooth="yes"/>
      <point x="590" y="-238"/>
      <point x="584" y="-222"/>
      <point x="584" y="-159" type="curve" smooth="yes"/>
      <point x="584" y="-35" type="line" smooth="no"/>
      <point x="457.373" y="-28.6231"/>
      <point x="178.476" y="17.8749"/>
      <point x="135" y="132" type="curve" smooth="no"/>
      <point x="135" y="169"/>
      <point x="138" y="207"/>
      <point x="144" y="244" type="curve" smooth="no"/>
      <point x="203" y="375" type="line" smooth="no"/>
      <point x="303" y="335" type="line" smooth="no"/>
      <point x="356" y="199"/>
      <point x="429" y="108"/>
      <point x="584" y="91" type="curve" smooth="no"/>
      <point x="584" y="642" type="line" smooth="no"/>
      <point x="361.119" y="740.553"/>
      <point x="164" y="821.428"/>
      <point x="164" y="1068" type="curve" smooth="yes"/>
      <point x="164" y="1299.87"/>
      <point x="339.82" y="1424.19"/>
      <point x="584" y="1458" type="curve" smooth="no"/>
      <point x="584" y="1596" type="line" smooth="no"/>
      <point x="651" y="1596" type="line" smooth="yes"/>
      <point x="691" y="1596"/>
      <point x="715" y="1581"/>
      <point x="724" y="1550" type="curve" smooth="no"/>
      <point x="724" y="1468" type="line" smooth="no"/>
      <point x="885.561" y="1468"/>
      <point x="1033.41" y="1448.78"/>
      <point x="1094" y="1368" type="curve" smooth="no"/>
      <point x="1093" y="1336"/>
      <point x="1092" y="1304"/>
      <point x="1088" y="1274" type="curve" smooth="no"/>
      <point x="1042" y="1123" type="line" smooth="no"/>
      <point x="949" y="1148" type="line" smooth="no"/>
      <point x="904" y="1254"/>
      <point x="833" y="1321"/>
      <point x="724" y="1340" type="curve" smooth="no"/>
    </contour>
  </outline>
</glyph>
<glyph name="percent" format="1">
  <advance width="1643"/>
  <unicode hex="0025"/>
  <outline>
    <contour>
      <point x="1551" y="350" type="curve" smooth="yes"/>
      <point x="1551" y="132.834"/>
      <point x="1449.07" y="-26"/>
      <point x="1236" y="-26" type="curve" smooth="yes"/>
      <point x="1020.37" y="-26"/>
      <point x="920.993" y="137.278"/>
      <point x="920.993" y="352.095" type="curve" smooth="yes"/>
      <point x="920.993" y="568.799"/>
      <point x="1025.34" y="725.005"/>
      <point x="1235" y="725.005" type="curve" smooth="yes"/>
      <point x="1235.67" y="725.005"/>
      <point x="1236.33" y="725.003"/>
      <point x="1237" y="725" type="curve" smooth="yes"/>
      <point x="1437" y="725"/>
      <point x="1551" y="580"/>
    </contour>
    <contour>
      <point x="1395" y="350" type="curve" smooth="yes"/>
      <point x="1395" y="508.956"/>
      <point x="1371.21" y="643"/>
      <point x="1238" y="643" type="curve" smooth="yes"/>
      <point x="1104.05" y="643"/>
      <point x="1080" y="509.514"/>
      <point x="1080" y="350" type="curve" smooth="yes"/>
      <point x="1080" y="190.548"/>
      <point x="1104.42" y="56"/>
      <point x="1238" y="56" type="curve" smooth="yes"/>
      <point x="1370.73" y="56"/>
      <point x="1395" y="191.433"/>
    </contour>
    <contour>
      <point x="405" y="1457" type="curve" smooth="yes"/>
      <point x="629.32" y="1457"/>
      <point x="718" y="1295.73"/>
      <point x="718" y="1060" type="curve" smooth="yes"/>
      <point x="718" y="863.779"/>
      <point x="613.025" y="707"/>
      <point x="408" y="707" type="curve" smooth="yes"/>
      <point x="194.493" y="707"/>
      <point x="92" y="864.628"/>
      <point x="92" y="1083" type="curve" smooth="yes"/>
      <point x="92" y="1302"/>
      <point x="191" y="1457"/>
    </contour>
    <contour>
      <point x="246" y="1082" type="curve" smooth="yes"/>
      <point x="246" y="923.553"/>
      <point x="271.261" y="789"/>
      <point x="404" y="789" type="curve" smooth="yes"/>
      <point x="537" y="789"/>
      <point x="562" y="923"/>
      <point x="562" y="1082" type="curve" smooth="yes"/>
      <point x="562" y="1241.67"/>
      <point x="538.017" y="1375"/>
      <point x="404" y="1375" type="curve" smooth="yes"/>
      <point x="270" y="1375"/>
      <point x="246" y="1241"/>
    </contour>
    <contour>
      <point x="314" y="13" type="line" smooth="no"/>
      <point x="351" y="80"/>
      <point x="644" y="562"/>
      <point x="1193" y="1460" type="curve" smooth="no"/>
      <point x="1265.64" y="1438.48"/>
      <point x="1276.73" y="1417.2"/>
      <point x="1312" y="1392" type="curve" smooth="no"/>
      <point x="440" y="-34" type="line" smooth="no"/>
    </contour>
  </outline>
</glyph>
<glyph name="ampersand" format="1">
  <advance width="1399"/>
  <unicode hex="0026"/>
  <outline>
    <contour>
      <point x="862" y="1039" type="line" smooth="no"/>
      <point x="808.303" y="1208.75"/>
      <point x="774.613" y="1306"/>
      <point x="591" y="1306" type="curve" smooth="yes"/>
      <point x="427" y="1306"/>
      <point x="324" y="1207"/>
      <point x="324" y="1048" type="curve" smooth="yes"/>
      <point x="324" y="883"/>
      <point x="455" y="788"/>
      <point x="625" y="788" type="curve" smooth="yes"/>
      <point x="1367" y="788" type="line" smooth="no"/>
      <point x="1367" y="510" type="line" smooth="no"/>
      <point x="1304" y="510" type="line" smooth="no"/>
      <point x="1278.58" y="606.926"/>
      <point x="1265.96" y="657"/>
      <point x="1174" y="657" type="curve" smooth="yes"/>
      <point x="1104" y="657" type="line" smooth="no"/>
      <point x="1123" y="522"/>
      <point x="1133" y="421"/>
      <point x="1133" y="354" type="curve" smooth="yes"/>
      <point x="1133" y="65.0622"/>
      <point x="902.324" y="-37"/>
      <point x="607" y="-37" type="curve" smooth="yes"/>
      <point x="252" y="-37"/>
      <point x="74" y="100"/>
      <point x="74" y="374" type="curve" smooth="yes"/>
      <point x="74" y="554.027"/>
      <point x="203.366" y="691.302"/>
      <point x="385" y="729" type="curve" smooth="no"/>
      <point x="385" y="734" type="line" smooth="no"/>
      <point x="222.301" y="774.675"/>
      <point x="116" y="873.409"/>
      <point x="116" y="1064" type="curve" smooth="yes"/>
      <point x="116" y="1317.11"/>
      <point x="325.392" y="1421"/>
      <point x="585" y="1421" type="curve" smooth="yes"/>
      <point x="740" y="1421"/>
      <point x="903" y="1386"/>
      <point x="1009" y="1318" type="curve" smooth="no"/>
      <point x="985" y="1039" type="line" smooth="no"/>
    </contour>
    <contour>
      <point x="616" y="94" type="curve" smooth="yes"/>
      <point x="831" y="94"/>
      <point x="950" y="210"/>
      <point x="951" y="421" type="curve" smooth="yes"/>
      <point x="951" y="483"/>
      <point x="948" y="537"/>
      <point x="943" y="582" type="curve" smooth="yes"/>
      <point x="935" y="657" type="line" smooth="no"/>
      <point x="605" y="657" type="line" smooth="yes"/>
      <point x="425" y="657"/>
      <point x="306" y="548"/>
      <point x="305" y="369" type="curve" smooth="no"/>
      <point x="305" y="189"/>
      <point x="420" y="94"/>
    </contour>
  </outline>
</glyph>
<glyph name="quotesingle" format="1">
  <advance width="429"/>
  <unicode hex="0027"/>
  <outline>
    <contour>
      <point x="117" y="1412" type="curve" smooth="yes"/>
      <point x="117" y="1479.7"/>
      <point x="165.537" y="1494"/>
      <point x="228" y="1494" type="curve" smooth="yes"/>
      <point x="284" y="1494"/>
      <point x="312" y="1466"/>
      <point x="312" y="1409" type="curve" smooth="yes"/>
      <point x="312" y="1382"/>
      <point x="311" y="1358"/>
      <point x="308" y="1337" type="curve" smooth="no"/>
      <point x="277" y="983" type="line" smooth="no"/>
      <point x="258" y="967"/>
      <point x="239" y="959"/>
      <point x="220" y="959" type="curve" smooth="yes"/>
      <point x="154" y="959"/>
      <point x="152" y="999"/>
      <point x="145" y="1067" type="curve" smooth="no"/>
      <point x="128" y="1260" type="line" smooth="yes"/>
      <point x="121" y="1337"/>
      <point x="117" y="1388"/>
    </contour>
  </outline>
</glyph>
<glyph name="parenleft" format="1">
  <advance width="588"/>
  <unicode hex="0028"/>
  <outline>
    <contour>
      <point x="305" y="672" type="curve" smooth="yes"/>
      <point x="305" y="336"/>
      <point x="377" y="49"/>
      <point x="522" y="-188" type="curve" smooth="no"/>
      <point x="479" y="-208" type="line" smooth="no"/>
      <point x="470" y="-211"/>
      <point x="462" y="-213"/>
      <point x="454" y="-213" type="curve" smooth="yes"/>
      <point x="430" y="-213"/>
      <point x="408" y="-202"/>
      <point x="388" y="-180" type="curve" smooth="no"/>
      <point x="223.904" y="32.435"/>
      <point x="117.675" y="314.336"/>
      <point x="117.675" y="674.641" type="curve" smooth="yes"/>
      <point x="117.675" y="1025.17"/>
      <point x="235.753" y="1321.82"/>
      <point x="388" y="1524" type="curve" smooth="yes"/>
      <point x="405" y="1546"/>
      <point x="429" y="1557"/>
      <point x="460" y="1557" type="curve" smooth="yes"/>
      <point x="464" y="1557"/>
      <point x="470" y="1555"/>
      <point x="479" y="1552" type="curve" smooth="no"/>
      <point x="522" y="1532" type="line" smooth="no"/>
      <point x="377" y="1295"/>
      <point x="305" y="1008"/>
    </contour>
  </outline>
</glyph>
<glyph name="parenright" format="1">
  <advance width="588"/>
  <unicode hex="0029"/>
  <outline>
    <contour>
      <point x="283" y="1176"/>
      <point x="66" y="1532" type="qcurve"/>
      <point x="109" y="1552" type="line" smooth="yes"/>
      <point x="122" y="1557"/>
      <point x="134" y="1557" type="qcurve" smooth="yes"/>
      <point x="174" y="1557"/>
      <point x="200" y="1524" type="qcurve" smooth="yes"/>
      <point x="393" y="1272"/>
      <point x="452" y="908" type="qcurve" smooth="yes"/>
      <point x="471" y="790"/>
      <point x="471" y="552"/>
      <point x="452.5" y="434.5" type="qcurve" smooth="yes"/>
      <point x="434" y="318"/>
      <point x="398" y="208" type="qcurve" smooth="yes"/>
      <point x="324" y="-19"/>
      <point x="200" y="-180" type="qcurve"/>
      <point x="170" y="-213"/>
      <point x="128" y="-213" type="qcurve" smooth="yes"/>
      <point x="122" y="-213"/>
      <point x="109" y="-208" type="qcurve" smooth="yes"/>
      <point x="66" y="-188" type="line"/>
      <point x="283" y="168"/>
    </contour>
  </outline>
</glyph>
<glyph name="asterisk" format="1">
  <advance width="926"/>
  <unicode hex="002A"/>
  <outline>
    <contour>
      <point x="280" y="743" type="line"/>
      <point x="394" y="994" type="line"/>
      <point x="126" y="859" type="line"/>
      <point x="84" y="1014" type="line"/>
      <point x="370" y="1080" type="line"/>
      <point x="122" y="1249" type="line"/>
      <point x="253" y="1363" type="line"/>
      <point x="430" y="1139" type="line"/>
      <point x="460" y="1440" type="line"/>
      <point x="638" y="1389" type="line"/>
      <point x="521" y="1126" type="line"/>
      <point x="791" y="1252" type="line"/>
      <point x="830" y="1099" type="line"/>
      <point x="549" y="1041" type="line"/>
      <point x="791" y="843" type="line"/>
      <point x="659" y="737" type="line"/>
      <point x="484" y="982" type="line"/>
      <point x="457" y="670" type="line"/>
    </contour>
  </outline>
</glyph>
<glyph name="plus" format="1">
  <advance width="1289"/>
  <unicode hex="002B"/>
  <outline>
    <contour>
      <point x="639" y="1115" type="line" smooth="yes"/>
      <point x="702" y="1115"/>
      <point x="716" y="1068" type="qcurve"/>
      <point x="716" y="677" type="line"/>
      <point x="1156" y="677" type="line"/>
      <point x="1156" y="610" type="line" smooth="yes"/>
      <point x="1156" y="557"/>
      <point x="1140" y="547" type="qcurve" smooth="yes"/>
      <point x="1120" y="533"/>
      <point x="1071" y="533" type="qcurve" smooth="yes"/>
      <point x="716" y="533" type="line"/>
      <point x="716" y="93" type="line"/>
      <point x="648" y="93" type="line" smooth="yes"/>
      <point x="595" y="92"/>
      <point x="584" y="108" type="qcurve" smooth="yes"/>
      <point x="571" y="128"/>
      <point x="571" y="177" type="qcurve" smooth="yes"/>
      <point x="571" y="533" type="line"/>
      <point x="133" y="533" type="line"/>
      <point x="133" y="601" type="line" smooth="yes"/>
      <point x="134" y="653"/>
      <point x="150" y="664" type="qcurve" smooth="yes"/>
      <point x="169" y="677"/>
      <point x="222" y="677" type="qcurve" smooth="yes"/>
      <point x="571" y="677" type="line"/>
      <point x="571" y="1115" type="line"/>
    </contour>
  </outline>
</glyph>
<glyph name="comma" format="1">
  <advance width="462"/>
  <unicode hex="002C"/>
  <outline>
    <contour>
      <point x="85" y="122" type="curve" smooth="yes"/>
      <point x="85" y="200"/>
      <point x="131.827" y="249.0"/>
      <point x="220.0" y="249.0" type="curve" smooth="yes"/>
      <point x="305.0" y="249.0"/>
      <point x="347.0" y="181.0"/>
      <point x="347.0" y="98.0" type="curve" smooth="yes"/>
      <point x="347.0" y="-102.0"/>
      <point x="239.0" y="-237.0"/>
      <point x="118.0" y="-316.0" type="curve"/>
      <point x="71.0" y="-277.0" type="line"/>
      <point x="141.0" y="-184.0"/>
      <point x="193.0" y="-112.0"/>
      <point x="193.0" y="32.0" type="curve"/>
      <point x="137.0" y="33.0"/>
      <point x="85" y="79"/>
    </contour>
  </outline>
</glyph>
<glyph name="hyphen" format="1">
  <advance width="683"/>
  <unicode hex="002D"/>
  <outline>
    <contour>
      <point x="632" y="599" type="line" smooth="yes"/>
      <point x="632" y="536"/>
      <point x="584" y="519" type="qcurve"/>
      <point x="51" y="519" type="line"/>
      <point x="51" y="589" type="line" smooth="yes"/>
      <point x="52" y="629"/>
      <point x="68" y="639" type="qcurve" smooth="yes"/>
      <point x="90" y="651"/>
      <point x="133" y="651" type="qcurve" smooth="yes"/>
      <point x="632" y="651" type="line"/>
    </contour>
  </outline>
</glyph>
<glyph name="period" format="1">
  <advance width="600"/>
  <unicode hex="002E"/>
  <outline>
    <contour>
      <point x="336" y="-33"/>
      <point x="267" y="-34"/>
      <point x="215" y="-10"/>
      <point x="181" y="29"/>
      <point x="164" y="78"/>
      <point x="164" y="130"/>
      <point x="181" y="181"/>
      <point x="198" y="201" type="qcurve" smooth="yes"/>
      <point x="235" y="245"/>
      <point x="300" y="245" type="qcurve" smooth="yes"/>
      <point x="364" y="245"/>
      <point x="402" y="201" type="qcurve" smooth="yes"/>
      <point x="436" y="162"/>
      <point x="436" y="78"/>
      <point x="420" y="30"/>
      <point x="387" y="-9"/>
    </contour>
  </outline>
</glyph>
<glyph name="slash" format="1">
  <advance width="853"/>
  <unicode hex="002F"/>
  <outline>
    <contour>
      <point x="853" y="1491" type="qcurve"/>
      <point x="845" y="1466"/>
      <point x="153" y="-157" type="qcurve"/>
      <point x="81" y="-157" type="line" smooth="yes"/>
      <point x="18" y="-157"/>
      <point x="-3" y="-126" type="qcurve"/>
      <point x="701" y="1518" type="line"/>
      <point x="771" y="1518" type="line" smooth="yes"/>
      <point x="836" y="1518"/>
    </contour>
  </outline>
</glyph>
<glyph name="zero" format="1">
  <advance width="1277"/>
  <unicode hex="0030"/>
  <outline>
    <contour>
      <point x="638" y="-37" type="qcurve" smooth="yes"/>
      <point x="510" y="-37"/>
      <point x="306" y="64"/>
      <point x="236" y="160" type="qcurve" smooth="yes"/>
      <point x="92" y="356"/>
      <point x="92" y="710" type="qcurve" smooth="yes"/>
      <point x="92" y="1068"/>
      <point x="235" y="1264" type="qcurve" smooth="yes"/>
      <point x="378" y="1458"/>
      <point x="638" y="1458" type="qcurve" smooth="yes"/>
      <point x="899" y="1458"/>
      <point x="1042" y="1264" type="qcurve" smooth="yes"/>
      <point x="1185" y="1069"/>
      <point x="1185" y="710" type="qcurve" smooth="yes"/>
      <point x="1186" y="357"/>
      <point x="1040" y="159" type="qcurve" smooth="yes"/>
      <point x="896" y="-37"/>
    </contour>
    <contour>
      <point x="942" y="427" type="qcurve" smooth="yes"/>
      <point x="962" y="545"/>
      <point x="963" y="878"/>
      <point x="922" y="1116"/>
      <point x="881" y="1192" type="qcurve" smooth="yes"/>
      <point x="802" y="1338"/>
      <point x="638" y="1337" type="qcurve" smooth="yes"/>
      <point x="394" y="1337"/>
      <point x="334" y="996" type="qcurve" smooth="yes"/>
      <point x="313" y="877"/>
      <point x="313" y="546"/>
      <point x="354" y="310"/>
      <point x="395" y="234" type="qcurve" smooth="yes"/>
      <point x="475" y="86"/>
      <point x="638" y="87" type="qcurve" smooth="yes"/>
      <point x="883" y="87"/>
    </contour>
  </outline>
</glyph>
<glyph name="one" format="1">
  <advance width="986"/>
  <unicode hex="0031"/>
  <outline>
    <contour>
      <point x="135" y="1347" type="line" smooth="no"/>
      <point x="352.502" y="1424.18"/>
      <point x="391.813" y="1458"/>
      <point x="550" y="1458" type="curve" smooth="yes"/>
      <point x="578" y="1458"/>
      <point x="598" y="1448"/>
      <point x="610" y="1428" type="curve" smooth="no"/>
      <point x="610" y="252" type="line" smooth="yes"/>
      <point x="610" y="200"/>
      <point x="615" y="159"/>
      <point x="624" y="128" type="curve" smooth="no"/>
      <point x="647" y="122"/>
      <point x="681" y="119"/>
      <point x="727" y="119" type="curve" smooth="yes"/>
      <point x="818" y="119" type="line" smooth="no"/>
      <point x="818" y="-19" type="line" smooth="no"/>
      <point x="722" y="-6.5"/>
      <point x="622" y="-0.25"/>
      <point x="518.125" y="-0.25" type="curve" smooth="yes"/>
      <point x="414.25" y="-0.25"/>
      <point x="306.5" y="-6.5"/>
      <point x="195" y="-19" type="curve" smooth="no"/>
      <point x="195" y="119" type="line" smooth="no"/>
      <point x="284" y="119" type="line" smooth="yes"/>
      <point x="334" y="119"/>
      <point x="368" y="122"/>
      <point x="387" y="128" type="curve" smooth="no"/>
      <point x="398" y="163"/>
      <point x="403" y="204"/>
      <point x="403" y="249" type="curve" smooth="yes"/>
      <point x="403" y="1246" type="line" smooth="no"/>
      <point x="378" y="1265"/>
      <point x="346" y="1275"/>
      <point x="307" y="1275" type="curve" smooth="yes"/>
      <point x="286" y="1275"/>
      <point x="267" y="1273"/>
      <point x="249" y="1270" type="curve" smooth="yes"/>
      <point x="154" y="1253" type="line" smooth="no"/>
    </contour>
  </outline>
</glyph>
<glyph name="two" format="1">
  <advance width="1251"/>
  <unicode hex="0032"/>
  <outline>
    <contour>
      <point x="726" y="144" type="line" smooth="yes"/>
      <point x="901.573" y="144"/>
      <point x="985.508" y="214.945"/>
      <point x="1038" y="340" type="curve" smooth="no"/>
      <point x="1101" y="329" type="line" smooth="no"/>
      <point x="1101" y="202"/>
      <point x="1097" y="102"/>
      <point x="1088" y="27" type="curve" smooth="no"/>
      <point x="1000.2" y="0.66025"/>
      <point x="812.407" y="0"/>
      <point x="699" y="0" type="curve" smooth="yes"/>
      <point x="197" y="0" type="line" smooth="yes"/>
      <point x="142" y="0"/>
      <point x="119" y="12"/>
      <point x="104" y="50" type="curve" smooth="no"/>
      <point x="104" y="67"/>
      <point x="109" y="95"/>
      <point x="118" y="134" type="curve" smooth="no"/>
      <point x="477" y="489"/>
      <point x="691" y="718"/>
      <point x="758" y="822" type="curve" smooth="yes"/>
      <point x="821" y="920"/>
      <point x="843" y="968"/>
      <point x="843" y="1079" type="curve" smooth="yes"/>
      <point x="843" y="1250"/>
      <point x="766" y="1336"/>
      <point x="611" y="1336" type="curve" smooth="yes"/>
      <point x="441" y="1336"/>
      <point x="302" y="1218"/>
      <point x="279" y="1071" type="curve" smooth="no"/>
      <point x="134" y="1192" type="line" smooth="no"/>
      <point x="159" y="1369"/>
      <point x="380" y="1458"/>
      <point x="595" y="1458" type="curve" smooth="yes"/>
      <point x="861" y="1458"/>
      <point x="1052" y="1326"/>
      <point x="1053" y="1069" type="curve" smooth="yes"/>
      <point x="1053" y="951"/>
      <point x="1002" y="828"/>
      <point x="900" y="700" type="curve" smooth="yes"/>
      <point x="760" y="524"/>
      <point x="500" y="295"/>
      <point x="329" y="144" type="curve" smooth="no"/>
    </contour>
  </outline>
</glyph>
<glyph name="three" format="1">
  <advance width="1200"/>
  <unicode hex="0033"/>
  <outline>
    <contour>
      <point x="1030" y="1121" type="curve" smooth="yes"/>
      <point x="1030" y="895.479"/>
      <point x="862.165" y="789.929"/>
      <point x="676" y="748" type="curve" smooth="no"/>
      <point x="946" y="713"/>
      <point x="1081" y="589"/>
      <point x="1081" y="378" type="curve" smooth="yes"/>
      <point x="1081" y="108"/>
      <point x="868" y="-37"/>
      <point x="590" y="-37" type="curve" smooth="yes"/>
      <point x="404" y="-37"/>
      <point x="167" y="37"/>
      <point x="121" y="166" type="curve" smooth="no"/>
      <point x="127" y="212" type="line" smooth="yes"/>
      <point x="135" y="273"/>
      <point x="143" y="330"/>
      <point x="155" y="392" type="curve" smooth="no"/>
      <point x="265" y="373" type="line" smooth="no"/>
      <point x="264" y="186"/>
      <point x="385" y="87"/>
      <point x="577" y="87" type="curve" smooth="yes"/>
      <point x="577.713" y="86.996"/>
      <point x="578.425" y="86.994"/>
      <point x="579.136" y="86.994" type="curve" smooth="yes"/>
      <point x="755.991" y="86.994"/>
      <point x="879" y="210.717"/>
      <point x="879" y="389" type="curve" smooth="yes"/>
      <point x="879" y="578"/>
      <point x="736" y="672"/>
      <point x="450" y="672" type="curve" smooth="yes"/>
      <point x="409" y="672" type="line" smooth="no"/>
      <point x="409" y="791" type="line" smooth="no"/>
      <point x="475" y="791" type="line" smooth="no"/>
      <point x="657.461" y="793.225"/>
      <point x="836" y="920.842"/>
      <point x="836" y="1097" type="curve" smooth="yes"/>
      <point x="836" y="1243"/>
      <point x="727" y="1336"/>
      <point x="581" y="1336" type="curve" smooth="yes"/>
      <point x="417" y="1336"/>
      <point x="284" y="1221"/>
      <point x="261" y="1080" type="curve" smooth="no"/>
      <point x="126" y="1191" type="line" smooth="no"/>
      <point x="151" y="1364"/>
      <point x="358" y="1457"/>
      <point x="567" y="1457" type="curve" smooth="yes"/>
      <point x="568.511" y="1457.01"/>
      <point x="570.02" y="1457.01"/>
      <point x="571.528" y="1457.01" type="curve" smooth="yes"/>
      <point x="823.361" y="1457.01"/>
      <point x="1030" y="1356.54"/>
    </contour>
  </outline>
</glyph>
<glyph name="four" format="1">
  <advance width="1210"/>
  <unicode hex="0034"/>
  <outline>
    <contour>
      <point x="702" y="512" type="line"/>
      <point x="702" y="1194" type="line"/>
      <point x="244" y="544" type="line"/>
      <point x="226" y="512" type="line"/>
    </contour>
    <contour>
      <point x="1107" y="-19" type="line"/>
      <point x="831" y="18"/>
      <point x="494" y="-19" type="qcurve"/>
      <point x="494" y="117" type="line"/>
      <point x="583" y="117" type="line" smooth="yes"/>
      <point x="658" y="117"/>
      <point x="686" y="126" type="qcurve"/>
      <point x="702" y="170"/>
      <point x="702" y="247" type="qcurve" smooth="yes"/>
      <point x="702" y="385" type="line"/>
      <point x="75" y="385" type="line"/>
      <point x="35" y="416"/>
      <point x="35" y="472" type="qcurve"/>
      <point x="48" y="513"/>
      <point x="530" y="1186" type="qcurve" smooth="yes"/>
      <point x="676" y="1390"/>
      <point x="719" y="1437" type="qcurve"/>
      <point x="807" y="1437" type="line" smooth="yes"/>
      <point x="866" y="1437"/>
      <point x="880" y="1425" type="qcurve" smooth="yes"/>
      <point x="900" y="1407"/>
      <point x="900" y="1360" type="qcurve" smooth="yes"/>
      <point x="900" y="512" type="line"/>
      <point x="1181" y="512" type="line"/>
      <point x="1181" y="458" type="line" smooth="yes"/>
      <point x="1181" y="409"/>
      <point x="1167" y="398" type="qcurve" smooth="yes"/>
      <point x="1149" y="385"/>
      <point x="1101" y="385" type="qcurve" smooth="yes"/>
      <point x="900" y="385" type="line"/>
      <point x="900" y="250" type="line" smooth="yes"/>
      <point x="900" y="166"/>
      <point x="914" y="126" type="qcurve"/>
      <point x="948" y="117"/>
      <point x="1017" y="117" type="qcurve" smooth="yes"/>
      <point x="1107" y="117" type="line"/>
    </contour>
  </outline>
</glyph>
<glyph name="five" format="1">
  <advance width="1234"/>
  <unicode hex="0035"/>
  <outline>
    <contour>
      <point x="386" y="1312" type="qcurve"/>
      <point x="379" y="836" type="line"/>
      <point x="502" y="894"/>
      <point x="736" y="894"/>
      <point x="906" y="831"/>
      <point x="969" y="773" type="qcurve" smooth="yes"/>
      <point x="1104" y="649"/>
      <point x="1104" y="449" type="qcurve" smooth="yes"/>
      <point x="1104" y="223"/>
      <point x="970" y="93" type="qcurve" smooth="yes"/>
      <point x="837" y="-37"/>
      <point x="608" y="-37" type="qcurve" smooth="yes"/>
      <point x="307" y="-37"/>
      <point x="173" y="85" type="qcurve"/>
      <point x="173" y="401" type="line"/>
      <point x="295" y="389" type="line"/>
      <point x="341" y="147" type="line"/>
      <point x="427" y="102"/>
      <point x="545" y="87"/>
      <point x="672" y="87"/>
      <point x="791" y="147"/>
      <point x="828" y="196" type="qcurve" smooth="yes"/>
      <point x="898" y="289"/>
      <point x="898" y="589"/>
      <point x="712" y="761"/>
      <point x="391" y="761"/>
      <point x="286" y="672" type="qcurve"/>
      <point x="217" y="691" type="line"/>
      <point x="217" y="1394" type="line"/>
      <point x="246" y="1437"/>
      <point x="324" y="1437" type="qcurve" smooth="yes"/>
      <point x="646" y="1437" type="line" smooth="yes"/>
      <point x="899" y="1437"/>
      <point x="1028" y="1461" type="qcurve"/>
      <point x="1035" y="1317" type="line"/>
      <point x="993" y="1265"/>
      <point x="635" y="1265"/>
    </contour>
  </outline>
</glyph>
<glyph name="six" format="1">
  <advance width="1225"/>
  <unicode hex="0036"/>
  <outline>
    <contour>
      <point x="699" y="1337" type="curve" smooth="yes"/>
      <point x="404.087" y="1337"/>
      <point x="332" y="1029.78"/>
      <point x="332" y="737" type="curve" smooth="yes"/>
      <point x="332" y="726" type="line" smooth="yes"/>
      <point x="332" y="722"/>
      <point x="332" y="718"/>
      <point x="333" y="714" type="curve" smooth="no"/>
      <point x="448" y="829"/>
      <point x="576" y="887"/>
      <point x="715" y="887" type="curve" smooth="yes"/>
      <point x="967" y="887"/>
      <point x="1130" y="699"/>
      <point x="1130" y="445" type="curve" smooth="yes"/>
      <point x="1130" y="153"/>
      <point x="920" y="-37"/>
      <point x="626" y="-37" type="curve" smooth="yes"/>
      <point x="292" y="-37"/>
      <point x="125" y="195"/>
      <point x="125" y="660" type="curve" smooth="yes"/>
      <point x="125" y="1159.75"/>
      <point x="274.637" y="1458"/>
      <point x="707" y="1458" type="curve" smooth="yes"/>
      <point x="840.078" y="1458"/>
      <point x="978.09" y="1441.13"/>
      <point x="1052" y="1382" type="curve" smooth="no"/>
      <point x="1038" y="1068" type="line" smooth="no"/>
      <point x="918" y="1068" type="line" smooth="no"/>
      <point x="886" y="1281" type="line" smooth="no"/>
      <point x="817" y="1318"/>
      <point x="754" y="1337"/>
    </contour>
    <contour>
      <point x="693" y="761" type="curve" smooth="yes"/>
      <point x="535.403" y="761"/>
      <point x="441.062" y="671.728"/>
      <point x="345" y="577" type="curve" smooth="no"/>
      <point x="345" y="250"/>
      <point x="442" y="87"/>
      <point x="637" y="87" type="curve" smooth="yes"/>
      <point x="826.01" y="87"/>
      <point x="921.008" y="240.39"/>
      <point x="921.008" y="437.894" type="curve" smooth="yes"/>
      <point x="921.008" y="616.067"/>
      <point x="854.699" y="761"/>
    </contour>
  </outline>
</glyph>
<glyph name="seven" format="1">
  <advance width="1201"/>
  <unicode hex="0037"/>
  <outline>
    <contour>
      <point x="1077" y="1437" type="line" smooth="no"/>
      <point x="1094" y="1391"/>
      <point x="1103" y="1340"/>
      <point x="1103" y="1285" type="curve" smooth="no"/>
      <point x="626" y="188" type="line" smooth="yes"/>
      <point x="573.252" y="68.5412"/>
      <point x="551.128" y="-11"/>
      <point x="426" y="-11" type="curve" smooth="yes"/>
      <point x="376" y="-11"/>
      <point x="344" y="1"/>
      <point x="330" y="24" type="curve" smooth="no"/>
      <point x="337" y="46"/>
      <point x="346" y="68"/>
      <point x="357" y="89" type="curve" smooth="yes"/>
      <point x="937" y="1304" type="line" smooth="no"/>
      <point x="500" y="1304" type="line" smooth="yes"/>
      <point x="405" y="1304"/>
      <point x="337" y="1296"/>
      <point x="297" y="1281" type="curve" smooth="no"/>
      <point x="271" y="1067" type="line" smooth="no"/>
      <point x="156" y="1067" type="line" smooth="no"/>
      <point x="111" y="1381" type="line" smooth="no"/>
      <point x="180" y="1418"/>
      <point x="348" y="1437"/>
      <point x="613" y="1437" type="curve" smooth="yes"/>
    </contour>
  </outline>
</glyph>
<glyph name="eight" format="1">
  <advance width="1174"/>
  <unicode hex="0038"/>
  <outline>
    <contour>
      <point x="614" y="800" type="curve" smooth="no"/>
      <point x="737.664" y="869.897"/>
      <point x="837" y="935.774"/>
      <point x="837" y="1099" type="curve" smooth="yes"/>
      <point x="837" y="1255"/>
      <point x="727" y="1336"/>
      <point x="575" y="1337" type="curve" smooth="no"/>
      <point x="418" y="1336"/>
      <point x="314" y="1259"/>
      <point x="314" y="1100" type="curve" smooth="yes"/>
      <point x="314" y="920.697"/>
      <point x="464.212" y="846.211"/>
    </contour>
    <contour>
      <point x="575" y="87" type="curve" smooth="yes"/>
      <point x="575.902" y="86.9945"/>
      <point x="576.802" y="86.9918"/>
      <point x="577.702" y="86.9918" type="curve" smooth="yes"/>
      <point x="740.415" y="86.9918"/>
      <point x="868" y="176.863"/>
      <point x="868" y="333" type="curve" smooth="yes"/>
      <point x="868" y="466"/>
      <point x="776" y="569"/>
      <point x="592" y="642" type="curve" smooth="yes"/>
      <point x="506" y="676" type="line" smooth="no"/>
      <point x="361" y="603"/>
      <point x="289" y="496"/>
      <point x="289" y="356" type="curve" smooth="yes"/>
      <point x="289" y="186.842"/>
      <point x="401.873" y="86.9926"/>
      <point x="572.448" y="86.9926" type="curve" smooth="yes"/>
      <point x="573.297" y="86.9926"/>
      <point x="574.148" y="86.995"/>
    </contour>
    <contour>
      <point x="1030" y="1108" type="curve" smooth="yes"/>
      <point x="1030" y="954.561"/>
      <point x="897.296" y="832.649"/>
      <point x="775" y="740" type="curve" smooth="no"/>
      <point x="978" y="649"/>
      <point x="1080" y="524"/>
      <point x="1080" y="367" type="curve" smooth="yes"/>
      <point x="1080" y="91"/>
      <point x="864" y="-36"/>
      <point x="575" y="-37" type="curve" smooth="yes"/>
      <point x="322" y="-37"/>
      <point x="94" y="83"/>
      <point x="94" y="323" type="curve" smooth="yes"/>
      <point x="94" y="512"/>
      <point x="189" y="649"/>
      <point x="379" y="735" type="curve" smooth="no"/>
      <point x="200.424" y="823.646"/>
      <point x="116" y="917.385"/>
      <point x="116" y="1124" type="curve" smooth="yes"/>
      <point x="116" y="1352.83"/>
      <point x="346.914" y="1458"/>
      <point x="575" y="1458" type="curve" smooth="yes"/>
      <point x="816" y="1458"/>
      <point x="1030" y="1336"/>
    </contour>
  </outline>
</glyph>
<glyph name="nine" format="1">
  <advance width="1223"/>
  <unicode hex="0039"/>
  <outline>
    <contour>
      <point x="887" y="707" type="qcurve"/>
      <point x="707" y="541"/>
      <point x="510" y="541" type="qcurve" smooth="yes"/>
      <point x="334" y="540"/>
      <point x="220" y="660" type="qcurve" smooth="yes"/>
      <point x="104" y="783"/>
      <point x="104" y="987" type="qcurve" smooth="yes"/>
      <point x="104" y="1197"/>
      <point x="238" y="1326" type="qcurve" smooth="yes"/>
      <point x="375" y="1458"/>
      <point x="598" y="1458" type="qcurve" smooth="yes"/>
      <point x="1098" y="1458"/>
      <point x="1098" y="792" type="qcurve" smooth="yes"/>
      <point x="1098" y="172"/>
      <point x="790" y="16" type="qcurve" smooth="yes"/>
      <point x="684" y="-38"/>
      <point x="537" y="-37" type="qcurve" smooth="yes"/>
      <point x="358" y="-38"/>
      <point x="232" y="24" type="qcurve" smooth="yes"/>
      <point x="192" y="44"/>
      <point x="168" y="70" type="qcurve"/>
      <point x="168" y="374" type="line"/>
      <point x="295" y="363" type="line"/>
      <point x="337" y="133" type="line"/>
      <point x="441" y="87"/>
      <point x="616" y="87"/>
      <point x="749" y="170"/>
      <point x="795" y="244" type="qcurve" smooth="yes"/>
      <point x="891" y="399"/>
      <point x="891" y="649" type="qcurve" smooth="yes"/>
      <point x="891" y="677"/>
    </contour>
    <contour>
      <point x="879" y="945" type="qcurve"/>
      <point x="879" y="1234"/>
      <point x="707" y="1312" type="qcurve" smooth="yes"/>
      <point x="653" y="1336"/>
      <point x="526" y="1337"/>
      <point x="475.5" y="1314" type="qcurve" smooth="yes"/>
      <point x="425" y="1290"/>
      <point x="389" y="1246" type="qcurve" smooth="yes"/>
      <point x="313" y="1152"/>
      <point x="313" y="990" type="qcurve" smooth="yes"/>
      <point x="312" y="758"/>
      <point x="442" y="691" type="qcurve" smooth="yes"/>
      <point x="482" y="670"/>
      <point x="610" y="670"/>
      <point x="736" y="724"/>
      <point x="781" y="766" type="qcurve" smooth="yes"/>
      <point x="875" y="852"/>
    </contour>
  </outline>
</glyph>
<glyph name="colon" format="1">
  <advance width="608"/>
  <unicode hex="003a"/>
  <outline>
    <contour>
      <point x="292" y="1055" type="curve" smooth="yes"/>
      <point x="378.74" y="1055"/>
      <point x="444" y="1009.79"/>
      <point x="444" y="934" type="curve" smooth="yes"/>
      <point x="444" y="835"/>
      <point x="398" y="779"/>
      <point x="302" y="779" type="curve" smooth="yes"/>
      <point x="216" y="779"/>
      <point x="166" y="836"/>
      <point x="166" y="920" type="curve" smooth="yes"/>
      <point x="166" y="994"/>
      <point x="222" y="1055"/>
    </contour>
    <contour>
      <point x="290" y="244" type="curve" smooth="yes"/>
      <point x="377.427" y="244"/>
      <point x="442" y="184.539"/>
      <point x="442" y="110" type="curve" smooth="yes"/>
      <point x="442" y="24"/>
      <point x="396" y="-34"/>
      <point x="319" y="-34" type="curve" smooth="yes"/>
      <point x="220" y="-34"/>
      <point x="166" y="12"/>
      <point x="166" y="108" type="curve" smooth="yes"/>
      <point x="166" y="185"/>
      <point x="219" y="244"/>
    </contour>
  </outline>
</glyph>
<glyph name="semicolon" format="1">
  <advance width="474"/>
  <unicode hex="003B"/>
  <outline>
    <contour>
      <point x="41" y="-278" type="qcurve"/>
      <point x="152" y="-111"/>
      <point x="160" y="41" type="qcurve"/>
      <point x="103" y="41"/>
      <point x="84" y="88" type="qcurve" smooth="yes"/>
      <point x="77" y="105"/>
      <point x="81" y="180"/>
      <point x="147" y="248"/>
      <point x="249" y="248"/>
      <point x="303" y="230"/>
      <point x="318" y="214" type="qcurve" smooth="yes"/>
      <point x="345" y="186"/>
      <point x="345" y="67"/>
      <point x="308" y="-62"/>
      <point x="278" y="-121" type="qcurve" smooth="yes"/>
      <point x="216" y="-243"/>
      <point x="128" y="-314" type="qcurve"/>
      <point x="122" y="-316"/>
      <point x="104" y="-316" type="qcurve" smooth="yes"/>
      <point x="60" y="-316"/>
    </contour>
    <contour>
      <point x="81" y="919" type="qcurve" smooth="yes"/>
      <point x="81" y="1031"/>
      <point x="186" y="1051" type="qcurve"/>
      <point x="201" y="1055"/>
      <point x="254" y="1055"/>
      <point x="304" y="1034"/>
      <point x="322" y="1016" type="qcurve" smooth="yes"/>
      <point x="359" y="979"/>
      <point x="359" y="889"/>
      <point x="337" y="833"/>
      <point x="319" y="815" type="qcurve" smooth="yes"/>
      <point x="283" y="779"/>
      <point x="189" y="779"/>
      <point x="133" y="800"/>
      <point x="115" y="819" type="qcurve" smooth="yes"/>
      <point x="81" y="855"/>
    </contour>
  </outline>
</glyph>
<glyph name="less" format="1">
  <advance width="1387"/>
  <unicode hex="003C"/>
  <outline>
    <contour>
      <point x="133" y="552" type="line"/>
      <point x="132" y="588" type="line"/>
      <point x="132" y="595" type="line" smooth="yes"/>
      <point x="132" y="630"/>
      <point x="163" y="644" type="qcurve" smooth="yes"/>
      <point x="345" y="727"/>
      <point x="485" y="791" type="qcurve" smooth="yes"/>
      <point x="730" y="903" type="line" smooth="yes"/>
      <point x="835" y="951"/>
      <point x="983" y="1019"/>
      <point x="1084" y="1064"/>
      <point x="1144" y="1091"/>
      <point x="1179" y="1105"/>
      <point x="1195" y="1112"/>
      <point x="1201" y="1114" type="qcurve"/>
      <point x="1220" y="1099"/>
      <point x="1254" y="985" type="qcurve"/>
      <point x="347" y="569" type="line"/>
      <point x="1252" y="157" type="line"/>
      <point x="1226" y="56"/>
      <point x="1206" y="29"/>
      <point x="1201" y="25" type="qcurve"/>
      <point x="1103" y="66"/>
      <point x="133" y="510" type="qcurve"/>
    </contour>
  </outline>
</glyph>
<glyph name="equal" format="1">
  <advance width="1288"/>
  <unicode hex="003D"/>
  <outline>
    <contour>
      <point x="1155" y="410" type="line" smooth="yes"/>
      <point x="1155" y="347"/>
      <point x="1108" y="332" type="qcurve"/>
      <point x="133" y="332" type="line"/>
      <point x="133" y="399" type="line" smooth="yes"/>
      <point x="133" y="449"/>
      <point x="145" y="459" type="qcurve" smooth="yes"/>
      <point x="163" y="475"/>
      <point x="213" y="475" type="qcurve" smooth="yes"/>
      <point x="1155" y="475" type="line"/>
    </contour>
    <contour>
      <point x="1155" y="811" type="line" smooth="yes"/>
      <point x="1155" y="748"/>
      <point x="1108" y="733" type="qcurve"/>
      <point x="133" y="733" type="line"/>
      <point x="133" y="802" type="line" smooth="yes"/>
      <point x="133" y="874"/>
      <point x="190" y="877" type="qcurve" smooth="yes"/>
      <point x="208" y="878"/>
      <point x="231" y="878" type="qcurve" smooth="yes"/>
      <point x="1155" y="878" type="line"/>
    </contour>
  </outline>
</glyph>
<glyph name="greater" format="1">
  <advance width="1386"/>
  <unicode hex="003e"/>
  <outline>
    <contour>
      <point x="1253" y="509" type="line" smooth="no"/>
      <point x="554" y="189"/>
      <point x="199" y="27"/>
      <point x="186" y="24" type="curve" smooth="no"/>
      <point x="165" y="35"/>
      <point x="148" y="78"/>
      <point x="135" y="155" type="curve" smooth="no"/>
      <point x="1039" y="571" type="line" smooth="no"/>
      <point x="133" y="984" type="line" smooth="no"/>
      <point x="195" y="1115" type="line" smooth="no"/>
      <point x="1228" y="643" type="line" smooth="yes"/>
      <point x="1245" y="635"/>
      <point x="1253" y="612"/>
      <point x="1253" y="573" type="curve" smooth="yes"/>
    </contour>
  </outline>
</glyph>
<glyph name="question" format="1">
  <advance width="984"/>
  <unicode hex="003f"/>
  <outline>
    <contour>
      <point x="88" y="1161" type="line" smooth="no"/>
      <point x="92.1763" y="1357.28"/>
      <point x="250.577" y="1458"/>
      <point x="476" y="1458" type="curve" smooth="yes"/>
      <point x="713" y="1458"/>
      <point x="880" y="1333"/>
      <point x="880" y="1108" type="curve" smooth="yes"/>
      <point x="880" y="989"/>
      <point x="818" y="876"/>
      <point x="694" y="768" type="curve" smooth="yes"/>
      <point x="594.529" y="680.514"/>
      <point x="509" y="639.334"/>
      <point x="509" y="552" type="curve" smooth="yes"/>
      <point x="509" y="503"/>
      <point x="519" y="445"/>
      <point x="540" y="377" type="curve" smooth="no"/>
      <point x="462" y="377" type="line" smooth="no"/>
      <point x="391.907" y="417.053"/>
      <point x="329" y="475.719"/>
      <point x="329" y="576" type="curve" smooth="yes"/>
      <point x="329" y="644"/>
      <point x="376" y="701"/>
      <point x="414" y="742" type="curve" smooth="yes"/>
      <point x="501" y="836"/>
      <point x="658" y="952"/>
      <point x="658" y="1112" type="curve" smooth="yes"/>
      <point x="658" y="1236"/>
      <point x="598" y="1324"/>
      <point x="474" y="1324" type="curve" smooth="yes"/>
      <point x="331" y="1324"/>
      <point x="257" y="1279"/>
      <point x="225" y="1161" type="curve" smooth="no"/>
    </contour>
    <contour>
      <point x="432" y="240" type="curve" smooth="yes"/>
      <point x="527.838" y="240"/>
      <point x="587" y="182.586"/>
      <point x="587" y="90" type="curve" smooth="yes"/>
      <point x="587" y="16"/>
      <point x="530" y="-38"/>
      <point x="462" y="-38" type="curve" smooth="yes"/>
      <point x="361.595" y="-38"/>
      <point x="312.052" y="38.8502"/>
      <point x="312.052" y="111.739" type="curve" smooth="yes"/>
      <point x="312.052" y="177.481"/>
      <point x="352.357" y="240"/>
    </contour>
  </outline>
</glyph>
<glyph name="at" format="1">
  <advance width="1859"/>
  <unicode hex="0040"/>
  <outline>
    <contour>
      <point x="1064" y="1005" type="curve" smooth="yes"/>
      <point x="885.912" y="1005"/>
      <point x="754" y="724.238"/>
      <point x="754" y="533" type="curve" smooth="yes"/>
      <point x="754" y="404.512"/>
      <point x="827.975" y="335.454"/>
      <point x="908.599" y="335.454" type="curve" smooth="yes"/>
      <point x="1127.91" y="335.454"/>
      <point x="1155.51" y="687.573"/>
      <point x="1184" y="906" type="curve" smooth="no"/>
      <point x="1173" y="972"/>
      <point x="1133" y="1005"/>
    </contour>
    <contour>
      <point x="1751" y="767" type="curve" smooth="no"/>
      <point x="1752.85" y="510.019"/>
      <point x="1583.26" y="223"/>
      <point x="1340" y="223" type="curve" smooth="no"/>
      <point x="1225" y="224"/>
      <point x="1147" y="292"/>
      <point x="1117" y="395" type="curve" smooth="no"/>
      <point x="1109" y="395" type="line" smooth="no"/>
      <point x="1064" y="314"/>
      <point x="974" y="223"/>
      <point x="860" y="223" type="curve" smooth="yes"/>
      <point x="665" y="223"/>
      <point x="570" y="343"/>
      <point x="570" y="533" type="curve" smooth="yes"/>
      <point x="570" y="830.485"/>
      <point x="775.617" y="1096"/>
      <point x="1067" y="1096" type="curve" smooth="yes"/>
      <point x="1144" y="1096"/>
      <point x="1201" y="1060"/>
      <point x="1237" y="987" type="curve" smooth="no"/>
      <point x="1276" y="1052" type="line" smooth="no"/>
      <point x="1383" y="1052" type="line" smooth="no"/>
      <point x="1267" y="552" type="line" smooth="yes"/>
      <point x="1258" y="515"/>
      <point x="1254" y="478"/>
      <point x="1254" y="441" type="curve" smooth="yes"/>
      <point x="1254" y="363"/>
      <point x="1290" y="324"/>
      <point x="1362" y="324" type="curve" smooth="yes"/>
      <point x="1529.55" y="324"/>
      <point x="1631.45" y="587.495"/>
      <point x="1633" y="772" type="curve" smooth="no"/>
      <point x="1630.92" y="1122.15"/>
      <point x="1356.44" y="1362"/>
      <point x="1001" y="1362" type="curve" smooth="yes"/>
      <point x="575.254" y="1362"/>
      <point x="312.991" y="1037.08"/>
      <point x="312.991" y="627.238" type="curve" smooth="yes"/>
      <point x="312.991" y="232.127"/>
      <point x="603.779" y="-72"/>
      <point x="996" y="-72" type="curve" smooth="yes"/>
      <point x="1184" y="-72"/>
      <point x="1358" y="-24"/>
      <point x="1515" y="73" type="curve" smooth="no"/>
      <point x="1554" y="0" type="line" smooth="no"/>
      <point x="1375" y="-115"/>
      <point x="1187" y="-172"/>
      <point x="992" y="-172" type="curve" smooth="yes"/>
      <point x="519.612" y="-172"/>
      <point x="133" y="142.191"/>
      <point x="133" y="638" type="curve" smooth="yes"/>
      <point x="133" y="1137.29"/>
      <point x="514.052" y="1468"/>
      <point x="1003" y="1468" type="curve" smooth="yes"/>
      <point x="1426.38" y="1468"/>
      <point x="1753" y="1185.02"/>
    </contour>
  </outline>
</glyph>
<glyph name="A" format="1">
  <advance width="1587"/>
  <unicode hex="0041"/>
  <outline>
    <contour>
      <point x="501" y="-14" type="line"/>
      <point x="448.42" y="-4.5063"/>
      <point x="361.526" y="-0.574312"/>
      <point x="272.44" y="-0.574312" type="curve" smooth="yes"/>
      <point x="168.686" y="-0.574312"/>
      <point x="61.958" y="-5.90772"/>
      <point x="3" y="-14" type="curve"/>
      <point x="33" y="126" type="line"/>
      <point x="79" y="126" type="line" smooth="yes"/>
      <point x="124" y="126"/>
      <point x="156" y="129"/>
      <point x="175" y="135" type="curve"/>
      <point x="223" y="199"/>
      <point x="242" y="272"/>
      <point x="274" y="357" type="curve" smooth="yes"/>
      <point x="340" y="528"/>
      <point x="436" y="772"/>
      <point x="492" y="913" type="curve" smooth="yes"/>
      <point x="700" y="1437" type="line"/>
      <point x="792" y="1437" type="line" smooth="yes"/>
      <point x="841" y="1437"/>
      <point x="882" y="1432"/>
      <point x="914" y="1421" type="curve"/>
      <point x="1355" y="259" type="line" smooth="yes"/>
      <point x="1374" y="208"/>
      <point x="1394" y="166"/>
      <point x="1415" y="135" type="curve"/>
      <point x="1438" y="129"/>
      <point x="1470" y="126"/>
      <point x="1511" y="126" type="curve" smooth="yes"/>
      <point x="1555" y="126" type="line"/>
      <point x="1584" y="-14" type="line"/>
      <point x="1521" y="-5"/>
      <point x="1433" y="0"/>
      <point x="1320" y="0" type="curve" smooth="yes"/>
      <point x="1207" y="0"/>
      <point x="1115" y="-5"/>
      <point x="1044" y="-14" type="curve"/>
      <point x="1025" y="126" type="line"/>
      <point x="1042" y="126" type="line" smooth="yes"/>
      <point x="1091" y="126"/>
      <point x="1124" y="129"/>
      <point x="1141" y="135" type="curve"/>
      <point x="1140" y="170"/>
      <point x="1130" y="211"/>
      <point x="1112" y="256" type="curve" smooth="yes"/>
      <point x="1046" y="423" type="line"/>
      <point x="469" y="423" type="line"/>
      <point x="415" y="259" type="line" smooth="yes"/>
      <point x="400" y="213"/>
      <point x="392" y="176"/>
      <point x="392" y="147" type="curve" smooth="yes"/>
      <point x="392" y="133"/>
      <point x="416" y="126"/>
      <point x="464" y="126" type="curve" smooth="yes"/>
      <point x="510" y="126" type="line"/>
    </contour>
    <contour>
      <point x="753" y="1259" type="line"/>
      <point x="502" y="526" type="line"/>
      <point x="1008" y="526" type="line"/>
      <point x="762" y="1259" type="line"/>
    </contour>
  </outline>
</glyph>
<glyph name="B" format="1">
  <advance width="1444"/>
  <unicode hex="0042"/>
  <outline>
    <contour>
      <point x="187" y="126" type="line" smooth="yes"/>
      <point x="304.648" y="126"/>
      <point x="306.001" y="139.844"/>
      <point x="306.001" y="248.189" type="curve" smooth="yes"/>
      <point x="306.001" y="250.74"/>
      <point x="306" y="253.343"/>
      <point x="306" y="256" type="curve" smooth="yes"/>
      <point x="306" y="1154" type="line" smooth="yes"/>
      <point x="306" y="1215"/>
      <point x="301" y="1263"/>
      <point x="290" y="1298" type="curve"/>
      <point x="262" y="1301"/>
      <point x="241" y="1303"/>
      <point x="227" y="1303" type="curve" smooth="yes"/>
      <point x="213" y="1303"/>
      <point x="163" y="1302"/>
      <point x="78" y="1299" type="curve"/>
      <point x="78" y="1413" type="line"/>
      <point x="267" y="1440"/>
      <point x="498" y="1453"/>
      <point x="770" y="1453" type="curve" smooth="yes"/>
      <point x="1120" y="1453"/>
      <point x="1295" y="1325"/>
      <point x="1295" y="1070" type="curve" smooth="yes"/>
      <point x="1295" y="896"/>
      <point x="1155" y="772"/>
      <point x="996" y="748" type="curve"/>
      <point x="1220" y="718"/>
      <point x="1332" y="600"/>
      <point x="1332" y="393" type="curve" smooth="yes"/>
      <point x="1332" y="2.9415"/>
      <point x="942.014" y="0"/>
      <point x="530" y="0" type="curve" smooth="yes"/>
      <point x="415" y="0"/>
      <point x="271" y="-5"/>
      <point x="98" y="-14" type="curve"/>
      <point x="98" y="126" type="line"/>
    </contour>
    <contour>
      <point x="1076" y="1064" type="curve" smooth="yes"/>
      <point x="1076" y="1255.45"/>
      <point x="935.961" y="1324"/>
      <point x="723" y="1324" type="curve"/>
      <point x="529" y="1316" type="line"/>
      <point x="529" y="804" type="line"/>
      <point x="604" y="799"/>
      <point x="665" y="796"/>
      <point x="714" y="796" type="curve" smooth="yes"/>
      <point x="912" y="796"/>
      <point x="1076" y="876"/>
    </contour>
    <contour>
      <point x="775" y="126" type="line" smooth="yes"/>
      <point x="985" y="126"/>
      <point x="1107" y="200"/>
      <point x="1107" y="398" type="curve" smooth="yes"/>
      <point x="1107" y="586"/>
      <point x="984" y="680"/>
      <point x="737" y="680" type="curve" smooth="yes"/>
      <point x="603" y="680" type="line" smooth="yes"/>
      <point x="567" y="680"/>
      <point x="542" y="679"/>
      <point x="529" y="678" type="curve"/>
      <point x="529" y="126" type="line"/>
    </contour>
  </outline>
</glyph>
<glyph name="C" format="1">
  <advance width="1411"/>
  <unicode hex="0043"/>
  <outline>
    <contour>
      <point x="831" y="1337" type="curve" smooth="yes"/>
      <point x="488.791" y="1337"/>
      <point x="356" y="1074.08"/>
      <point x="356" y="728" type="curve" smooth="yes"/>
      <point x="356" y="373"/>
      <point x="486" y="98"/>
      <point x="815" y="98" type="curve" smooth="yes"/>
      <point x="955" y="98"/>
      <point x="1093" y="139"/>
      <point x="1269" y="221" type="curve"/>
      <point x="1284" y="82" type="line"/>
      <point x="1149" y="3"/>
      <point x="1005" y="-37"/>
      <point x="812" y="-37" type="curve" smooth="yes"/>
      <point x="371" y="-36"/>
      <point x="115" y="240"/>
      <point x="115" y="685" type="curve" smooth="yes"/>
      <point x="115" y="1164"/>
      <point x="365" y="1458"/>
      <point x="837" y="1458" type="curve" smooth="yes"/>
      <point x="998" y="1458"/>
      <point x="1167" y="1422"/>
      <point x="1281" y="1355" type="curve"/>
      <point x="1257" y="1076" type="line"/>
      <point x="1134" y="1076" type="line"/>
      <point x="1072.5" y="1239.99"/>
      <point x="1024.17" y="1337"/>
    </contour>
  </outline>
</glyph>
<glyph name="D" format="1">
  <advance width="1617.01"/>
  <unicode hex="0044"/>
  <outline>
    <contour>
      <point x="626" y="124" type="line" smooth="yes"/>
      <point x="1033.45" y="124"/>
      <point x="1261" y="274.762"/>
      <point x="1261" y="683" type="curve" smooth="yes"/>
      <point x="1261" y="1097"/>
      <point x="1161" y="1314"/>
      <point x="753" y="1314" type="curve"/>
      <point x="515" y="1310" type="line"/>
      <point x="515" y="126" type="line"/>
      <point x="526" y="125"/>
      <point x="536" y="124"/>
      <point x="546" y="124" type="curve" smooth="yes"/>
    </contour>
    <contour>
      <point x="781" y="1453" type="curve" smooth="yes"/>
      <point x="781.99" y="1453"/>
      <point x="782.979" y="1453"/>
      <point x="783.967" y="1453" type="curve" smooth="yes"/>
      <point x="1277.95" y="1453"/>
      <point x="1501.01" y="1202.4"/>
      <point x="1501.01" y="705.486" type="curve" smooth="yes"/>
      <point x="1501.01" y="70.1566"/>
      <point x="1067.3" y="0"/>
      <point x="422" y="0" type="curve" smooth="yes"/>
      <point x="327" y="0"/>
      <point x="217" y="-5"/>
      <point x="91" y="-14" type="curve"/>
      <point x="91" y="127" type="line"/>
      <point x="181" y="127" type="line" smooth="yes"/>
      <point x="231" y="127"/>
      <point x="265" y="130"/>
      <point x="284" y="136" type="curve"/>
      <point x="294" y="166"/>
      <point x="299" y="206"/>
      <point x="299" y="257" type="curve" smooth="yes"/>
      <point x="299" y="1145" type="line" smooth="yes"/>
      <point x="299" y="1199"/>
      <point x="294" y="1247"/>
      <point x="284" y="1288" type="curve"/>
      <point x="264" y="1295"/>
      <point x="230" y="1299"/>
      <point x="181" y="1299" type="curve" smooth="yes"/>
      <point x="78" y="1299" type="line"/>
      <point x="78" y="1416" type="line"/>
      <point x="275" y="1441"/>
      <point x="510" y="1453"/>
    </contour>
  </outline>
</glyph>
<glyph name="E" format="1">
  <advance width="1356"/>
  <unicode hex="0045"/>
  <outline>
    <contour>
      <point x="78" y="1407" type="line"/>
      <point x="240" y="1437"/>
      <point x="592" y="1437" type="qcurve" smooth="yes"/>
      <point x="1204" y="1437" type="line"/>
      <point x="1231" y="1308" type="line"/>
      <point x="1258" y="1173"/>
      <point x="1258" y="1144" type="qcurve"/>
      <point x="1111" y="1138" type="line"/>
      <point x="1103" y="1188" type="line"/>
      <point x="1092" y="1246"/>
      <point x="1080" y="1282" type="qcurve"/>
      <point x="1019" y="1310"/>
      <point x="823" y="1310" type="qcurve" smooth="yes"/>
      <point x="795" y="1310"/>
      <point x="515" y="1303" type="qcurve"/>
      <point x="515" y="799" type="line"/>
      <point x="855" y="799" type="line" smooth="yes"/>
      <point x="903" y="799"/>
      <point x="921" y="812" type="qcurve" smooth="yes"/>
      <point x="955" y="836"/>
      <point x="976" y="910" type="qcurve"/>
      <point x="1028" y="910" type="line"/>
      <point x="1028" y="730"/>
      <point x="1015" y="555" type="qcurve"/>
      <point x="952" y="555" type="line"/>
      <point x="928" y="630"/>
      <point x="907" y="649" type="qcurve" smooth="yes"/>
      <point x="875" y="679"/>
      <point x="822" y="679" type="qcurve" smooth="yes"/>
      <point x="515" y="679" type="line"/>
      <point x="515" y="126" type="line"/>
      <point x="971" y="126" type="line" smooth="yes"/>
      <point x="1080" y="126"/>
      <point x="1119" y="160" type="qcurve"/>
      <point x="1137" y="213"/>
      <point x="1146" y="327" type="qcurve"/>
      <point x="1270" y="325" type="line"/>
      <point x="1270" y="209" type="line" smooth="yes"/>
      <point x="1270" y="141"/>
      <point x="1260" y="21" type="qcurve"/>
      <point x="1167" y="-7"/>
      <point x="952" y="-14"/>
      <point x="869" y="-14" type="qcurve"/>
      <point x="407" y="0" type="line"/>
      <point x="202" y="0"/>
      <point x="89" y="-14" type="qcurve"/>
      <point x="89" y="126" type="line"/>
      <point x="178" y="126" type="line" smooth="yes"/>
      <point x="254" y="126"/>
      <point x="281" y="135" type="qcurve"/>
      <point x="297" y="177"/>
      <point x="297" y="256" type="qcurve" smooth="yes"/>
      <point x="297" y="1174" type="line" smooth="yes"/>
      <point x="297" y="1244"/>
      <point x="280" y="1289" type="qcurve"/>
      <point x="256" y="1299"/>
      <point x="189" y="1299" type="qcurve" smooth="yes"/>
      <point x="78" y="1299" type="line"/>
    </contour>
  </outline>
</glyph>
<glyph name="F" format="1">
  <advance width="1321"/>
  <unicode hex="0046"/>
  <outline>
    <contour>
      <point x="820" y="803" type="line" smooth="yes"/>
      <point x="900.032" y="803"/>
      <point x="920.09" y="841.081"/>
      <point x="940" y="910" type="curve"/>
      <point x="992" y="910" type="line"/>
      <point x="992" y="781"/>
      <point x="988" y="663"/>
      <point x="980" y="555" type="curve"/>
      <point x="917" y="555" type="line"/>
      <point x="890" y="636"/>
      <point x="874" y="672"/>
      <point x="787" y="672" type="curve" smooth="yes"/>
      <point x="523" y="672" type="line"/>
      <point x="523" y="259" type="line" smooth="yes"/>
      <point x="523" y="209"/>
      <point x="528" y="168"/>
      <point x="538" y="135" type="curve"/>
      <point x="557" y="129"/>
      <point x="591" y="126"/>
      <point x="641" y="126" type="curve" smooth="yes"/>
      <point x="731" y="126" type="line"/>
      <point x="731" y="-14" type="line"/>
      <point x="567" y="-5"/>
      <point x="457" y="0"/>
      <point x="400" y="0" type="curve" smooth="yes"/>
      <point x="343" y="0"/>
      <point x="249" y="-4"/>
      <point x="119" y="-13" type="curve"/>
      <point x="98" y="-14" type="line"/>
      <point x="98" y="126" type="line"/>
      <point x="187" y="126" type="line" smooth="yes"/>
      <point x="301.615" y="126"/>
      <point x="305" y="135.892"/>
      <point x="305" y="243" type="curve" smooth="yes"/>
      <point x="305" y="1178" type="line" smooth="yes"/>
      <point x="305" y="1281.52"/>
      <point x="304.723" y="1299"/>
      <point x="197" y="1299" type="curve" smooth="yes"/>
      <point x="78" y="1299" type="line"/>
      <point x="78" y="1407" type="line"/>
      <point x="251" y="1427"/>
      <point x="482" y="1437"/>
      <point x="772" y="1437" type="curve" smooth="yes"/>
      <point x="1212" y="1437" type="line"/>
      <point x="1239" y="1268"/>
      <point x="1241" y="1237"/>
      <point x="1251" y="1144" type="curve"/>
      <point x="1105" y="1138" type="line"/>
      <point x="1105" y="1183"/>
      <point x="1096" y="1231"/>
      <point x="1078" y="1282" type="curve"/>
      <point x="1039" y="1301"/>
      <point x="984" y="1310"/>
      <point x="912" y="1310" type="curve" smooth="yes"/>
      <point x="840" y="1310"/>
      <point x="710" y="1308"/>
      <point x="523" y="1303" type="curve"/>
      <point x="523" y="803" type="line"/>
    </contour>
  </outline>
</glyph>
<glyph name="G" format="1">
  <advance width="1395"/>
  <unicode hex="0047"/>
  <outline>
    <contour>
      <point x="1350" y="101" type="line"/>
      <point x="1148" y="-37"/>
      <point x="842" y="-37" type="qcurve" smooth="yes"/>
      <point x="519" y="-38"/>
      <point x="327" y="136" type="qcurve" smooth="yes"/>
      <point x="117" y="326"/>
      <point x="117" y="683" type="qcurve" smooth="yes"/>
      <point x="116" y="1064"/>
      <point x="328" y="1266" type="qcurve" smooth="yes"/>
      <point x="529" y="1458"/>
      <point x="896" y="1458" type="qcurve" smooth="yes"/>
      <point x="1091" y="1458"/>
      <point x="1256" y="1389" type="qcurve" smooth="yes"/>
      <point x="1299" y="1371"/>
      <point x="1324" y="1355" type="qcurve"/>
      <point x="1299" y="1076" type="line"/>
      <point x="1176" y="1076" type="line"/>
      <point x="1122" y="1221"/>
      <point x="1064" y="1274" type="qcurve" smooth="yes"/>
      <point x="996" y="1337"/>
      <point x="741" y="1337"/>
      <point x="644.5" y="1293" type="qcurve" smooth="yes"/>
      <point x="548" y="1250"/>
      <point x="484" y="1168" type="qcurve" smooth="yes"/>
      <point x="358" y="1008"/>
      <point x="358" y="705" type="qcurve" smooth="yes"/>
      <point x="358" y="427"/>
      <point x="482" y="265" type="qcurve" smooth="yes"/>
      <point x="611" y="97"/>
      <point x="844" y="97" type="qcurve" smooth="yes"/>
      <point x="1026" y="97"/>
      <point x="1140" y="152" type="qcurve"/>
      <point x="1140" y="384" type="line" smooth="yes"/>
      <point x="1140" y="469"/>
      <point x="1126" y="513" type="qcurve"/>
      <point x="1088" y="527"/>
      <point x="1019" y="527" type="qcurve" smooth="yes"/>
      <point x="901" y="527" type="line"/>
      <point x="901" y="635" type="line"/>
      <point x="918" y="636"/>
      <point x="971" y="642"/>
      <point x="1012" y="645" type="qcurve" smooth="yes"/>
      <point x="1121" y="653"/>
      <point x="1198" y="653" type="qcurve" smooth="yes"/>
      <point x="1301" y="653" type="line" smooth="yes"/>
      <point x="1327" y="653"/>
      <point x="1356" y="652" type="qcurve"/>
      <point x="1350" y="508"/>
      <point x="1350" y="485" type="qcurve" smooth="yes"/>
    </contour>
  </outline>
</glyph>
<glyph name="H" format="1">
  <advance width="1696"/>
  <unicode hex="0048"/>
  <outline>
    <contour>
      <point x="169" y="126" type="line" smooth="yes"/>
      <point x="286.648" y="126"/>
      <point x="288.001" y="142.153"/>
      <point x="288.001" y="248.348" type="curve" smooth="yes"/>
      <point x="288.001" y="250.849"/>
      <point x="288" y="253.399"/>
      <point x="288" y="256" type="curve" smooth="yes"/>
      <point x="288" y="1181" type="line" smooth="yes"/>
      <point x="288" y="1228"/>
      <point x="282" y="1268"/>
      <point x="271" y="1301" type="curve" smooth="no"/>
      <point x="251" y="1308"/>
      <point x="217" y="1312"/>
      <point x="168" y="1312" type="curve" smooth="yes"/>
      <point x="78" y="1312" type="line" smooth="no"/>
      <point x="78" y="1422" type="line" smooth="no"/>
      <point x="164" y="1432"/>
      <point x="277" y="1437"/>
      <point x="418" y="1437" type="curve" smooth="yes"/>
      <point x="559" y="1437"/>
      <point x="659" y="1432"/>
      <point x="716" y="1422" type="curve" smooth="no"/>
      <point x="716" y="1312" type="line" smooth="no"/>
      <point x="623" y="1312" type="line" smooth="yes"/>
      <point x="576" y="1312"/>
      <point x="541" y="1308"/>
      <point x="520" y="1301" type="curve" smooth="no"/>
      <point x="511" y="1270"/>
      <point x="506" y="1230"/>
      <point x="506" y="1181" type="curve" smooth="yes"/>
      <point x="506" y="811" type="line" smooth="no"/>
      <point x="1189" y="811" type="line" smooth="no"/>
      <point x="1189" y="1181" type="line" smooth="yes"/>
      <point x="1189" y="1230"/>
      <point x="1184" y="1270"/>
      <point x="1173" y="1301" type="curve" smooth="no"/>
      <point x="1153" y="1308"/>
      <point x="1119" y="1312"/>
      <point x="1070" y="1312" type="curve" smooth="yes"/>
      <point x="980" y="1312" type="line" smooth="no"/>
      <point x="980" y="1422" type="line" smooth="no"/>
      <point x="1066" y="1432"/>
      <point x="1179" y="1437"/>
      <point x="1320" y="1437" type="curve" smooth="yes"/>
      <point x="1461" y="1437"/>
      <point x="1561" y="1432"/>
      <point x="1618" y="1422" type="curve" smooth="no"/>
      <point x="1618" y="1312" type="line" smooth="no"/>
      <point x="1525" y="1312" type="line" smooth="yes"/>
      <point x="1476" y="1312"/>
      <point x="1442" y="1308"/>
      <point x="1422" y="1301" type="curve" smooth="no"/>
      <point x="1411" y="1266"/>
      <point x="1406" y="1226"/>
      <point x="1406" y="1181" type="curve" smooth="yes"/>
      <point x="1406" y="259" type="line" smooth="yes"/>
      <point x="1406" y="209"/>
      <point x="1411" y="168"/>
      <point x="1421" y="135" type="curve" smooth="no"/>
      <point x="1440" y="129"/>
      <point x="1474" y="126"/>
      <point x="1524" y="126" type="curve" smooth="yes"/>
      <point x="1614" y="126" type="line" smooth="no"/>
      <point x="1614" y="-14" type="line" smooth="no"/>
      <point x="1539" y="-5"/>
      <point x="1433" y="0"/>
      <point x="1297" y="0" type="curve" smooth="yes"/>
      <point x="1161" y="0"/>
      <point x="1056" y="-5"/>
      <point x="981" y="-14" type="curve" smooth="no"/>
      <point x="981" y="126" type="line" smooth="no"/>
      <point x="1070" y="126" type="line" smooth="yes"/>
      <point x="1187.65" y="126"/>
      <point x="1189" y="139.844"/>
      <point x="1189" y="248.189" type="curve" smooth="yes"/>
      <point x="1189" y="256" type="line" smooth="no"/>
      <point x="1189" y="676" type="line" smooth="no"/>
      <point x="506" y="676" type="line" smooth="no"/>
      <point x="506" y="259" type="line" smooth="yes"/>
      <point x="506" y="207"/>
      <point x="511" y="166"/>
      <point x="520" y="135" type="curve" smooth="no"/>
      <point x="540" y="129"/>
      <point x="574" y="126"/>
      <point x="623" y="126" type="curve" smooth="yes"/>
      <point x="713" y="126" type="line" smooth="no"/>
      <point x="713" y="-14" type="line" smooth="no"/>
      <point x="638" y="-5"/>
      <point x="532" y="0"/>
      <point x="396" y="0" type="curve" smooth="yes"/>
      <point x="260" y="0"/>
      <point x="155" y="-5"/>
      <point x="80" y="-14" type="curve" smooth="no"/>
      <point x="80" y="126" type="line" smooth="no"/>
    </contour>
  </outline>
</glyph>
<glyph name="I" format="1">
  <advance width="792"/>
  <unicode hex="0049"/>
  <outline>
    <contour>
      <point x="168" y="126" type="line" smooth="yes"/>
      <point x="285.648" y="126"/>
      <point x="287.001" y="142.153"/>
      <point x="287.001" y="248.348" type="curve" smooth="yes"/>
      <point x="287.001" y="250.849"/>
      <point x="287" y="253.399"/>
      <point x="287" y="256" type="curve" smooth="yes"/>
      <point x="287" y="1187" type="line" smooth="yes"/>
      <point x="287" y="1232"/>
      <point x="282" y="1270"/>
      <point x="271" y="1301" type="curve" smooth="no"/>
      <point x="251" y="1308"/>
      <point x="217" y="1312"/>
      <point x="168" y="1312" type="curve" smooth="yes"/>
      <point x="78" y="1312" type="line" smooth="no"/>
      <point x="78" y="1422" type="line" smooth="no"/>
      <point x="164" y="1432"/>
      <point x="278" y="1437"/>
      <point x="420" y="1437" type="curve" smooth="yes"/>
      <point x="562" y="1437"/>
      <point x="659" y="1432"/>
      <point x="714" y="1422" type="curve" smooth="no"/>
      <point x="714" y="1312" type="line" smooth="no"/>
      <point x="622" y="1312" type="line" smooth="yes"/>
      <point x="575" y="1312"/>
      <point x="540" y="1308"/>
      <point x="519" y="1301" type="curve" smooth="no"/>
      <point x="510" y="1265"/>
      <point x="505" y="1227"/>
      <point x="505" y="1187" type="curve" smooth="yes"/>
      <point x="505" y="259" type="line" smooth="yes"/>
      <point x="505" y="212"/>
      <point x="510" y="171"/>
      <point x="519" y="135" type="curve" smooth="no"/>
      <point x="542" y="129"/>
      <point x="576" y="126"/>
      <point x="622" y="126" type="curve" smooth="yes"/>
      <point x="712" y="126" type="line" smooth="no"/>
      <point x="712" y="-14" type="line" smooth="no"/>
      <point x="639" y="-5"/>
      <point x="536" y="0"/>
      <point x="404" y="0" type="curve" smooth="yes"/>
      <point x="272" y="0"/>
      <point x="164" y="-5"/>
      <point x="79" y="-14" type="curve" smooth="no"/>
      <point x="79" y="126" type="line" smooth="no"/>
    </contour>
  </outline>
</glyph>
<glyph name="J" format="1">
  <advance width="1023"/>
  <unicode hex="004a"/>
  <outline>
    <contour>
      <point x="755" y="316" type="line" smooth="yes"/>
      <point x="755" y="40.9383"/>
      <point x="660.243" y="-177"/>
      <point x="426" y="-177" type="curve" smooth="yes"/>
      <point x="296" y="-177"/>
      <point x="114" y="-151"/>
      <point x="47" y="-106" type="curve" smooth="no"/>
      <point x="47" y="-84"/>
      <point x="54" y="23"/>
      <point x="67" y="214" type="curve" smooth="no"/>
      <point x="208" y="208" type="line" smooth="no"/>
      <point x="215" y="143"/>
      <point x="229" y="62"/>
      <point x="250" y="-36" type="curve" smooth="no"/>
      <point x="300" y="-46"/>
      <point x="342" y="-51"/>
      <point x="375" y="-51" type="curve" smooth="yes"/>
      <point x="533.525" y="-51"/>
      <point x="537.007" y="128.614"/>
      <point x="537.007" y="323.981" type="curve" smooth="yes"/>
      <point x="537.007" y="332.96"/>
      <point x="537" y="341.971"/>
      <point x="537" y="351" type="curve" smooth="yes"/>
      <point x="537" y="1181" type="line" smooth="yes"/>
      <point x="537" y="1295.34"/>
      <point x="536.621" y="1312"/>
      <point x="418" y="1312" type="curve" smooth="yes"/>
      <point x="328" y="1312" type="line" smooth="no"/>
      <point x="328" y="1422" type="line" smooth="no"/>
      <point x="414" y="1432"/>
      <point x="527" y="1437"/>
      <point x="668" y="1437" type="curve" smooth="yes"/>
      <point x="809" y="1437"/>
      <point x="909" y="1432"/>
      <point x="966" y="1422" type="curve" smooth="no"/>
      <point x="966" y="1312" type="line" smooth="no"/>
      <point x="874" y="1312" type="line" smooth="yes"/>
      <point x="755.054" y="1312"/>
      <point x="755" y="1292.56"/>
      <point x="755" y="1180" type="curve" smooth="yes"/>
    </contour>
  </outline>
</glyph>
<glyph name="K" format="1">
  <advance width="1495"/>
  <unicode hex="004B"/>
  <outline>
    <contour>
      <point x="894" y="1422" type="line"/>
      <point x="989" y="1432"/>
      <point x="1098" y="1437"/>
      <point x="1222" y="1437" type="curve" smooth="yes"/>
      <point x="1346" y="1437"/>
      <point x="1428" y="1432"/>
      <point x="1469" y="1422" type="curve"/>
      <point x="1462" y="1312" type="line"/>
      <point x="1384" y="1312" type="line" smooth="yes"/>
      <point x="1343" y="1312"/>
      <point x="1312" y="1308"/>
      <point x="1289" y="1301" type="curve"/>
      <point x="1094.29" y="1140.45"/>
      <point x="884.269" y="884.296"/>
      <point x="763" y="751" type="curve"/>
      <point x="1160" y="256" type="line"/>
      <point x="1201" y="203"/>
      <point x="1237" y="163"/>
      <point x="1268" y="135" type="curve"/>
      <point x="1289" y="129"/>
      <point x="1322" y="126"/>
      <point x="1367" y="126" type="curve" smooth="yes"/>
      <point x="1446" y="126" type="line"/>
      <point x="1460" y="-14" type="line"/>
      <point x="1383" y="-5"/>
      <point x="1282" y="0"/>
      <point x="1157" y="0" type="curve" smooth="yes"/>
      <point x="1032" y="0"/>
      <point x="927" y="-5"/>
      <point x="843" y="-14" type="curve"/>
      <point x="843" y="126" type="line"/>
      <point x="862" y="126" type="line" smooth="yes"/>
      <point x="912" y="126"/>
      <point x="944" y="129"/>
      <point x="959" y="135" type="curve"/>
      <point x="948" y="162"/>
      <point x="923" y="202"/>
      <point x="883" y="256" type="curve" smooth="yes"/>
      <point x="574" y="668" type="line"/>
      <point x="559" y="683"/>
      <point x="545" y="702"/>
      <point x="534" y="725" type="curve"/>
      <point x="570" y="776"/>
      <point x="719" y="942"/>
      <point x="982" y="1221" type="curve" smooth="yes"/>
      <point x="1016" y="1258"/>
      <point x="1025" y="1265"/>
      <point x="1025" y="1301" type="curve"/>
      <point x="1010" y="1308"/>
      <point x="982" y="1312"/>
      <point x="940" y="1312" type="curve" smooth="yes"/>
      <point x="885" y="1312" type="line"/>
    </contour>
    <contour>
      <point x="169" y="126" type="line" smooth="yes"/>
      <point x="283.615" y="126"/>
      <point x="287" y="135.892"/>
      <point x="287" y="243" type="curve" smooth="yes"/>
      <point x="287" y="1181" type="line" smooth="yes"/>
      <point x="287" y="1230"/>
      <point x="282" y="1270"/>
      <point x="271" y="1301" type="curve"/>
      <point x="251" y="1308"/>
      <point x="217" y="1312"/>
      <point x="168" y="1312" type="curve" smooth="yes"/>
      <point x="78" y="1312" type="line"/>
      <point x="78" y="1422" type="line"/>
      <point x="164" y="1432"/>
      <point x="278" y="1437"/>
      <point x="420" y="1437" type="curve" smooth="yes"/>
      <point x="562" y="1437"/>
      <point x="659" y="1432"/>
      <point x="714" y="1422" type="curve"/>
      <point x="714" y="1312" type="line"/>
      <point x="622" y="1312" type="line" smooth="yes"/>
      <point x="575" y="1312"/>
      <point x="540" y="1308"/>
      <point x="519" y="1301" type="curve"/>
      <point x="510" y="1265"/>
      <point x="505" y="1225"/>
      <point x="505" y="1181" type="curve" smooth="yes"/>
      <point x="505" y="256" type="line" smooth="yes"/>
      <point x="505" y="253.252"/>
      <point x="504.999" y="250.561"/>
      <point x="504.999" y="247.926" type="curve" smooth="yes"/>
      <point x="504.999" y="142.304"/>
      <point x="506.43" y="126"/>
      <point x="624" y="126" type="curve" smooth="yes"/>
      <point x="713" y="126" type="line"/>
      <point x="713" y="-14" type="line"/>
      <point x="629" y="-5"/>
      <point x="523" y="0"/>
      <point x="396" y="0" type="curve" smooth="yes"/>
      <point x="269" y="0"/>
      <point x="164" y="-5"/>
      <point x="80" y="-14" type="curve"/>
      <point x="80" y="126" type="line"/>
    </contour>
  </outline>
</glyph>
<glyph name="L" format="1">
  <advance width="1331"/>
  <unicode hex="004C"/>
  <outline>
    <contour>
      <point x="78" y="1422" type="line"/>
      <point x="207" y="1437"/>
      <point x="633" y="1437"/>
      <point x="716" y="1422" type="qcurve"/>
      <point x="716" y="1312" type="line"/>
      <point x="623" y="1312" type="line" smooth="yes"/>
      <point x="552" y="1312"/>
      <point x="520" y="1301" type="qcurve"/>
      <point x="506" y="1255"/>
      <point x="506" y="1181" type="qcurve" smooth="yes"/>
      <point x="506" y="126" type="line"/>
      <point x="887" y="126" type="line" smooth="yes"/>
      <point x="1009" y="126"/>
      <point x="1049" y="148" type="qcurve" smooth="yes"/>
      <point x="1124" y="189"/>
      <point x="1159" y="327" type="qcurve"/>
      <point x="1245" y="315" type="line"/>
      <point x="1208" y="0" type="line"/>
      <point x="1003" y="-14"/>
      <point x="722" y="-14"/>
      <point x="481" y="0"/>
      <point x="205" y="0"/>
      <point x="79" y="-14" type="qcurve"/>
      <point x="79" y="126" type="line"/>
      <point x="168" y="126" type="line" smooth="yes"/>
      <point x="243" y="126"/>
      <point x="271" y="135" type="qcurve"/>
      <point x="287" y="179"/>
      <point x="287" y="256" type="qcurve" smooth="yes"/>
      <point x="287" y="1181" type="line" smooth="yes"/>
      <point x="287" y="1255"/>
      <point x="271" y="1301" type="qcurve"/>
      <point x="241" y="1312"/>
      <point x="168" y="1312" type="qcurve" smooth="yes"/>
      <point x="78" y="1312" type="line"/>
    </contour>
  </outline>
</glyph>
<glyph name="M" format="1">
  <advance width="2186"/>
  <unicode hex="004D"/>
  <outline>
    <contour>
      <point x="1917" y="1312" type="line"/>
      <point x="1916.04" y="1312" type="line" smooth="yes"/>
      <point x="1841.19" y="1312"/>
      <point x="1808" y="1311.87"/>
      <point x="1808" y="1251" type="curve" smooth="yes"/>
      <point x="1808" y="1234"/>
      <point x="1810" y="1206"/>
      <point x="1813" y="1167" type="curve" smooth="yes"/>
      <point x="1883" y="256" type="line" smooth="yes"/>
      <point x="1885" y="227"/>
      <point x="1894" y="187"/>
      <point x="1909" y="138" type="curve"/>
      <point x="1943" y="130"/>
      <point x="1987" y="126"/>
      <point x="2042" y="126" type="curve" smooth="yes"/>
      <point x="2095" y="126" type="line"/>
      <point x="2117" y="-14" type="line"/>
      <point x="2038" y="-5"/>
      <point x="1934" y="0"/>
      <point x="1803" y="0" type="curve" smooth="yes"/>
      <point x="1672" y="0"/>
      <point x="1569" y="-5"/>
      <point x="1494" y="-14" type="curve"/>
      <point x="1482" y="126" type="line"/>
      <point x="1563" y="126" type="line" smooth="yes"/>
      <point x="1638" y="126"/>
      <point x="1668" y="134"/>
      <point x="1668" y="194" type="curve" smooth="yes"/>
      <point x="1668" y="550.489"/>
      <point x="1629.9" y="823.075"/>
      <point x="1601" y="1194" type="curve"/>
      <point x="1378" y="566"/>
      <point x="1233" y="168"/>
      <point x="1168" y="0" type="curve"/>
      <point x="980" y="0" type="line"/>
      <point x="803.209" y="475.976"/>
      <point x="765.776" y="610.055"/>
      <point x="572" y="1184" type="curve"/>
      <point x="531" y="571"/>
      <point x="510" y="252"/>
      <point x="510" y="228" type="curve" smooth="yes"/>
      <point x="510" y="146"/>
      <point x="526" y="126"/>
      <point x="613" y="126" type="curve" smooth="yes"/>
      <point x="694" y="126" type="line"/>
      <point x="682" y="-14" type="line"/>
      <point x="601.667" y="-4.26261"/>
      <point x="489.095" y="0.259855"/>
      <point x="377.755" y="0.259855" type="curve" smooth="yes"/>
      <point x="260.409" y="0.259855"/>
      <point x="144.43" y="-4.76365"/>
      <point x="69" y="-14" type="curve"/>
      <point x="91" y="126" type="line"/>
      <point x="191" y="126" type="line" smooth="yes"/>
      <point x="240" y="126"/>
      <point x="275" y="129"/>
      <point x="296" y="135" type="curve"/>
      <point x="343" y="218"/>
      <point x="342" y="273"/>
      <point x="354" y="387" type="curve" smooth="yes"/>
      <point x="375.755" y="598.148"/>
      <point x="419" y="1025.96"/>
      <point x="419" y="1210" type="curve" smooth="yes"/>
      <point x="419" y="1309.05"/>
      <point x="395.069" y="1312"/>
      <point x="301" y="1312" type="curve" smooth="yes"/>
      <point x="197" y="1312" type="line"/>
      <point x="197" y="1422" type="line"/>
      <point x="270" y="1432"/>
      <point x="345" y="1437"/>
      <point x="424" y="1437" type="curve" smooth="yes"/>
      <point x="537" y="1437"/>
      <point x="626" y="1432"/>
      <point x="689" y="1422" type="curve"/>
      <point x="752" y="1275"/>
      <point x="855" y="978"/>
      <point x="999" y="530" type="curve" smooth="yes"/>
      <point x="1062" y="335"/>
      <point x="1096" y="233"/>
      <point x="1103" y="224" type="curve"/>
      <point x="1286" y="778"/>
      <point x="1425" y="1177"/>
      <point x="1521" y="1422" type="curve"/>
      <point x="1588" y="1432"/>
      <point x="1657" y="1437"/>
      <point x="1729" y="1437" type="curve" smooth="yes"/>
      <point x="1825" y="1437"/>
      <point x="1913" y="1432"/>
      <point x="1993" y="1422" type="curve"/>
      <point x="2003" y="1312" type="line"/>
    </contour>
  </outline>
</glyph>
<glyph name="N" format="1">
  <advance width="1666"/>
  <unicode hex="004e"/>
  <outline>
    <contour>
      <point x="308" y="1181" type="line" smooth="yes"/>
      <point x="308" y="1295.34"/>
      <point x="307.092" y="1312"/>
      <point x="189" y="1312" type="curve" smooth="yes"/>
      <point x="78" y="1312" type="line" smooth="no"/>
      <point x="78" y="1422" type="line" smooth="no"/>
      <point x="201" y="1432"/>
      <point x="286" y="1437"/>
      <point x="334" y="1437" type="curve" smooth="yes"/>
      <point x="432" y="1437"/>
      <point x="498" y="1433"/>
      <point x="531" y="1424" type="curve" smooth="no"/>
      <point x="826" y="969"/>
      <point x="1068" y="582"/>
      <point x="1256" y="265" type="curve" smooth="no"/>
      <point x="1242" y="1181" type="line" smooth="yes"/>
      <point x="1242" y="1234"/>
      <point x="1237" y="1274"/>
      <point x="1226" y="1301" type="curve" smooth="no"/>
      <point x="1203" y="1308"/>
      <point x="1168" y="1312"/>
      <point x="1123" y="1312" type="curve" smooth="yes"/>
      <point x="1022" y="1312" type="line" smooth="no"/>
      <point x="1022" y="1422" type="line" smooth="no"/>
      <point x="1097" y="1432"/>
      <point x="1201" y="1437"/>
      <point x="1334" y="1437" type="curve" smooth="yes"/>
      <point x="1467" y="1437"/>
      <point x="1559" y="1432"/>
      <point x="1608" y="1422" type="curve" smooth="no"/>
      <point x="1608" y="1312" type="line" smooth="no"/>
      <point x="1528" y="1312" type="line" smooth="yes"/>
      <point x="1483" y="1312"/>
      <point x="1448" y="1308"/>
      <point x="1425" y="1301" type="curve" smooth="no"/>
      <point x="1415" y="1272"/>
      <point x="1410" y="1205"/>
      <point x="1410" y="1100" type="curve" smooth="yes"/>
      <point x="1410" y="995"/>
      <point x="1400" y="624"/>
      <point x="1381" y="-14" type="curve" smooth="no"/>
      <point x="1277" y="-14" type="line" smooth="yes"/>
      <point x="1240" y="-14"/>
      <point x="1210" y="-7"/>
      <point x="1186" y="7" type="curve" smooth="no"/>
      <point x="460" y="1162" type="line" smooth="no"/>
      <point x="460.8" y="1138.8"/>
      <point x="461.113" y="1109.86"/>
      <point x="461.113" y="1076.54" type="curve" smooth="yes"/>
      <point x="461.113" y="955.844"/>
      <point x="457.002" y="777.636"/>
      <point x="457.002" y="606.463" type="curve" smooth="yes"/>
      <point x="457.002" y="403.63"/>
      <point x="462.775" y="210.676"/>
      <point x="488" y="135" type="curve" smooth="no"/>
      <point x="510" y="129"/>
      <point x="544" y="126"/>
      <point x="591" y="126" type="curve" smooth="yes"/>
      <point x="682" y="126" type="line" smooth="no"/>
      <point x="682" y="-14" type="line" smooth="no"/>
      <point x="615" y="-5"/>
      <point x="520" y="0"/>
      <point x="399" y="0" type="curve" smooth="yes"/>
      <point x="278" y="0"/>
      <point x="178" y="-5"/>
      <point x="101" y="-14" type="curve" smooth="no"/>
      <point x="101" y="126" type="line" smooth="no"/>
      <point x="190" y="126" type="line" smooth="yes"/>
      <point x="307.648" y="126"/>
      <point x="309.001" y="139.844"/>
      <point x="309.001" y="248.189" type="curve" smooth="yes"/>
      <point x="309.001" y="250.74"/>
      <point x="309" y="253.343"/>
      <point x="309" y="256" type="curve" smooth="yes"/>
    </contour>
  </outline>
</glyph>
<glyph name="O" format="1">
  <advance width="1567"/>
  <unicode hex="004F"/>
  <outline>
    <contour>
      <point x="785" y="1458" type="curve" smooth="yes"/>
      <point x="1217" y="1458"/>
      <point x="1451" y="1159"/>
      <point x="1451" y="715" type="curve" smooth="yes"/>
      <point x="1451" y="265"/>
      <point x="1214" y="-37"/>
      <point x="785" y="-37" type="curve" smooth="yes"/>
      <point x="353" y="-37"/>
      <point x="116" y="270"/>
      <point x="116" y="714" type="curve" smooth="yes"/>
      <point x="116" y="1160"/>
      <point x="350" y="1458"/>
    </contour>
    <contour>
      <point x="785" y="1337" type="curve"/>
      <point x="485.342" y="1335.56"/>
      <point x="357" y="1070.5"/>
      <point x="357" y="711" type="curve" smooth="yes"/>
      <point x="357" y="360"/>
      <point x="461" y="87"/>
      <point x="785" y="87" type="curve" smooth="yes"/>
      <point x="1089.01" y="87"/>
      <point x="1211" y="352.495"/>
      <point x="1211" y="714" type="curve" smooth="yes"/>
      <point x="1211" y="1065.93"/>
      <point x="1103.92" y="1337"/>
    </contour>
  </outline>
</glyph>
<glyph name="P" format="1">
  <advance width="1345"/>
  <unicode hex="0050"/>
  <outline>
    <contour>
      <point x="732" y="-14" type="line"/>
      <point x="623" y="0"/>
      <point x="225" y="0"/>
      <point x="99" y="-14" type="qcurve"/>
      <point x="99" y="126" type="line"/>
      <point x="188" y="126" type="line" smooth="yes"/>
      <point x="263" y="126"/>
      <point x="291" y="135" type="qcurve"/>
      <point x="307" y="176"/>
      <point x="307" y="256" type="qcurve" smooth="yes"/>
      <point x="306" y="1186" type="line" smooth="yes"/>
      <point x="306" y="1266"/>
      <point x="290" y="1305" type="qcurve"/>
      <point x="262" y="1312"/>
      <point x="188" y="1312" type="qcurve" smooth="yes"/>
      <point x="78" y="1312" type="line"/>
      <point x="78" y="1422" type="line"/>
      <point x="272" y="1448"/>
      <point x="798" y="1448"/>
      <point x="1029" y="1408"/>
      <point x="1107" y="1358" type="qcurve" smooth="yes"/>
      <point x="1265" y="1257"/>
      <point x="1265" y="1012" type="qcurve" smooth="yes"/>
      <point x="1265" y="583"/>
      <point x="688" y="583" type="qcurve" smooth="yes"/>
      <point x="604" y="583"/>
      <point x="524" y="588" type="qcurve"/>
      <point x="524" y="259" type="line" smooth="yes"/>
      <point x="524" y="184"/>
      <point x="539" y="135" type="qcurve"/>
      <point x="572" y="126"/>
      <point x="642" y="126" type="qcurve" smooth="yes"/>
      <point x="732" y="126" type="line"/>
    </contour>
    <contour>
      <point x="524" y="709" type="line"/>
      <point x="586" y="707"/>
      <point x="779" y="707"/>
      <point x="849.5" y="729" type="qcurve" smooth="yes"/>
      <point x="920" y="750"/>
      <point x="962" y="790" type="qcurve" smooth="yes"/>
      <point x="1040" y="863"/>
      <point x="1041" y="1011" type="qcurve" smooth="yes"/>
      <point x="1041" y="1178"/>
      <point x="957" y="1246" type="qcurve" smooth="yes"/>
      <point x="876" y="1312"/>
      <point x="695" y="1312" type="qcurve" smooth="yes"/>
      <point x="524" y="1312" type="line"/>
    </contour>
  </outline>
</glyph>
<glyph name="Q" format="1">
  <advance width="1616"/>
  <unicode hex="0051"/>
  <outline>
    <contour>
      <point x="779" y="84" type="qcurve" smooth="yes"/>
      <point x="1205" y="84"/>
      <point x="1205" y="712" type="qcurve" smooth="yes"/>
      <point x="1206" y="1178"/>
      <point x="960" y="1298" type="qcurve" smooth="yes"/>
      <point x="880" y="1337"/>
      <point x="678" y="1337"/>
      <point x="598.5" y="1298" type="qcurve" smooth="yes"/>
      <point x="518" y="1259"/>
      <point x="464" y="1181" type="qcurve" smooth="yes"/>
      <point x="352" y="1021"/>
      <point x="353" y="397"/>
      <point x="571" y="84"/>
    </contour>
    <contour>
      <point x="1499" y="-118" type="line"/>
      <point x="1301" y="-205"/>
      <point x="1128" y="-205" type="qcurve" smooth="yes"/>
      <point x="880" y="-205"/>
      <point x="696" y="-31" type="qcurve"/>
      <point x="274" y="16"/>
      <point x="155" y="416" type="qcurve" smooth="yes"/>
      <point x="115" y="550"/>
      <point x="115" y="898"/>
      <point x="208" y="1170"/>
      <point x="294" y="1264" type="qcurve" smooth="yes"/>
      <point x="470" y="1458"/>
      <point x="779" y="1458" type="qcurve" smooth="yes"/>
      <point x="1068" y="1458"/>
      <point x="1250" y="1266" type="qcurve" smooth="yes"/>
      <point x="1438" y="1067"/>
      <point x="1440" y="736" type="qcurve"/>
      <point x="1440" y="484"/>
      <point x="1332" y="290" type="qcurve" smooth="yes"/>
      <point x="1207" y="64"/>
      <point x="966" y="0" type="qcurve"/>
      <point x="1045" y="-66"/>
      <point x="1238" y="-66" type="qcurve" smooth="yes"/>
      <point x="1279" y="-66"/>
      <point x="1472" y="-13" type="qcurve"/>
    </contour>
  </outline>
</glyph>
<glyph name="R" format="1">
  <advance width="1469"/>
  <unicode hex="0052"/>
  <outline>
    <contour>
      <point x="1292" y="-14" type="line" smooth="yes"/>
      <point x="962.604" y="-14"/>
      <point x="865.148" y="300.874"/>
      <point x="800" y="608" type="curve"/>
      <point x="693" y="608"/>
      <point x="601" y="610"/>
      <point x="524" y="613" type="curve"/>
      <point x="524" y="259" type="line" smooth="yes"/>
      <point x="524" y="209"/>
      <point x="529" y="168"/>
      <point x="539" y="135" type="curve"/>
      <point x="561" y="129"/>
      <point x="595" y="126"/>
      <point x="642" y="126" type="curve" smooth="yes"/>
      <point x="732" y="126" type="line"/>
      <point x="732" y="-14" type="line"/>
      <point x="659" y="-5"/>
      <point x="557" y="0"/>
      <point x="424" y="0" type="curve" smooth="yes"/>
      <point x="291" y="0"/>
      <point x="183" y="-5"/>
      <point x="99" y="-14" type="curve"/>
      <point x="99" y="126" type="line"/>
      <point x="188" y="126" type="line" smooth="yes"/>
      <point x="305.648" y="126"/>
      <point x="307.001" y="139.844"/>
      <point x="307.001" y="248.189" type="curve" smooth="yes"/>
      <point x="307.001" y="250.74"/>
      <point x="307" y="253.343"/>
      <point x="307" y="256" type="curve" smooth="yes"/>
      <point x="306" y="1195" type="line" smooth="yes"/>
      <point x="306" y="1299.26"/>
      <point x="304.593" y="1312"/>
      <point x="198" y="1312" type="curve" smooth="yes"/>
      <point x="78" y="1312" type="line"/>
      <point x="78" y="1422" type="line"/>
      <point x="188" y="1439"/>
      <point x="382" y="1447"/>
      <point x="661" y="1447" type="curve" smooth="yes"/>
      <point x="1033.07" y="1446"/>
      <point x="1281.01" y="1367.66"/>
      <point x="1281.01" y="1029.46" type="curve" smooth="yes"/>
      <point x="1281.01" y="823.992"/>
      <point x="1160.31" y="701.762"/>
      <point x="994" y="644" type="curve"/>
      <point x="1029" y="465"/>
      <point x="1169" y="232"/>
      <point x="1322" y="146" type="curve" smooth="yes"/>
      <point x="1346" y="133"/>
      <point x="1368" y="126"/>
      <point x="1387" y="126" type="curve" smooth="yes"/>
      <point x="1443" y="126" type="line"/>
      <point x="1443" y="-14" type="line"/>
    </contour>
    <contour>
      <point x="1056" y="1023" type="curve" smooth="yes"/>
      <point x="1056" y="1258"/>
      <point x="930" y="1312"/>
      <point x="679" y="1312" type="curve" smooth="yes"/>
      <point x="524" y="1312" type="line"/>
      <point x="524" y="729" type="line"/>
      <point x="575" y="728"/>
      <point x="635" y="727"/>
      <point x="704" y="727" type="curve" smooth="yes"/>
      <point x="939" y="727"/>
      <point x="1056" y="826"/>
    </contour>
  </outline>
</glyph>
<glyph name="S" format="1">
  <advance width="1237.01587262"/>
  <unicode hex="0053"/>
  <outline>
    <contour>
      <point x="310" y="394" type="line"/>
      <point x="310" y="148.77"/>
      <point x="384.848" y="84"/>
      <point x="629" y="84" type="curve" smooth="yes"/>
      <point x="778" y="84"/>
      <point x="913" y="181"/>
      <point x="914" y="327" type="curve"/>
      <point x="910.21" y="618.811"/>
      <point x="396.566" y="677.434"/>
      <point x="243" y="831" type="curve" smooth="yes"/>
      <point x="175" y="898"/>
      <point x="141" y="980"/>
      <point x="140" y="1076" type="curve"/>
      <point x="140" y="1346"/>
      <point x="402" y="1458"/>
      <point x="693" y="1458" type="curve" smooth="yes"/>
      <point x="853.928" y="1458"/>
      <point x="1018.04" y="1443.39"/>
      <point x="1072" y="1360" type="curve"/>
      <point x="1055" y="1210"/>
      <point x="1045" y="1116"/>
      <point x="1040" y="1079" type="curve"/>
      <point x="909" y="1088" type="line"/>
      <point x="909" y="1286.06"/>
      <point x="849.179" y="1337.01"/>
      <point x="649.904" y="1337.01" type="curve" smooth="yes"/>
      <point x="647.949" y="1337.01"/>
      <point x="645.981" y="1337.01"/>
      <point x="644" y="1337" type="curve" smooth="yes"/>
      <point x="486" y="1337"/>
      <point x="357" y="1259"/>
      <point x="357" y="1108" type="curve" smooth="yes"/>
      <point x="357" y="1024"/>
      <point x="409" y="955"/>
      <point x="512" y="902" type="curve"/>
      <point x="732.746" y="785.284"/>
      <point x="1138.94" y="707.849"/>
      <point x="1136" y="387" type="curve"/>
      <point x="1136" y="114"/>
      <point x="913" y="-37"/>
      <point x="629" y="-37" type="curve" smooth="yes"/>
      <point x="405" y="-37"/>
      <point x="233" y="19"/>
      <point x="113" y="132" type="curve"/>
      <point x="160" y="400" type="line"/>
    </contour>
  </outline>
</glyph>
<glyph name="T" format="1">
  <advance width="1389"/>
  <unicode hex="0054"/>
  <outline>
    <contour>
      <point x="1348" y="1422" type="qcurve"/>
      <point x="1338" y="1068" type="line"/>
      <point x="1213" y="1068" type="line"/>
      <point x="1213" y="1240"/>
      <point x="1179" y="1312" type="qcurve"/>
      <point x="811" y="1312" type="line"/>
      <point x="811" y="259" type="line" smooth="yes"/>
      <point x="811" y="178"/>
      <point x="826" y="135" type="qcurve"/>
      <point x="859" y="126"/>
      <point x="929" y="126" type="qcurve" smooth="yes"/>
      <point x="1019" y="126" type="line"/>
      <point x="1019" y="-14" type="line"/>
      <point x="910" y="0"/>
      <point x="511" y="0"/>
      <point x="385" y="-14" type="qcurve"/>
      <point x="385" y="126" type="line"/>
      <point x="474" y="126" type="line" smooth="yes"/>
      <point x="550" y="126"/>
      <point x="577" y="135" type="qcurve"/>
      <point x="592" y="174"/>
      <point x="592" y="243" type="qcurve" smooth="yes"/>
      <point x="592" y="1312" type="line"/>
      <point x="224" y="1312" type="line"/>
      <point x="190" y="1240"/>
      <point x="190" y="1068" type="qcurve"/>
      <point x="52" y="1068" type="line"/>
      <point x="41" y="1422" type="line"/>
      <point x="71" y="1437"/>
      <point x="277" y="1437" type="qcurve"/>
      <point x="712" y="1430" type="line"/>
      <point x="1109" y="1437" type="line"/>
      <point x="1315" y="1437"/>
    </contour>
  </outline>
</glyph>
<glyph name="U" format="1">
  <advance width="1605"/>
  <unicode hex="0055"/>
  <outline>
    <contour>
      <point x="986" y="1423" type="line"/>
      <point x="1102" y="1437"/>
      <point x="1497" y="1437"/>
      <point x="1575" y="1422" type="qcurve"/>
      <point x="1575" y="1312" type="line"/>
      <point x="1483" y="1312" type="line" smooth="yes"/>
      <point x="1409" y="1312"/>
      <point x="1380" y="1301" type="qcurve"/>
      <point x="1365" y="1258"/>
      <point x="1365" y="1181" type="qcurve" smooth="yes"/>
      <point x="1365" y="516" type="line" smooth="yes"/>
      <point x="1364" y="252"/>
      <point x="1204" y="103" type="qcurve" smooth="yes"/>
      <point x="1053" y="-37"/>
      <point x="794" y="-37" type="qcurve" smooth="yes"/>
      <point x="240" y="-37"/>
      <point x="240" y="586" type="qcurve" smooth="yes"/>
      <point x="240" y="1181" type="line" smooth="yes"/>
      <point x="240" y="1260"/>
      <point x="224" y="1301" type="qcurve"/>
      <point x="194" y="1312"/>
      <point x="121" y="1312" type="qcurve" smooth="yes"/>
      <point x="31" y="1312" type="line"/>
      <point x="31" y="1423" type="line"/>
      <point x="152" y="1437"/>
      <point x="586" y="1437"/>
      <point x="669" y="1422" type="qcurve"/>
      <point x="669" y="1312" type="line"/>
      <point x="576" y="1312" type="line" smooth="yes"/>
      <point x="505" y="1312"/>
      <point x="473" y="1301" type="qcurve"/>
      <point x="459" y="1257"/>
      <point x="459" y="1181" type="qcurve" smooth="yes"/>
      <point x="459" y="501" type="line" smooth="yes"/>
      <point x="458" y="194"/>
      <point x="674" y="111" type="qcurve" smooth="yes"/>
      <point x="742" y="85"/>
      <point x="824" y="85" type="qcurve" smooth="yes"/>
      <point x="1014" y="85"/>
      <point x="1195" y="325"/>
      <point x="1195" y="577" type="qcurve" smooth="yes"/>
      <point x="1195" y="1181" type="line" smooth="yes"/>
      <point x="1195" y="1260"/>
      <point x="1179" y="1301" type="qcurve"/>
      <point x="1149" y="1312"/>
      <point x="1076" y="1312" type="qcurve" smooth="yes"/>
      <point x="986" y="1312" type="line"/>
    </contour>
  </outline>
</glyph>
<glyph name="V" format="1">
  <advance width="1633"/>
  <unicode hex="0056"/>
  <outline>
    <contour>
      <point x="568" y="1312" type="line" smooth="yes"/>
      <point x="520" y="1312"/>
      <point x="487" y="1308"/>
      <point x="469" y="1301" type="curve" smooth="no"/>
      <point x="469" y="1258"/>
      <point x="492" y="1220"/>
      <point x="507" y="1181" type="curve" smooth="yes"/>
      <point x="879" y="215" type="line" smooth="no"/>
      <point x="889" y="215" type="line" smooth="no"/>
      <point x="1238" y="1181" type="line" smooth="yes"/>
      <point x="1253" y="1223"/>
      <point x="1262" y="1263"/>
      <point x="1263" y="1301" type="curve" smooth="no"/>
      <point x="1244" y="1308"/>
      <point x="1211" y="1312"/>
      <point x="1163" y="1312" type="curve" smooth="yes"/>
      <point x="1093" y="1312" type="line" smooth="no"/>
      <point x="1098" y="1422" type="line" smooth="no"/>
      <point x="1174" y="1432"/>
      <point x="1252" y="1437"/>
      <point x="1331" y="1437" type="curve" smooth="yes"/>
      <point x="1488" y="1437"/>
      <point x="1588" y="1432"/>
      <point x="1633" y="1422" type="curve" smooth="no"/>
      <point x="1609" y="1312" type="line" smooth="no"/>
      <point x="1557" y="1312" type="line" smooth="yes"/>
      <point x="1509" y="1312"/>
      <point x="1474" y="1308"/>
      <point x="1451" y="1301" type="curve" smooth="no"/>
      <point x="1432" y="1269"/>
      <point x="1409" y="1217"/>
      <point x="1383" y="1146" type="curve" smooth="yes"/>
      <point x="1255" y="795"/>
      <point x="1074" y="316"/>
      <point x="945" y="0" type="curve" smooth="no"/>
      <point x="841" y="0" type="line" smooth="yes"/>
      <point x="783" y="0"/>
      <point x="742" y="5"/>
      <point x="726" y="46" type="curve" smooth="yes"/>
      <point x="272" y="1181" type="line" smooth="yes"/>
      <point x="254" y="1225"/>
      <point x="232" y="1265"/>
      <point x="205" y="1301" type="curve" smooth="no"/>
      <point x="181" y="1308"/>
      <point x="145" y="1312"/>
      <point x="98" y="1312" type="curve" smooth="yes"/>
      <point x="23" y="1312" type="line" smooth="no"/>
      <point x="0" y="1422" type="line" smooth="no"/>
      <point x="76" y="1432"/>
      <point x="160" y="1437"/>
      <point x="251" y="1437" type="curve" smooth="yes"/>
      <point x="440" y="1437"/>
      <point x="566" y="1432"/>
      <point x="627" y="1422" type="curve" smooth="no"/>
      <point x="640" y="1312" type="line" smooth="no"/>
    </contour>
  </outline>
</glyph>
<glyph name="W" format="1">
  <advance width="2403"/>
  <unicode hex="0057"/>
  <outline>
    <contour>
      <point x="18" y="1422" type="line"/>
      <point x="132" y="1437"/>
      <point x="269" y="1437" type="qcurve" smooth="yes"/>
      <point x="553" y="1437"/>
      <point x="645" y="1422" type="qcurve"/>
      <point x="658" y="1312" type="line"/>
      <point x="586" y="1312" type="line" smooth="yes"/>
      <point x="514" y="1312"/>
      <point x="487" y="1301" type="qcurve"/>
      <point x="491" y="1269"/>
      <point x="525" y="1181" type="qcurve"/>
      <point x="838" y="216" type="line"/>
      <point x="848" y="216" type="line"/>
      <point x="939" y="470"/>
      <point x="1111" y="1103" type="qcurve" smooth="yes"/>
      <point x="1132" y="1179"/>
      <point x="1149" y="1363"/>
      <point x="1154" y="1393" type="qcurve"/>
      <point x="1275" y="1393" type="line" smooth="yes"/>
      <point x="1326" y="1392"/>
      <point x="1343" y="1362" type="qcurve" smooth="yes"/>
      <point x="1349" y="1352"/>
      <point x="1354" y="1339" type="qcurve" smooth="yes"/>
      <point x="1719" y="209" type="line"/>
      <point x="1729" y="209" type="line"/>
      <point x="1771" y="348"/>
      <point x="1839" y="572"/>
      <point x="1893" y="755"/>
      <point x="1936" y="902"/>
      <point x="1954" y="964" type="qcurve" smooth="yes"/>
      <point x="2019" y="1193"/>
      <point x="2027" y="1259"/>
      <point x="2027" y="1272" type="qcurve" smooth="yes"/>
      <point x="2027" y="1290" type="line" smooth="yes"/>
      <point x="2027" y="1296"/>
      <point x="2026" y="1301" type="qcurve"/>
      <point x="1997" y="1312"/>
      <point x="1925" y="1312" type="qcurve" smooth="yes"/>
      <point x="1855" y="1312" type="line"/>
      <point x="1849" y="1422" type="line"/>
      <point x="1961" y="1437"/>
      <point x="2080" y="1437" type="qcurve" smooth="yes"/>
      <point x="2315" y="1437"/>
      <point x="2385" y="1422" type="qcurve"/>
      <point x="2371" y="1312" type="line"/>
      <point x="2319" y="1312" type="line" smooth="yes"/>
      <point x="2247" y="1312"/>
      <point x="2214" y="1301" type="qcurve"/>
      <point x="2187" y="1244"/>
      <point x="2130" y="1043"/>
      <point x="2044" y="748"/>
      <point x="1996" y="597" type="qcurve" smooth="yes"/>
      <point x="1889" y="262"/>
      <point x="1784" y="0" type="qcurve"/>
      <point x="1617" y="0" type="line" smooth="yes"/>
      <point x="1583" y="0"/>
      <point x="1573" y="14" type="qcurve" smooth="yes"/>
      <point x="1548" y="48"/>
      <point x="1541" y="95"/>
      <point x="1539" y="99" type="qcurve" smooth="yes"/>
      <point x="1244" y="1006" type="line"/>
      <point x="1093" y="454"/>
      <point x="906" y="0" type="qcurve"/>
      <point x="746" y="0" type="line" smooth="yes"/>
      <point x="689" y="0"/>
      <point x="674" y="46" type="qcurve" smooth="yes"/>
      <point x="290" y="1181" type="line" smooth="yes"/>
      <point x="270" y="1237"/>
      <point x="223" y="1301" type="qcurve"/>
      <point x="187" y="1312"/>
      <point x="116" y="1312" type="qcurve" smooth="yes"/>
      <point x="41" y="1312" type="line"/>
    </contour>
  </outline>
</glyph>
<glyph name="X" format="1">
  <advance width="1615"/>
  <unicode hex="0058"/>
  <outline>
    <contour>
      <point x="1513" y="-14" type="line"/>
      <point x="1409" y="0"/>
      <point x="1036" y="0"/>
      <point x="921" y="-14" type="qcurve"/>
      <point x="921" y="126" type="line"/>
      <point x="971" y="126" type="line" smooth="yes"/>
      <point x="1041" y="126"/>
      <point x="1068" y="135" type="qcurve"/>
      <point x="1043" y="192"/>
      <point x="997" y="259" type="qcurve" smooth="yes"/>
      <point x="767" y="589" type="line"/>
      <point x="528" y="259" type="line" smooth="yes"/>
      <point x="488" y="204"/>
      <point x="461" y="135" type="qcurve"/>
      <point x="488" y="126"/>
      <point x="558" y="126" type="qcurve" smooth="yes"/>
      <point x="609" y="126" type="line"/>
      <point x="609" y="-14" type="line"/>
      <point x="496" y="0"/>
      <point x="377" y="-0" type="qcurve" smooth="yes"/>
      <point x="224" y="0" type="line" smooth="yes"/>
      <point x="120" y="0"/>
      <point x="16" y="-14" type="qcurve"/>
      <point x="16" y="126" type="line"/>
      <point x="104" y="126" type="line" smooth="yes"/>
      <point x="172" y="126"/>
      <point x="203" y="135" type="qcurve"/>
      <point x="227" y="158"/>
      <point x="274" y="221"/>
      <point x="308" y="256" type="qcurve"/>
      <point x="684" y="704" type="line"/>
      <point x="348" y="1181" type="line" smooth="yes"/>
      <point x="321" y="1219"/>
      <point x="284" y="1278"/>
      <point x="261" y="1301" type="qcurve"/>
      <point x="225" y="1312"/>
      <point x="152" y="1312" type="qcurve" smooth="yes"/>
      <point x="78" y="1312" type="line"/>
      <point x="63" y="1422" type="line"/>
      <point x="164" y="1437"/>
      <point x="294" y="1437" type="qcurve" smooth="yes"/>
      <point x="578" y="1437"/>
      <point x="680" y="1422" type="qcurve"/>
      <point x="694" y="1312" type="line"/>
      <point x="633" y="1312" type="line" smooth="yes"/>
      <point x="560" y="1312"/>
      <point x="537" y="1301" type="qcurve"/>
      <point x="544" y="1274"/>
      <point x="579" y="1225"/>
      <point x="592" y="1206" type="qcurve" smooth="yes"/>
      <point x="827" y="859" type="line"/>
      <point x="1079" y="1181" type="line" smooth="yes"/>
      <point x="1132" y="1248"/>
      <point x="1155" y="1301" type="qcurve"/>
      <point x="1132" y="1312"/>
      <point x="1060" y="1312" type="qcurve" smooth="yes"/>
      <point x="1020" y="1312" type="line"/>
      <point x="1034" y="1422" type="line"/>
      <point x="1169" y="1437"/>
      <point x="1290" y="1437" type="qcurve" smooth="yes"/>
      <point x="1512" y="1437"/>
      <point x="1568" y="1422" type="qcurve"/>
      <point x="1556" y="1312" type="line"/>
      <point x="1474" y="1312" type="line" smooth="yes"/>
      <point x="1402" y="1312"/>
      <point x="1363" y="1301" type="qcurve"/>
      <point x="1326" y="1265"/>
      <point x="1188" y="1095"/>
      <point x="1133.5" y="1028.5" type="qcurve" smooth="yes"/>
      <point x="1078" y="962"/>
      <point x="1036" y="911" type="qcurve" smooth="yes"/>
      <point x="965" y="826"/>
      <point x="900" y="753" type="qcurve"/>
      <point x="1267" y="256" type="line" smooth="yes"/>
      <point x="1340" y="158"/>
      <point x="1366" y="135" type="qcurve"/>
      <point x="1397" y="126"/>
      <point x="1465" y="126" type="qcurve" smooth="yes"/>
      <point x="1513" y="126" type="line"/>
    </contour>
  </outline>
</glyph>
<glyph name="Y" format="1">
  <advance width="1562"/>
  <unicode hex="0059"/>
  <outline>
    <contour>
      <point x="544" y="126" type="line" smooth="yes"/>
      <point x="668.072" y="126"/>
      <point x="655.558" y="136.957"/>
      <point x="666" y="256" type="curve"/>
      <point x="666" y="490" type="line"/>
      <point x="257" y="1181" type="line" smooth="yes"/>
      <point x="230" y="1226"/>
      <point x="217" y="1263"/>
      <point x="189" y="1301" type="curve"/>
      <point x="166" y="1308"/>
      <point x="131" y="1312"/>
      <point x="82" y="1312" type="curve" smooth="yes"/>
      <point x="8" y="1312" type="line"/>
      <point x="-21" y="1422" type="line"/>
      <point x="58" y="1432"/>
      <point x="142" y="1437"/>
      <point x="232" y="1437" type="curve" smooth="yes"/>
      <point x="419" y="1437"/>
      <point x="544" y="1432"/>
      <point x="607" y="1422" type="curve"/>
      <point x="624" y="1312" type="line"/>
      <point x="553" y="1312" type="line" smooth="yes"/>
      <point x="504" y="1312"/>
      <point x="472" y="1308"/>
      <point x="455" y="1301" type="curve"/>
      <point x="457" y="1278"/>
      <point x="470" y="1247"/>
      <point x="495" y="1206" type="curve" smooth="yes"/>
      <point x="816" y="659" type="line"/>
      <point x="911" y="829"/>
      <point x="970" y="937"/>
      <point x="1050" y="1089" type="curve" smooth="yes"/>
      <point x="1103" y="1190"/>
      <point x="1133" y="1260"/>
      <point x="1142" y="1301" type="curve"/>
      <point x="1125" y="1308"/>
      <point x="1092" y="1312"/>
      <point x="1044" y="1312" type="curve" smooth="yes"/>
      <point x="974" y="1312" type="line"/>
      <point x="998" y="1422" type="line"/>
      <point x="1082" y="1432"/>
      <point x="1167" y="1437"/>
      <point x="1252" y="1437" type="curve" smooth="yes"/>
      <point x="1425" y="1437"/>
      <point x="1536" y="1432"/>
      <point x="1583" y="1422" type="curve"/>
      <point x="1543" y="1312" type="line"/>
      <point x="1458" y="1312" type="line" smooth="yes"/>
      <point x="1410" y="1312"/>
      <point x="1374" y="1308"/>
      <point x="1350" y="1301" type="curve"/>
      <point x="1181.76" y="1048.64"/>
      <point x="1048.45" y="799.517"/>
      <point x="880" y="517" type="curve"/>
      <point x="880" y="259" type="line" smooth="yes"/>
      <point x="880" y="209"/>
      <point x="885" y="168"/>
      <point x="895" y="135" type="curve"/>
      <point x="917" y="129"/>
      <point x="951" y="126"/>
      <point x="997" y="126" type="curve" smooth="yes"/>
      <point x="1088" y="126" type="line"/>
      <point x="1088" y="-14" type="line"/>
      <point x="1015" y="-5"/>
      <point x="913" y="0"/>
      <point x="780" y="0" type="curve" smooth="yes"/>
      <point x="647" y="0"/>
      <point x="539" y="-5"/>
      <point x="455" y="-14" type="curve"/>
      <point x="455" y="126" type="line"/>
    </contour>
  </outline>
</glyph>
<glyph name="Z" format="1">
  <advance width="1230"/>
  <unicode hex="005A"/>
  <outline>
    <contour>
      <point x="155" y="1125" type="qcurve"/>
      <point x="113" y="1405" type="line"/>
      <point x="228" y="1437"/>
      <point x="631" y="1437" type="qcurve" smooth="yes"/>
      <point x="1098" y="1437" type="line"/>
      <point x="1140" y="1415"/>
      <point x="1140" y="1362" type="qcurve" smooth="yes"/>
      <point x="1140" y="1306" type="line"/>
      <point x="306" y="126" type="line"/>
      <point x="816" y="126" type="line" smooth="yes"/>
      <point x="894" y="126"/>
      <point x="932" y="172" type="qcurve" smooth="yes"/>
      <point x="982" y="233"/>
      <point x="982" y="393" type="qcurve"/>
      <point x="1144" y="393" type="line"/>
      <point x="1144" y="86" type="line" smooth="yes"/>
      <point x="1144" y="69"/>
      <point x="1135" y="24" type="qcurve"/>
      <point x="1091" y="6"/>
      <point x="971" y="0"/>
      <point x="888" y="0" type="qcurve" smooth="yes"/>
      <point x="106" y="0" type="line"/>
      <point x="74" y="24"/>
      <point x="74" y="81" type="qcurve" smooth="yes"/>
      <point x="74" y="133" type="line"/>
      <point x="888" y="1312" type="line"/>
      <point x="612" y="1312" type="line" smooth="yes"/>
      <point x="356" y="1312"/>
      <point x="278" y="1263" type="qcurve" smooth="yes"/>
      <point x="259" y="1251"/>
      <point x="259" y="1235" type="qcurve" smooth="yes"/>
      <point x="259" y="1180"/>
      <point x="264" y="1127" type="qcurve"/>
      <point x="215" y="1127"/>
    </contour>
  </outline>
</glyph>
<glyph name="bracketleft" format="1">
  <advance width="648"/>
  <unicode hex="005b"/>
  <outline>
    <contour>
      <point x="475" y="1564" type="line" smooth="yes"/>
      <point x="547" y="1564"/>
      <point x="575" y="1557"/>
      <point x="575" y="1494" type="curve" smooth="yes"/>
      <point x="575" y="1461" type="line" smooth="no"/>
      <point x="366" y="1461" type="line" smooth="no"/>
      <point x="366" y="-125" type="line" smooth="no"/>
      <point x="575" y="-125" type="line" smooth="no"/>
      <point x="575" y="-160" type="line" smooth="yes"/>
      <point x="574.087" y="-213.885"/>
      <point x="547.316" y="-229.4"/>
      <point x="498.497" y="-229.4" type="curve" smooth="yes"/>
      <point x="493.862" y="-229.4"/>
      <point x="489.029" y="-229.26"/>
      <point x="484" y="-229" type="curve" smooth="yes"/>
      <point x="205" y="-229" type="line" smooth="no"/>
      <point x="205" y="1564" type="line" smooth="no"/>
    </contour>
  </outline>
</glyph>
<glyph name="backslash" format="1">
  <advance width="891"/>
  <unicode hex="005c"/>
  <outline>
    <contour>
      <point x="891" y="-66" type="line" smooth="no"/>
      <point x="782" y="-66" type="line" smooth="yes"/>
      <point x="749" y="-66"/>
      <point x="724" y="-56"/>
      <point x="706" y="-37" type="curve" smooth="no"/>
      <point x="0" y="1490" type="line" smooth="no"/>
      <point x="102" y="1490" type="line" smooth="yes"/>
      <point x="152" y="1490"/>
      <point x="171" y="1471"/>
      <point x="194" y="1443" type="curve" smooth="no"/>
    </contour>
  </outline>
</glyph>
<glyph name="bracketright" format="1">
  <advance width="651"/>
  <unicode hex="005d"/>
  <outline>
    <contour>
      <point x="194" y="-229" type="line" smooth="yes"/>
      <point x="189.471" y="-229.059"/>
      <point x="185.066" y="-229.093"/>
      <point x="180.786" y="-229.093" type="curve" smooth="yes"/>
      <point x="112.318" y="-229.093"/>
      <point x="76" y="-220.235"/>
      <point x="76" y="-160" type="curve" smooth="yes"/>
      <point x="76" y="-125" type="line" smooth="no"/>
      <point x="285" y="-125" type="line" smooth="no"/>
      <point x="285" y="1461" type="line" smooth="no"/>
      <point x="76" y="1461" type="line" smooth="no"/>
      <point x="76" y="1494" type="line" smooth="yes"/>
      <point x="76" y="1538"/>
      <point x="87" y="1556"/>
      <point x="122" y="1564" type="curve" smooth="no"/>
      <point x="446" y="1564" type="line" smooth="no"/>
      <point x="446" y="-229" type="line" smooth="no"/>
    </contour>
  </outline>
</glyph>
<glyph name="asciicircum" format="1">
  <advance width="1191"/>
  <unicode hex="005e"/>
  <outline>
    <contour>
      <point x="1059" y="505" type="line" smooth="no"/>
      <point x="1076" y="472"/>
      <point x="1084" y="446"/>
      <point x="1084" y="428" type="curve" smooth="yes"/>
      <point x="1084" y="410"/>
      <point x="1079" y="394"/>
      <point x="1069" y="380" type="curve" smooth="no"/>
      <point x="967" y="362" type="line" smooth="no"/>
      <point x="597" y="1003" type="line" smooth="no"/>
      <point x="234" y="364" type="line" smooth="no"/>
      <point x="165" y="380" type="line" smooth="yes"/>
      <point x="137" y="386"/>
      <point x="117" y="398"/>
      <point x="104" y="415" type="curve" smooth="no"/>
      <point x="117" y="451"/>
      <point x="131" y="481"/>
      <point x="144" y="505" type="curve" smooth="yes"/>
      <point x="540" y="1208" type="line" smooth="no"/>
      <point x="607" y="1208" type="line" smooth="yes"/>
      <point x="640" y="1208"/>
      <point x="663" y="1196"/>
      <point x="677" y="1172" type="curve" smooth="yes"/>
    </contour>
  </outline>
</glyph>
<glyph name="underscore" format="1">
  <advance width="965"/>
  <unicode hex="005f"/>
  <outline>
    <contour>
      <point x="-10" y="-278" type="line" smooth="yes"/>
      <point x="-10" y="-217"/>
      <point x="30" y="-211"/>
      <point x="93" y="-211" type="curve" smooth="yes"/>
      <point x="975" y="-211" type="line" smooth="no"/>
      <point x="975" y="-270" type="line" smooth="yes"/>
      <point x="975" y="-308"/>
      <point x="960" y="-331"/>
      <point x="929" y="-339" type="curve" smooth="no"/>
      <point x="-10" y="-339" type="line" smooth="no"/>
    </contour>
  </outline>
</glyph>
<glyph name="grave" format="1">
  <advance width="1223"/>
  <unicode hex="0060"/>
  <outline>
    <contour>
      <point x="393" y="1587" type="line" smooth="no"/>
      <point x="643" y="1587" type="line" smooth="no"/>
      <point x="832" y="1264" type="line" smooth="no"/>
      <point x="694" y="1264" type="line" smooth="no"/>
    </contour>
  </outline>
</glyph>
<glyph name="a" format="1">
  <advance width="1225"/>
  <unicode hex="0061"/>
  <outline>
    <contour>
      <point x="592" y="955" type="curve" smooth="yes"/>
      <point x="445.994" y="955"/>
      <point x="347.273" y="866.406"/>
      <point x="283" y="755" type="curve"/>
      <point x="144" y="843" type="line"/>
      <point x="169" y="990"/>
      <point x="390" y="1061"/>
      <point x="580" y="1061" type="curve" smooth="yes"/>
      <point x="857" y="1061"/>
      <point x="996" y="935"/>
      <point x="996" y="682" type="curve" smooth="yes"/>
      <point x="996" y="269" type="line" smooth="yes"/>
      <point x="996" y="206"/>
      <point x="1002" y="150"/>
      <point x="1013" y="101" type="curve"/>
      <point x="1173" y="101" type="line"/>
      <point x="1173" y="19" type="line"/>
      <point x="1112" y="-2"/>
      <point x="1027" y="-13"/>
      <point x="916" y="-13" type="curve"/>
      <point x="800.187" y="-11.1014"/>
      <point x="767" y="-7.648"/>
      <point x="767" y="95" type="curve"/>
      <point x="765" y="115" type="line"/>
      <point x="662" y="22"/>
      <point x="554" y="-24"/>
      <point x="441" y="-24" type="curve" smooth="yes"/>
      <point x="245" y="-24"/>
      <point x="116" y="72"/>
      <point x="116" y="271" type="curve" smooth="yes"/>
      <point x="116" y="492"/>
      <point x="290" y="603"/>
      <point x="637" y="603" type="curve" smooth="yes"/>
      <point x="784" y="603" type="line"/>
      <point x="784" y="671" type="line" smooth="yes"/>
      <point x="784" y="845.426"/>
      <point x="752.57" y="955.027"/>
      <point x="596.263" y="955.027" type="curve" smooth="yes"/>
      <point x="594.852" y="955.027"/>
      <point x="593.431" y="955.018"/>
    </contour>
    <contour>
      <point x="626" y="489" type="line" smooth="yes"/>
      <point x="459" y="489"/>
      <point x="331" y="435"/>
      <point x="331" y="280" type="curve" smooth="yes"/>
      <point x="331" y="161"/>
      <point x="397" y="101"/>
      <point x="530" y="101" type="curve" smooth="yes"/>
      <point x="596" y="101"/>
      <point x="675" y="136"/>
      <point x="768" y="205" type="curve"/>
      <point x="779" y="301"/>
      <point x="784" y="396"/>
      <point x="784" y="489" type="curve"/>
    </contour>
  </outline>
</glyph>
<glyph name="b" format="1">
  <advance width="1337"/>
  <unicode hex="0062"/>
  <outline>
    <contour>
      <point x="768" y="-13" type="qcurve"/>
      <point x="218" y="0" type="line"/>
      <point x="198" y="0" type="line" smooth="yes"/>
      <point x="182" y="0"/>
      <point x="126" y="-2"/>
      <point x="119" y="-2" type="qcurve"/>
      <point x="131" y="105" type="line"/>
      <point x="183" y="122"/>
      <point x="200" y="143" type="qcurve" smooth="yes"/>
      <point x="228" y="178"/>
      <point x="228" y="237" type="qcurve" smooth="yes"/>
      <point x="228" y="1323" type="line" smooth="yes"/>
      <point x="228" y="1392"/>
      <point x="221" y="1441" type="qcurve"/>
      <point x="179" y="1455"/>
      <point x="134" y="1455" type="qcurve" smooth="yes"/>
      <point x="37" y="1455" type="line"/>
      <point x="37" y="1542" type="line"/>
      <point x="137" y="1569"/>
      <point x="364" y="1569" type="qcurve" smooth="yes"/>
      <point x="406" y="1569"/>
      <point x="433" y="1566" type="qcurve"/>
      <point x="442" y="1526"/>
      <point x="442" y="1464" type="qcurve" smooth="yes"/>
      <point x="442" y="913" type="line"/>
      <point x="585" y="1062"/>
      <point x="793" y="1062" type="qcurve" smooth="yes"/>
      <point x="992" y="1062"/>
      <point x="1108" y="929" type="qcurve" smooth="yes"/>
      <point x="1224" y="795"/>
      <point x="1225" y="551" type="qcurve" smooth="yes"/>
      <point x="1225" y="291"/>
      <point x="1087" y="133" type="qcurve" smooth="yes"/>
      <point x="959" y="-13"/>
    </contour>
    <contour>
      <point x="999" y="544" type="qcurve" smooth="yes"/>
      <point x="999" y="947"/>
      <point x="749" y="947" type="qcurve" smooth="yes"/>
      <point x="596" y="947"/>
      <point x="462" y="825" type="qcurve"/>
      <point x="442" y="689"/>
      <point x="442" y="546" type="qcurve" smooth="yes"/>
      <point x="442" y="311"/>
      <point x="455" y="101" type="qcurve"/>
      <point x="597" y="87"/>
      <point x="772" y="87"/>
      <point x="826.5" y="116" type="qcurve" smooth="yes"/>
      <point x="882" y="145"/>
      <point x="920" y="203" type="qcurve" smooth="yes"/>
      <point x="1000" y="323"/>
    </contour>
  </outline>
</glyph>
<glyph name="c" format="1">
  <advance width="1082"/>
  <unicode hex="0063"/>
  <outline>
    <contour>
      <point x="988" y="184" type="qcurve"/>
      <point x="1002" y="54" type="line"/>
      <point x="870" y="-24"/>
      <point x="648" y="-24" type="qcurve" smooth="yes"/>
      <point x="410" y="-24"/>
      <point x="264" y="114" type="qcurve" smooth="yes"/>
      <point x="114" y="256"/>
      <point x="113" y="505" type="qcurve" smooth="yes"/>
      <point x="112" y="764"/>
      <point x="270" y="916" type="qcurve" smooth="yes"/>
      <point x="421" y="1060"/>
      <point x="663" y="1061" type="qcurve" smooth="yes"/>
      <point x="818" y="1062"/>
      <point x="935" y="1006" type="qcurve" smooth="yes"/>
      <point x="972" y="988"/>
      <point x="999" y="966" type="qcurve"/>
      <point x="982" y="765" type="line"/>
      <point x="910" y="765" type="line"/>
      <point x="862" y="859"/>
      <point x="735" y="947"/>
      <point x="574" y="947"/>
      <point x="460" y="890"/>
      <point x="419" y="839" type="qcurve" smooth="yes"/>
      <point x="332" y="731"/>
      <point x="332" y="560" type="qcurve" smooth="yes"/>
      <point x="332" y="330"/>
      <point x="432" y="210" type="qcurve" smooth="yes"/>
      <point x="523" y="102"/>
      <point x="852" y="101"/>
    </contour>
  </outline>
</glyph>
<glyph name="d" format="1">
  <advance width="1339"/>
  <unicode hex="0064"/>
  <outline>
    <contour>
      <point x="709" y="1542" type="line"/>
      <point x="824" y="1569"/>
      <point x="1048" y="1569" type="qcurve" smooth="yes"/>
      <point x="1088" y="1569"/>
      <point x="1105" y="1566" type="qcurve"/>
      <point x="1113" y="1539"/>
      <point x="1113" y="1486" type="qcurve" smooth="yes"/>
      <point x="1113" y="269" type="line" smooth="yes"/>
      <point x="1113" y="174"/>
      <point x="1130" y="101" type="qcurve"/>
      <point x="1303" y="101" type="line"/>
      <point x="1303" y="15" type="line"/>
      <point x="1163" y="-20"/>
      <point x="984" y="-10" type="qcurve" smooth="yes"/>
      <point x="932" y="-8"/>
      <point x="916" y="28" type="qcurve" smooth="yes"/>
      <point x="908" y="48"/>
      <point x="907" y="84" type="qcurve" smooth="yes"/>
      <point x="907" y="132" type="line"/>
      <point x="784" y="-24"/>
      <point x="557" y="-24" type="qcurve" smooth="yes"/>
      <point x="366" y="-24"/>
      <point x="244" y="108" type="qcurve" smooth="yes"/>
      <point x="114" y="250"/>
      <point x="113" y="503" type="qcurve" smooth="yes"/>
      <point x="114" y="772"/>
      <point x="234" y="922" type="qcurve" smooth="yes"/>
      <point x="353" y="1070"/>
      <point x="767" y="1069"/>
      <point x="900" y="936" type="qcurve"/>
      <point x="900" y="1354" type="line" smooth="yes"/>
      <point x="900" y="1406"/>
      <point x="893" y="1441" type="qcurve"/>
      <point x="849" y="1455"/>
      <point x="806" y="1455" type="qcurve" smooth="yes"/>
      <point x="709" y="1455" type="line"/>
    </contour>
    <contour>
      <point x="628" y="947" type="qcurve" smooth="yes"/>
      <point x="342" y="947"/>
      <point x="342" y="101"/>
      <point x="623" y="101" type="qcurve" smooth="yes"/>
      <point x="777" y="100"/>
      <point x="861" y="242" type="qcurve" smooth="yes"/>
      <point x="888" y="288"/>
      <point x="903" y="345" type="qcurve"/>
      <point x="903" y="641"/>
      <point x="891" y="838" type="qcurve"/>
      <point x="822" y="914"/>
      <point x="698" y="940" type="qcurve" smooth="yes"/>
      <point x="662" y="948"/>
    </contour>
  </outline>
</glyph>
<glyph name="e" format="1">
  <advance width="1171"/>
  <unicode hex="0065"/>
  <outline>
    <contour>
      <point x="524" y="101"/>
      <point x="844" y="101"/>
      <point x="960" y="205" type="qcurve"/>
      <point x="1046" y="167" type="line"/>
      <point x="937" y="-24"/>
      <point x="646" y="-24" type="qcurve" smooth="yes"/>
      <point x="400" y="-24"/>
      <point x="258" y="118" type="qcurve" smooth="yes"/>
      <point x="112" y="264"/>
      <point x="113" y="519" type="qcurve" smooth="yes"/>
      <point x="113" y="771"/>
      <point x="399" y="1061"/>
      <point x="642" y="1061" type="qcurve" smooth="yes"/>
      <point x="828" y="1060"/>
      <point x="946" y="954" type="qcurve" smooth="yes"/>
      <point x="1068" y="844"/>
      <point x="1068" y="659" type="qcurve" smooth="yes"/>
      <point x="1068" y="552"/>
      <point x="1030" y="516" type="qcurve" smooth="yes"/>
      <point x="1000" y="487"/>
      <point x="916" y="487" type="qcurve" smooth="yes"/>
      <point x="330" y="487" type="line"/>
      <point x="341" y="294"/>
    </contour>
    <contour>
      <point x="851" y="604" type="line"/>
      <point x="853" y="608"/>
      <point x="853" y="612" type="qcurve" smooth="yes"/>
      <point x="853" y="621" type="line" smooth="yes"/>
      <point x="854" y="850"/>
      <point x="722" y="924" type="qcurve" smooth="yes"/>
      <point x="676" y="950"/>
      <point x="608" y="950" type="qcurve" smooth="yes"/>
      <point x="347" y="950"/>
      <point x="329" y="604" type="qcurve"/>
    </contour>
  </outline>
</glyph>
<glyph name="f" format="1">
  <advance width="844"/>
  <unicode hex="0066"/>
  <outline>
    <contour>
      <point x="662" y="1452" type="curve" smooth="yes"/>
      <point x="509" y="1452"/>
      <point x="485" y="1343"/>
      <point x="484" y="1170" type="curve"/>
      <point x="484" y="1032" type="line"/>
      <point x="768" y="1032" type="line"/>
      <point x="768" y="980" type="line" smooth="yes"/>
      <point x="768" y="943"/>
      <point x="752" y="920"/>
      <point x="720" y="912" type="curve"/>
      <point x="484" y="912" type="line"/>
      <point x="484" y="238" type="line" smooth="yes"/>
      <point x="484" y="105.661"/>
      <point x="506.755" y="87.7094"/>
      <point x="646" y="71" type="curve"/>
      <point x="654" y="-13" type="line"/>
      <point x="552.5" y="-5.5"/>
      <point x="457.5" y="-1.75"/>
      <point x="369" y="-1.75" type="curve" smooth="yes"/>
      <point x="280.5" y="-1.75"/>
      <point x="198.5" y="-5.5"/>
      <point x="123" y="-13" type="curve"/>
      <point x="125" y="71" type="line"/>
      <point x="249" y="84"/>
      <point x="270" y="91"/>
      <point x="270" y="200" type="curve" smooth="yes"/>
      <point x="270" y="912" type="line"/>
      <point x="44" y="912" type="line"/>
      <point x="44" y="987" type="line"/>
      <point x="60" y="1017"/>
      <point x="96" y="1032"/>
      <point x="151" y="1032" type="curve" smooth="yes"/>
      <point x="270" y="1032" type="line"/>
      <point x="270" y="1124" type="line" smooth="yes"/>
      <point x="270" y="1425"/>
      <point x="415" y="1564"/>
      <point x="714" y="1564" type="curve" smooth="yes"/>
      <point x="789" y="1564"/>
      <point x="857" y="1547"/>
      <point x="918" y="1512" type="curve"/>
      <point x="918" y="1288" type="line"/>
      <point x="821" y="1288" type="line"/>
      <point x="790" y="1397"/>
      <point x="737" y="1452"/>
    </contour>
  </outline>
</glyph>
<glyph name="g" format="1">
  <advance width="1134.04"/>
  <unicode hex="0067"/>
  <outline>
    <contour>
      <point x="299" y="686" type="curve" smooth="yes"/>
      <point x="299" y="529.606"/>
      <point x="373.556" y="449.968"/>
      <point x="527.884" y="449.968" type="curve" smooth="yes"/>
      <point x="676.543" y="449.968"/>
      <point x="747" y="540.648"/>
      <point x="747" y="692" type="curve" smooth="yes"/>
      <point x="747" y="854"/>
      <point x="675" y="947"/>
      <point x="518" y="947" type="curve" smooth="yes"/>
      <point x="359" y="947"/>
      <point x="299" y="851"/>
    </contour>
    <contour>
      <point x="841" y="-147" type="curve" smooth="yes"/>
      <point x="841" y="20.2673"/>
      <point x="720.792" y="40"/>
      <point x="522" y="40" type="curve" smooth="yes"/>
      <point x="478" y="40"/>
      <point x="372" y="35"/>
      <point x="330" y="34" type="curve"/>
      <point x="267" y="-43"/>
      <point x="235" y="-104"/>
      <point x="235" y="-149" type="curve" smooth="yes"/>
      <point x="235" y="-283"/>
      <point x="363" y="-333"/>
      <point x="527" y="-333" type="curve" smooth="yes"/>
      <point x="696" y="-333"/>
      <point x="841" y="-308"/>
    </contour>
    <contour>
      <point x="151" y="214" type="curve" smooth="yes"/>
      <point x="151" y="293.67"/>
      <point x="204.909" y="371.643"/>
      <point x="275" y="390" type="curve"/>
      <point x="275" y="394" type="line"/>
      <point x="165" y="460"/>
      <point x="110" y="561"/>
      <point x="110" y="697" type="curve" smooth="yes"/>
      <point x="110" y="929"/>
      <point x="293" y="1062"/>
      <point x="533" y="1062" type="curve" smooth="yes"/>
      <point x="598" y="1062"/>
      <point x="670" y="1047"/>
      <point x="750" y="1018" type="curve"/>
      <point x="1003" y="1052" type="line"/>
      <point x="1071.72" y="1052"/>
      <point x="1075.04" y="1026.73"/>
      <point x="1075.04" y="959.142" type="curve" smooth="yes"/>
      <point x="1075.04" y="951.918"/>
      <point x="1075" y="944.211"/>
      <point x="1075" y="936" type="curve" smooth="yes"/>
      <point x="1075" y="918" type="line"/>
      <point x="853" y="918" type="line"/>
      <point x="909" y="851"/>
      <point x="937" y="783"/>
      <point x="937" y="716" type="curve" smooth="yes"/>
      <point x="937" y="431"/>
      <point x="764" y="318"/>
      <point x="475" y="318" type="curve" smooth="yes"/>
      <point x="438" y="318"/>
      <point x="392" y="323"/>
      <point x="338" y="332" type="curve"/>
      <point x="321" y="305"/>
      <point x="313" y="280"/>
      <point x="313" y="260" type="curve" smooth="yes"/>
      <point x="313" y="186.477"/>
      <point x="363.454" y="179.644"/>
      <point x="444.198" y="179.644" type="curve" smooth="yes"/>
      <point x="462.633" y="179.644"/>
      <point x="482.647" y="180"/>
      <point x="504" y="180" type="curve" smooth="yes"/>
      <point x="787.302" y="180"/>
      <point x="1031.19" y="133.928"/>
      <point x="1029" y="-138" type="curve"/>
      <point x="1030.5" y="-358.793"/>
      <point x="793.868" y="-449"/>
      <point x="515" y="-449" type="curve" smooth="yes"/>
      <point x="270.124" y="-449"/>
      <point x="47" y="-376.317"/>
      <point x="47" y="-153" type="curve" smooth="yes"/>
      <point x="47" y="-46"/>
      <point x="108" y="25"/>
      <point x="229" y="60" type="curve"/>
      <point x="229" y="65" type="line"/>
      <point x="169" y="70"/>
      <point x="151" y="132"/>
    </contour>
  </outline>
</glyph>
<glyph name="h" format="1">
  <advance width="1365"/>
  <unicode hex="0068"/>
  <outline>
    <contour>
      <point x="771" y="946" type="curve" smooth="yes"/>
      <point x="645.782" y="946"/>
      <point x="476.053" y="852.399"/>
      <point x="462" y="747" type="curve"/>
      <point x="462" y="226" type="line" smooth="yes"/>
      <point x="462" y="102.816"/>
      <point x="475.499" y="88.1162"/>
      <point x="582" y="71" type="curve"/>
      <point x="590" y="-13" type="line"/>
      <point x="498.5" y="-5.5"/>
      <point x="413.75" y="-1.75"/>
      <point x="335.5" y="-1.75" type="curve" smooth="yes"/>
      <point x="257.25" y="-1.75"/>
      <point x="185.5" y="-5.5"/>
      <point x="120" y="-13" type="curve"/>
      <point x="124" y="71" type="line"/>
      <point x="234" y="85"/>
      <point x="248" y="98"/>
      <point x="248" y="200" type="curve" smooth="yes"/>
      <point x="248" y="1353" type="line" smooth="yes"/>
      <point x="248" y="1390"/>
      <point x="245" y="1420"/>
      <point x="240" y="1441" type="curve"/>
      <point x="213" y="1450"/>
      <point x="185" y="1455"/>
      <point x="155" y="1455" type="curve" smooth="yes"/>
      <point x="57" y="1455" type="line"/>
      <point x="57" y="1542" type="line"/>
      <point x="133" y="1561"/>
      <point x="239" y="1570"/>
      <point x="375" y="1570" type="curve" smooth="yes"/>
      <point x="460" y="1570"/>
      <point x="462" y="1559"/>
      <point x="462" y="1475" type="curve" smooth="yes"/>
      <point x="462" y="918" type="line"/>
      <point x="549" y="1000"/>
      <point x="685" y="1061"/>
      <point x="846" y="1061" type="curve" smooth="yes"/>
      <point x="1062" y="1061"/>
      <point x="1155" y="960"/>
      <point x="1155" y="745" type="curve" smooth="yes"/>
      <point x="1155" y="269" type="line" smooth="yes"/>
      <point x="1155" y="206"/>
      <point x="1161" y="150"/>
      <point x="1172" y="101" type="curve"/>
      <point x="1325" y="101" type="line"/>
      <point x="1325" y="12" type="line"/>
      <point x="1264" y="-5"/>
      <point x="1176" y="-13"/>
      <point x="1061" y="-13" type="curve" smooth="yes"/>
      <point x="977" y="-13"/>
      <point x="935" y="16"/>
      <point x="935" y="73" type="curve"/>
      <point x="941" y="281" type="line"/>
      <point x="941" y="644" type="line" smooth="yes"/>
      <point x="941" y="833.211"/>
      <point x="930.373" y="946"/>
    </contour>
  </outline>
</glyph>
<glyph name="i" format="1">
  <advance width="640"/>
  <unicode hex="0069"/>
  <outline>
    <contour>
      <point x="443" y="269" type="line" smooth="yes"/>
      <point x="443" y="174"/>
      <point x="460" y="101" type="qcurve"/>
      <point x="604" y="101" type="line"/>
      <point x="614" y="11" type="line"/>
      <point x="518" y="-13"/>
      <point x="349" y="-13" type="qcurve" smooth="yes"/>
      <point x="223" y="-13"/>
      <point x="223" y="73" type="qcurve"/>
      <point x="230" y="281" type="line"/>
      <point x="230" y="842" type="line" smooth="yes"/>
      <point x="230" y="891"/>
      <point x="223" y="921" type="qcurve"/>
      <point x="187" y="936"/>
      <point x="137" y="936" type="qcurve" smooth="yes"/>
      <point x="40" y="936" type="line"/>
      <point x="40" y="1032" type="line"/>
      <point x="120" y="1052"/>
      <point x="392" y="1052"/>
      <point x="443" y="1032" type="qcurve"/>
    </contour>
    <contour>
      <point x="198" y="1377"/>
      <point x="198" y="1471"/>
      <point x="275" y="1547"/>
      <point x="365" y="1547"/>
      <point x="415" y="1527"/>
      <point x="433" y="1509" type="qcurve" smooth="yes"/>
      <point x="472" y="1470"/>
      <point x="472" y="1377"/>
      <point x="451" y="1326"/>
      <point x="415" y="1289"/>
      <point x="365" y="1269"/>
      <point x="305" y="1269"/>
      <point x="255" y="1289"/>
      <point x="218" y="1326"/>
    </contour>
  </outline>
</glyph>
<glyph name="j" format="1">
  <advance width="757"/>
  <unicode hex="006A"/>
  <outline>
    <contour>
      <point x="449" y="1269" type="curve" smooth="yes"/>
      <point x="366" y="1269"/>
      <point x="312" y="1325"/>
      <point x="312" y="1408" type="curve" smooth="yes"/>
      <point x="312" y="1491"/>
      <point x="366" y="1547"/>
      <point x="449" y="1547" type="curve" smooth="yes"/>
      <point x="525" y="1547"/>
      <point x="586" y="1491"/>
      <point x="586" y="1424" type="curve" smooth="yes"/>
      <point x="586" y="1329"/>
      <point x="540" y="1269"/>
    </contour>
    <contour>
      <point x="343" y="842" type="line" smooth="yes"/>
      <point x="343" y="925.584"/>
      <point x="327.847" y="936"/>
      <point x="250" y="936" type="curve" smooth="yes"/>
      <point x="153" y="936" type="line"/>
      <point x="153" y="1032" type="line"/>
      <point x="206" y="1045"/>
      <point x="278" y="1052"/>
      <point x="369" y="1052" type="curve" smooth="yes"/>
      <point x="460" y="1052"/>
      <point x="522" y="1045"/>
      <point x="556" y="1032" type="curve"/>
      <point x="556" y="86" type="line" smooth="yes"/>
      <point x="556" y="-182"/>
      <point x="470" y="-374"/>
      <point x="223" y="-374" type="curve" smooth="yes"/>
      <point x="142" y="-374"/>
      <point x="55" y="-360"/>
      <point x="-36" y="-333" type="curve"/>
      <point x="11" y="-56" type="line"/>
      <point x="51" y="-63"/>
      <point x="86" y="-69"/>
      <point x="117" y="-74" type="curve"/>
      <point x="117" y="-126"/>
      <point x="122" y="-181"/>
      <point x="131" y="-240" type="curve"/>
      <point x="187" y="-248"/>
      <point x="225" y="-252"/>
      <point x="245" y="-252" type="curve" smooth="yes"/>
      <point x="349.597" y="-252"/>
      <point x="341.719" y="-39.4634"/>
      <point x="343" y="104" type="curve"/>
    </contour>
  </outline>
</glyph>
<glyph name="k" format="1">
  <advance width="1265"/>
  <unicode hex="006B"/>
  <outline>
    <contour>
      <point x="412" y="1572" type="curve"/>
      <point x="452" y="1545"/>
      <point x="462" y="1517"/>
      <point x="462" y="1456" type="curve" smooth="yes"/>
      <point x="462" y="523" type="line"/>
      <point x="726" y="778" type="line" smooth="yes"/>
      <point x="802" y="851"/>
      <point x="840" y="897"/>
      <point x="841" y="918" type="curve" smooth="yes"/>
      <point x="841" y="930"/>
      <point x="828" y="936"/>
      <point x="803" y="936" type="curve"/>
      <point x="803" y="1032" type="line"/>
      <point x="1236" y="1032" type="line"/>
      <point x="1236" y="936" type="line"/>
      <point x="1198" y="936" type="line" smooth="yes"/>
      <point x="1146" y="936"/>
      <point x="1073" y="906"/>
      <point x="1032" y="872" type="curve"/>
      <point x="689" y="566" type="line"/>
      <point x="1059" y="145" type="line" smooth="yes"/>
      <point x="1086" y="113"/>
      <point x="1152" y="81"/>
      <point x="1222" y="81" type="curve" smooth="yes"/>
      <point x="1235" y="81"/>
      <point x="1246" y="82"/>
      <point x="1254" y="84" type="curve"/>
      <point x="1267" y="-14" type="line"/>
      <point x="1189.8" y="-5.25022"/>
      <point x="1108.35" y="-0.738977"/>
      <point x="1022.81" y="-0.738977" type="curve" smooth="yes"/>
      <point x="942.148" y="-0.738977"/>
      <point x="857.841" y="-4.74978"/>
      <point x="770" y="-13" type="curve"/>
      <point x="770" y="75" type="line"/>
      <point x="793" y="75"/>
      <point x="819" y="72"/>
      <point x="819" y="92" type="curve"/>
      <point x="806" y="113"/>
      <point x="785" y="142"/>
      <point x="754" y="179" type="curve" smooth="yes"/>
      <point x="515" y="470" type="line"/>
      <point x="462" y="432" type="line"/>
      <point x="462" y="226" type="line" smooth="yes"/>
      <point x="462" y="103.43"/>
      <point x="475.922" y="89.0482"/>
      <point x="582" y="72" type="curve"/>
      <point x="587" y="-13" type="line"/>
      <point x="500.5" y="-5.5"/>
      <point x="418.25" y="-1.75"/>
      <point x="340.5" y="-1.75" type="curve" smooth="yes"/>
      <point x="262.75" y="-1.75"/>
      <point x="189.5" y="-5.5"/>
      <point x="121" y="-13" type="curve"/>
      <point x="124" y="72" type="line"/>
      <point x="234" y="86"/>
      <point x="248" y="99"/>
      <point x="248" y="201" type="curve" smooth="yes"/>
      <point x="248" y="1337" type="line" smooth="yes"/>
      <point x="248" y="1379"/>
      <point x="245" y="1413"/>
      <point x="240" y="1440" type="curve"/>
      <point x="213" y="1449"/>
      <point x="185" y="1454"/>
      <point x="154" y="1454" type="curve" smooth="yes"/>
      <point x="57" y="1454" type="line"/>
      <point x="57" y="1541" type="line"/>
      <point x="122" y="1555"/>
      <point x="241" y="1565"/>
    </contour>
  </outline>
</glyph>
<glyph name="l" format="1">
  <advance width="638"/>
  <unicode hex="006C"/>
  <outline>
    <contour>
      <point x="212" y="73" type="qcurve"/>
      <point x="219" y="281" type="line"/>
      <point x="219" y="1339" type="line" smooth="yes"/>
      <point x="219" y="1398"/>
      <point x="210" y="1441" type="qcurve"/>
      <point x="170" y="1455"/>
      <point x="123" y="1455" type="qcurve" smooth="yes"/>
      <point x="27" y="1455" type="line"/>
      <point x="27" y="1542" type="line"/>
      <point x="151" y="1569"/>
      <point x="323" y="1569" type="qcurve" smooth="yes"/>
      <point x="409" y="1569"/>
      <point x="430" y="1543" type="qcurve"/>
      <point x="430" y="269" type="line" smooth="yes"/>
      <point x="430" y="174"/>
      <point x="447" y="101" type="qcurve"/>
      <point x="611" y="101" type="line"/>
      <point x="611" y="11" type="line"/>
      <point x="511" y="-13"/>
      <point x="338" y="-13" type="qcurve" smooth="yes"/>
      <point x="212" y="-13"/>
    </contour>
  </outline>
</glyph>
<glyph name="m" format="1">
  <advance width="2006"/>
  <unicode hex="006D"/>
  <outline>
    <contour>
      <point x="1557" y="73" type="qcurve"/>
      <point x="1564" y="281" type="line"/>
      <point x="1562" y="660" type="line" smooth="yes"/>
      <point x="1562" y="821"/>
      <point x="1528" y="880" type="qcurve" smooth="yes"/>
      <point x="1495" y="936"/>
      <point x="1405" y="936" type="qcurve" smooth="yes"/>
      <point x="1310" y="936"/>
      <point x="1222" y="871" type="qcurve" smooth="yes"/>
      <point x="1149" y="817"/>
      <point x="1118" y="746" type="qcurve"/>
      <point x="1118" y="237" type="line" smooth="yes"/>
      <point x="1118" y="142"/>
      <point x="1132" y="121" type="qcurve" smooth="yes"/>
      <point x="1157" y="85"/>
      <point x="1248" y="72" type="qcurve"/>
      <point x="1257" y="-13" type="line"/>
      <point x="979" y="15"/>
      <point x="776" y="-13" type="qcurve"/>
      <point x="780" y="72" type="line"/>
      <point x="868" y="83"/>
      <point x="900" y="121"/>
      <point x="904" y="165"/>
      <point x="904" y="199" type="qcurve" smooth="yes"/>
      <point x="904" y="660" type="line" smooth="yes"/>
      <point x="904" y="825"/>
      <point x="870" y="881" type="qcurve" smooth="yes"/>
      <point x="837" y="936"/>
      <point x="746" y="936" type="qcurve" smooth="yes"/>
      <point x="656" y="936"/>
      <point x="567" y="872" type="qcurve" smooth="yes"/>
      <point x="485" y="813"/>
      <point x="461" y="746" type="qcurve"/>
      <point x="461" y="236" type="line" smooth="yes"/>
      <point x="460" y="142"/>
      <point x="474" y="121" type="qcurve" smooth="yes"/>
      <point x="497" y="85"/>
      <point x="581" y="72" type="qcurve"/>
      <point x="589" y="-13" type="line"/>
      <point x="316" y="16"/>
      <point x="119" y="-13" type="qcurve"/>
      <point x="122" y="72" type="line"/>
      <point x="211" y="83"/>
      <point x="243" y="126"/>
      <point x="247" y="174"/>
      <point x="247" y="209" type="qcurve" smooth="yes"/>
      <point x="247" y="841" type="line" smooth="yes"/>
      <point x="247" y="889"/>
      <point x="240" y="921" type="qcurve"/>
      <point x="205" y="936"/>
      <point x="154" y="936" type="qcurve" smooth="yes"/>
      <point x="57" y="936" type="line"/>
      <point x="57" y="1032" type="line"/>
      <point x="137" y="1052"/>
      <point x="405" y="1052"/>
      <point x="456" y="1032" type="qcurve"/>
      <point x="456" y="905" type="line"/>
      <point x="633" y="1062"/>
      <point x="1045" y="1062"/>
      <point x="1101" y="885" type="qcurve"/>
      <point x="1258" y="1062"/>
      <point x="1480" y="1062" type="qcurve" smooth="yes"/>
      <point x="1634" y="1062"/>
      <point x="1778" y="911"/>
      <point x="1778" y="748" type="qcurve" smooth="yes"/>
      <point x="1778" y="269" type="line" smooth="yes"/>
      <point x="1778" y="174"/>
      <point x="1795" y="101" type="qcurve"/>
      <point x="1939" y="101" type="line"/>
      <point x="1949" y="12" type="line"/>
      <point x="1849" y="-13"/>
      <point x="1683" y="-13" type="qcurve" smooth="yes"/>
      <point x="1557" y="-13"/>
    </contour>
  </outline>
</glyph>
<glyph name="n" format="1">
  <advance width="1365"/>
  <unicode hex="006E"/>
  <outline>
    <contour>
      <point x="456" y="884" type="line"/>
      <point x="552" y="977"/>
      <point x="671.891" y="1062"/>
      <point x="842" y="1062" type="curve" smooth="yes"/>
      <point x="1037" y="1062"/>
      <point x="1153" y="937"/>
      <point x="1153" y="744" type="curve" smooth="yes"/>
      <point x="1153" y="269" type="line" smooth="yes"/>
      <point x="1153" y="206"/>
      <point x="1159" y="150"/>
      <point x="1170" y="101" type="curve"/>
      <point x="1314" y="101" type="line"/>
      <point x="1325" y="12" type="line"/>
      <point x="1258" y="-5"/>
      <point x="1169" y="-13"/>
      <point x="1058" y="-13" type="curve" smooth="yes"/>
      <point x="975" y="-13"/>
      <point x="934" y="16"/>
      <point x="934" y="74" type="curve"/>
      <point x="940" y="289" type="line"/>
      <point x="940" y="651" type="line" smooth="yes"/>
      <point x="940" y="826.213"/>
      <point x="899.464" y="936"/>
      <point x="764" y="936" type="curve" smooth="yes"/>
      <point x="633.856" y="936"/>
      <point x="518" y="851"/>
      <point x="461" y="777" type="curve"/>
      <point x="461" y="237" type="line" smooth="yes"/>
      <point x="461" y="229"/>
      <point x="460.802" y="221.559"/>
      <point x="460.802" y="214.443" type="curve" smooth="yes"/>
      <point x="460.802" y="103.801"/>
      <point x="478.205" y="88.5206"/>
      <point x="581" y="72" type="curve"/>
      <point x="589" y="-13" type="line"/>
      <point x="498" y="-3.5"/>
      <point x="413.25" y="1.25"/>
      <point x="334.875" y="1.25" type="curve" smooth="yes"/>
      <point x="256.5" y="1.25"/>
      <point x="184.5" y="-3.5"/>
      <point x="119" y="-13" type="curve"/>
      <point x="122" y="72" type="line"/>
      <point x="237" y="86"/>
      <point x="247" y="100"/>
      <point x="247" y="206" type="curve" smooth="yes"/>
      <point x="247" y="845" type="line" smooth="yes"/>
      <point x="247" y="917.544"/>
      <point x="240.826" y="936"/>
      <point x="170" y="936" type="curve" smooth="yes"/>
      <point x="57" y="936" type="line"/>
      <point x="57" y="1032" type="line"/>
      <point x="110" y="1045"/>
      <point x="182" y="1052"/>
      <point x="272" y="1052" type="curve" smooth="yes"/>
      <point x="362" y="1052"/>
      <point x="423" y="1045"/>
      <point x="456" y="1032" type="curve"/>
    </contour>
  </outline>
</glyph>
<glyph name="o" format="1">
  <advance width="1285"/>
  <unicode hex="006f"/>
  <outline>
    <contour>
      <point x="642" y="87" type="curve" smooth="yes"/>
      <point x="870.579" y="87"/>
      <point x="939.464" y="264.411"/>
      <point x="943" y="519" type="curve" smooth="no"/>
      <point x="943" y="770"/>
      <point x="875" y="946"/>
      <point x="642" y="946" type="curve" smooth="yes"/>
      <point x="421.84" y="946"/>
      <point x="342" y="770.523"/>
      <point x="342" y="519" type="curve" smooth="yes"/>
      <point x="342" y="262"/>
      <point x="407" y="87"/>
    </contour>
    <contour>
      <point x="643" y="1062" type="curve" smooth="yes"/>
      <point x="960.894" y="1062"/>
      <point x="1172" y="836.376"/>
      <point x="1172" y="516" type="curve" smooth="yes"/>
      <point x="1172" y="184.494"/>
      <point x="958.831" y="-24"/>
      <point x="643" y="-24" type="curve" smooth="yes"/>
      <point x="322.855" y="-24"/>
      <point x="111.097" y="196.385"/>
      <point x="113" y="518" type="curve" smooth="no"/>
      <point x="111.09" y="836.992"/>
      <point x="326.615" y="1062"/>
    </contour>
  </outline>
</glyph>
<glyph name="p" format="1">
  <advance width="1333"/>
  <unicode hex="0070"/>
  <outline>
    <contour>
      <point x="225" y="831" type="line" smooth="yes"/>
      <point x="225" y="925.52"/>
      <point x="216.253" y="936"/>
      <point x="130" y="936" type="curve" smooth="yes"/>
      <point x="33" y="936" type="line"/>
      <point x="33" y="1032" type="line"/>
      <point x="87" y="1045"/>
      <point x="149" y="1052"/>
      <point x="218" y="1052" type="curve" smooth="yes"/>
      <point x="329" y="1052"/>
      <point x="401" y="1045"/>
      <point x="434" y="1032" type="curve"/>
      <point x="436" y="917" type="line"/>
      <point x="529" y="1014"/>
      <point x="648" y="1062"/>
      <point x="794" y="1062" type="curve" smooth="yes"/>
      <point x="1082.95" y="1062"/>
      <point x="1220.46" y="805.638"/>
      <point x="1220.46" y="542.027" type="curve" smooth="yes"/>
      <point x="1220.46" y="263.073"/>
      <point x="1066.48" y="-24"/>
      <point x="775" y="-24" type="curve" smooth="yes"/>
      <point x="652" y="-24"/>
      <point x="540" y="14"/>
      <point x="438" y="91" type="curve"/>
      <point x="438" y="-240" type="line" smooth="yes"/>
      <point x="438" y="-368.039"/>
      <point x="450.77" y="-383.606"/>
      <point x="559" y="-401" type="curve"/>
      <point x="567" y="-489" type="line"/>
      <point x="492" y="-477"/>
      <point x="409" y="-471"/>
      <point x="318" y="-471" type="curve" smooth="yes"/>
      <point x="227" y="-471"/>
      <point x="153" y="-477"/>
      <point x="96" y="-489" type="curve"/>
      <point x="101" y="-401" type="line"/>
      <point x="214" y="-384"/>
      <point x="225" y="-372"/>
      <point x="225" y="-266" type="curve" smooth="yes"/>
    </contour>
    <contour>
      <point x="700" y="101" type="curve" smooth="yes"/>
      <point x="932.119" y="101"/>
      <point x="994" y="285.801"/>
      <point x="994" y="529" type="curve" smooth="yes"/>
      <point x="994" y="748"/>
      <point x="954" y="946"/>
      <point x="761" y="946" type="curve" smooth="yes"/>
      <point x="644" y="946"/>
      <point x="539" y="898"/>
      <point x="448" y="802" type="curve"/>
      <point x="438" y="292" type="line"/>
      <point x="491" y="191"/>
      <point x="565" y="101"/>
    </contour>
  </outline>
</glyph>
<glyph name="q" format="1">
  <advance width="1343"/>
  <unicode hex="0071"/>
  <outline>
    <contour>
      <point x="340" y="522" type="curve" smooth="yes"/>
      <point x="340" y="273.687"/>
      <point x="411.002" y="101"/>
      <point x="624" y="101" type="curve" smooth="yes"/>
      <point x="728" y="101"/>
      <point x="815" y="138"/>
      <point x="886" y="212" type="curve"/>
      <point x="886" y="832" type="line"/>
      <point x="793" y="908"/>
      <point x="689" y="946"/>
      <point x="573" y="946" type="curve" smooth="yes"/>
      <point x="378" y="946"/>
      <point x="340" y="746"/>
    </contour>
    <contour>
      <point x="1204" y="936" type="line" smooth="yes"/>
      <point x="1117.94" y="936"/>
      <point x="1109" y="925.612"/>
      <point x="1109" y="831" type="curve" smooth="yes"/>
      <point x="1109" y="-266" type="line" smooth="yes"/>
      <point x="1108.89" y="-271.421"/>
      <point x="1108.84" y="-276.595"/>
      <point x="1108.84" y="-281.535" type="curve" smooth="yes"/>
      <point x="1108.84" y="-381.922"/>
      <point x="1132.12" y="-385.612"/>
      <point x="1233" y="-401" type="curve"/>
      <point x="1238" y="-489" type="line"/>
      <point x="1181" y="-477"/>
      <point x="1107" y="-471"/>
      <point x="1016" y="-471" type="curve" smooth="yes"/>
      <point x="925" y="-471"/>
      <point x="842" y="-477"/>
      <point x="767" y="-489" type="curve"/>
      <point x="775" y="-401" type="line"/>
      <point x="886.748" y="-383.356"/>
      <point x="896" y="-364.003"/>
      <point x="896" y="-235" type="curve" smooth="yes"/>
      <point x="896" y="91" type="line"/>
      <point x="794" y="14"/>
      <point x="685" y="-24"/>
      <point x="570" y="-24" type="curve" smooth="yes"/>
      <point x="270.405" y="-24"/>
      <point x="112.98" y="262.947"/>
      <point x="112.98" y="541.844" type="curve" smooth="yes"/>
      <point x="112.98" y="805.519"/>
      <point x="253.69" y="1062"/>
      <point x="548" y="1062" type="curve" smooth="yes"/>
      <point x="685" y="1062"/>
      <point x="802" y="1024"/>
      <point x="900" y="947" type="curve"/>
      <point x="900" y="1032" type="line"/>
      <point x="953" y="1045"/>
      <point x="1025" y="1052"/>
      <point x="1115" y="1052" type="curve" smooth="yes"/>
      <point x="1205" y="1052"/>
      <point x="1267" y="1045"/>
      <point x="1301" y="1032" type="curve"/>
      <point x="1301" y="936" type="line"/>
    </contour>
  </outline>
</glyph>
<glyph name="r" format="1">
  <advance width="994"/>
  <unicode hex="0072"/>
  <outline>
    <contour>
      <point x="68" y="1032" type="line"/>
      <point x="148" y="1052"/>
      <point x="412" y="1052"/>
      <point x="463" y="1032" type="qcurve"/>
      <point x="463" y="791" type="line"/>
      <point x="552" y="932"/>
      <point x="603" y="977" type="qcurve" smooth="yes"/>
      <point x="701" y="1062"/>
      <point x="912" y="1062"/>
      <point x="963" y="1032" type="qcurve"/>
      <point x="938" y="756" type="line"/>
      <point x="848" y="756" type="line"/>
      <point x="824" y="902" type="line"/>
      <point x="797" y="905"/>
      <point x="767" y="909"/>
      <point x="709" y="909"/>
      <point x="608" y="852"/>
      <point x="566" y="804" type="qcurve" smooth="yes"/>
      <point x="470" y="695"/>
      <point x="470" y="568" type="qcurve" smooth="yes"/>
      <point x="470" y="231" type="line" smooth="yes"/>
      <point x="470" y="140"/>
      <point x="484" y="119" type="qcurve" smooth="yes"/>
      <point x="506" y="84"/>
      <point x="591" y="71" type="qcurve"/>
      <point x="600" y="-13" type="line"/>
      <point x="327" y="10"/>
      <point x="129" y="-13" type="qcurve"/>
      <point x="133" y="71" type="line"/>
      <point x="223" y="82"/>
      <point x="254" y="123"/>
      <point x="258" y="169"/>
      <point x="258" y="205" type="qcurve" smooth="yes"/>
      <point x="258" y="852" type="line" smooth="yes"/>
      <point x="258" y="895"/>
      <point x="250" y="921" type="qcurve"/>
      <point x="220" y="936"/>
      <point x="181" y="936" type="qcurve" smooth="yes"/>
      <point x="68" y="936" type="line"/>
    </contour>
  </outline>
</glyph>
<glyph name="s" format="1">
  <advance width="1070"/>
  <unicode hex="0073"/>
  <outline>
    <contour>
      <point x="167" y="764" type="curve" smooth="yes"/>
      <point x="167" y="984.3"/>
      <point x="370.138" y="1062"/>
      <point x="599" y="1062" type="curve" smooth="yes"/>
      <point x="736" y="1062"/>
      <point x="837" y="1040"/>
      <point x="904" y="997" type="curve"/>
      <point x="904" y="932.323"/>
      <point x="865.994" y="776.632"/>
      <point x="861" y="750" type="curve"/>
      <point x="761" y="767" type="line"/>
      <point x="758" y="833"/>
      <point x="756" y="881"/>
      <point x="753" y="911" type="curve"/>
      <point x="710" y="934"/>
      <point x="648" y="946"/>
      <point x="567" y="946" type="curve" smooth="yes"/>
      <point x="445.71" y="946"/>
      <point x="355" y="917.812"/>
      <point x="355" y="821" type="curve" smooth="yes"/>
      <point x="355" y="689.879"/>
      <point x="446.399" y="662.424"/>
      <point x="560" y="624" type="curve"/>
      <point x="662" y="588" type="line" smooth="yes"/>
      <point x="818.194" y="532.114"/>
      <point x="970" y="470.232"/>
      <point x="970" y="306" type="curve" smooth="yes"/>
      <point x="970" y="64.7712"/>
      <point x="781.447" y="-22.1225"/>
      <point x="543" y="-24" type="curve"/>
      <point x="404.035" y="-24"/>
      <point x="237.945" y="10.2738"/>
      <point x="142" y="78" type="curve"/>
      <point x="191" y="338" type="line"/>
      <point x="295" y="325" type="line"/>
      <point x="303" y="232"/>
      <point x="309" y="168"/>
      <point x="313" y="132" type="curve"/>
      <point x="372" y="102"/>
      <point x="455" y="87"/>
      <point x="562" y="87" type="curve" smooth="yes"/>
      <point x="681.136" y="87"/>
      <point x="768" y="133.322"/>
      <point x="768" y="244" type="curve" smooth="yes"/>
      <point x="768" y="349.083"/>
      <point x="669.04" y="382.621"/>
      <point x="573" y="419" type="curve" smooth="yes"/>
      <point x="487" y="452" type="line"/>
      <point x="294.205" y="527.511"/>
      <point x="167" y="557.277"/>
    </contour>
  </outline>
</glyph>
<glyph name="t" format="1">
  <advance width="894"/>
  <unicode hex="0074"/>
  <outline>
    <contour>
      <point x="538" y="-11" type="qcurve" smooth="yes"/>
      <point x="242" y="-11"/>
      <point x="242" y="299" type="qcurve" smooth="yes"/>
      <point x="242" y="912" type="line"/>
      <point x="39" y="912" type="line"/>
      <point x="39" y="966" type="line" smooth="yes"/>
      <point x="39" y="992"/>
      <point x="62" y="1008"/>
      <point x="86" y="1011" type="qcurve" smooth="yes"/>
      <point x="253" y="1032" type="line"/>
      <point x="280" y="1217" type="line"/>
      <point x="283" y="1253"/>
      <point x="305" y="1307" type="qcurve"/>
      <point x="323" y="1355" type="line"/>
      <point x="455" y="1355" type="line"/>
      <point x="455" y="1032" type="line"/>
      <point x="777" y="1032" type="line"/>
      <point x="777" y="980" type="line" smooth="yes"/>
      <point x="776" y="937"/>
      <point x="764" y="926" type="qcurve" smooth="yes"/>
      <point x="747" y="912"/>
      <point x="706" y="912" type="qcurve" smooth="yes"/>
      <point x="455" y="912" type="line"/>
      <point x="455" y="319" type="line" smooth="yes"/>
      <point x="455" y="100"/>
      <point x="600" y="100" type="qcurve" smooth="yes"/>
      <point x="629" y="100"/>
      <point x="683" y="118" type="qcurve"/>
      <point x="687" y="151"/>
      <point x="695" y="213"/>
      <point x="702" y="279"/>
      <point x="706" y="309" type="qcurve"/>
      <point x="837" y="319" type="line"/>
      <point x="847" y="48" type="line"/>
      <point x="729" y="-11"/>
    </contour>
  </outline>
</glyph>
<glyph name="u" format="1">
  <advance width="1363"/>
  <unicode hex="0075"/>
  <outline>
    <contour>
      <point x="436" y="352" type="line" smooth="yes"/>
      <point x="436" y="176.49"/>
      <point x="461.532" y="101"/>
      <point x="616" y="101" type="curve" smooth="yes"/>
      <point x="616.526" y="100.993"/>
      <point x="617.062" y="100.989"/>
      <point x="617.609" y="100.989" type="curve" smooth="yes"/>
      <point x="679.387" y="100.989"/>
      <point x="870.585" y="148.171"/>
      <point x="899" y="205" type="curve"/>
      <point x="910" y="274"/>
      <point x="916" y="383"/>
      <point x="916" y="531" type="curve" smooth="yes"/>
      <point x="916" y="829" type="line" smooth="yes"/>
      <point x="916" y="867"/>
      <point x="912" y="899"/>
      <point x="904" y="925" type="curve"/>
      <point x="883" y="932"/>
      <point x="856" y="936"/>
      <point x="822" y="936" type="curve" smooth="yes"/>
      <point x="739" y="936" type="line"/>
      <point x="739" y="1032" type="line"/>
      <point x="797" y="1045"/>
      <point x="869" y="1052"/>
      <point x="956" y="1052" type="curve" smooth="yes"/>
      <point x="1043" y="1052"/>
      <point x="1100" y="1045"/>
      <point x="1128" y="1032" type="curve"/>
      <point x="1128" y="269" type="line" smooth="yes"/>
      <point x="1128" y="206"/>
      <point x="1134" y="150"/>
      <point x="1145" y="101" type="curve"/>
      <point x="1306" y="101" type="line"/>
      <point x="1306" y="15" type="line"/>
      <point x="1231" y="-4"/>
      <point x="1162" y="-13"/>
      <point x="1099" y="-13" type="curve" smooth="yes"/>
      <point x="1071.06" y="-13"/>
      <point x="1045.55" y="-13.8125"/>
      <point x="1022.8" y="-13.8125" type="curve" smooth="yes"/>
      <point x="944.606" y="-13.8125"/>
      <point x="899" y="-4.21127"/>
      <point x="899" y="81" type="curve" smooth="yes"/>
      <point x="899" y="115" type="line"/>
      <point x="813" y="34"/>
      <point x="690" y="-24"/>
      <point x="517" y="-24" type="curve" smooth="yes"/>
      <point x="330" y="-24"/>
      <point x="224" y="84"/>
      <point x="224" y="299" type="curve" smooth="yes"/>
      <point x="224" y="829" type="line" smooth="yes"/>
      <point x="224" y="864"/>
      <point x="220" y="896"/>
      <point x="213" y="925" type="curve"/>
      <point x="191" y="932"/>
      <point x="163" y="936"/>
      <point x="130" y="936" type="curve" smooth="yes"/>
      <point x="47" y="936" type="line"/>
      <point x="47" y="1032" type="line"/>
      <point x="105" y="1045"/>
      <point x="177" y="1052"/>
      <point x="263" y="1052" type="curve" smooth="yes"/>
      <point x="349" y="1052"/>
      <point x="407" y="1045"/>
      <point x="436" y="1032" type="curve"/>
    </contour>
  </outline>
</glyph>
<glyph name="v" format="1">
  <advance width="1319"/>
  <unicode hex="0076"/>
  <outline>
    <contour>
      <point x="8" y="1032" type="line"/>
      <point x="72" y="1052"/>
      <point x="203" y="1052" type="qcurve" smooth="yes"/>
      <point x="446" y="1052"/>
      <point x="535" y="1032" type="qcurve"/>
      <point x="552" y="936" type="line"/>
      <point x="497" y="936" type="line" smooth="yes"/>
      <point x="445" y="936"/>
      <point x="417" y="921" type="qcurve"/>
      <point x="421" y="901"/>
      <point x="440" y="858"/>
      <point x="482" y="739" type="qcurve" smooth="yes"/>
      <point x="583" y="455"/>
      <point x="710" y="157" type="qcurve"/>
      <point x="966" y="835" type="line" smooth="yes"/>
      <point x="975" y="858"/>
      <point x="987" y="901"/>
      <point x="993" y="921" type="qcurve"/>
      <point x="967" y="936"/>
      <point x="914" y="936" type="qcurve" smooth="yes"/>
      <point x="859" y="936" type="line"/>
      <point x="870" y="1032" type="line"/>
      <point x="941" y="1052"/>
      <point x="1255" y="1052"/>
      <point x="1313" y="1032" type="qcurve"/>
      <point x="1313" y="936" type="line"/>
      <point x="1259" y="936" type="line" smooth="yes"/>
      <point x="1209" y="936"/>
      <point x="1167" y="921" type="qcurve"/>
      <point x="1131" y="873"/>
      <point x="1055" y="687" type="qcurve" smooth="yes"/>
      <point x="979" y="502"/>
      <point x="947" y="424" type="qcurve" smooth="yes"/>
      <point x="867" y="231"/>
      <point x="838" y="166" type="qcurve" smooth="yes"/>
      <point x="759" y="-8" type="line"/>
      <point x="647" y="-8" type="line" smooth="yes"/>
      <point x="597" y="-8"/>
      <point x="571" y="9"/>
      <point x="562" y="20" type="qcurve"/>
      <point x="218" y="835" type="line" smooth="yes"/>
      <point x="196" y="885"/>
      <point x="171" y="921" type="qcurve"/>
      <point x="132" y="936"/>
      <point x="79" y="936" type="qcurve" smooth="yes"/>
      <point x="24" y="936" type="line"/>
    </contour>
  </outline>
</glyph>
<glyph name="w" format="1">
  <advance width="1905"/>
  <unicode hex="0077"/>
  <outline>
    <contour>
      <point x="2" y="1032" type="line"/>
      <point x="42" y="1045"/>
      <point x="105" y="1052"/>
      <point x="190" y="1052" type="curve" smooth="yes"/>
      <point x="349" y="1052"/>
      <point x="459" y="1045"/>
      <point x="518" y="1032" type="curve"/>
      <point x="535" y="936" type="line"/>
      <point x="480" y="936" type="line" smooth="yes"/>
      <point x="445" y="936"/>
      <point x="419" y="931"/>
      <point x="402" y="921" type="curve"/>
      <point x="657" y="146" type="line"/>
      <point x="767" y="489" type="line" smooth="yes"/>
      <point x="821" y="658"/>
      <point x="880" y="838"/>
      <point x="933" y="1004" type="curve"/>
      <point x="988" y="1004" type="line" smooth="yes"/>
      <point x="1038" y="1004"/>
      <point x="1076" y="1004"/>
      <point x="1088" y="969" type="curve" smooth="yes"/>
      <point x="1360" y="133" type="line"/>
      <point x="1556" y="835" type="line" smooth="yes"/>
      <point x="1565" y="866"/>
      <point x="1565" y="894"/>
      <point x="1577" y="921" type="curve"/>
      <point x="1560" y="931"/>
      <point x="1535" y="936"/>
      <point x="1504" y="936" type="curve" smooth="yes"/>
      <point x="1449" y="936" type="line"/>
      <point x="1460" y="1032" type="line"/>
      <point x="1507" y="1045"/>
      <point x="1583" y="1052"/>
      <point x="1688" y="1052" type="curve" smooth="yes"/>
      <point x="1793" y="1052"/>
      <point x="1864" y="1045"/>
      <point x="1903" y="1032" type="curve"/>
      <point x="1903" y="936" type="line"/>
      <point x="1849" y="936" type="line" smooth="yes"/>
      <point x="1814" y="936"/>
      <point x="1784" y="931"/>
      <point x="1757" y="921" type="curve"/>
      <point x="1644" y="612"/>
      <point x="1533" y="299"/>
      <point x="1423" y="-8" type="curve"/>
      <point x="1308" y="-8" type="line" smooth="yes"/>
      <point x="1219.03" y="-8"/>
      <point x="1208.67" y="14.9828"/>
      <point x="1186" y="83" type="curve" smooth="yes"/>
      <point x="974" y="710" type="line"/>
      <point x="892" y="467"/>
      <point x="807" y="228"/>
      <point x="719" y="-8" type="curve"/>
      <point x="604" y="-8" type="line" smooth="yes"/>
      <point x="540" y="-8"/>
      <point x="504" y="6"/>
      <point x="496" y="35" type="curve"/>
      <point x="210" y="835" type="line" smooth="yes"/>
      <point x="201" y="860"/>
      <point x="186" y="888"/>
      <point x="163" y="921" type="curve"/>
      <point x="137" y="931"/>
      <point x="107" y="936"/>
      <point x="72" y="936" type="curve" smooth="yes"/>
      <point x="18" y="936" type="line"/>
    </contour>
  </outline>
</glyph>
<glyph name="x" format="1">
  <advance width="1293"/>
  <unicode hex="0078"/>
  <outline>
    <contour>
      <point x="913" y="921" type="curve"/>
      <point x="898" y="931"/>
      <point x="876" y="936"/>
      <point x="845" y="936" type="curve" smooth="yes"/>
      <point x="790" y="936" type="line"/>
      <point x="814" y="1032" type="line"/>
      <point x="869" y="1045"/>
      <point x="934" y="1052"/>
      <point x="1011" y="1052" type="curve" smooth="yes"/>
      <point x="1143" y="1052"/>
      <point x="1225" y="1045"/>
      <point x="1257" y="1032" type="curve"/>
      <point x="1223" y="936" type="line"/>
      <point x="1180" y="936" type="line" smooth="yes"/>
      <point x="1146" y="936"/>
      <point x="1114" y="931"/>
      <point x="1083" y="921" type="curve"/>
      <point x="960" y="771" type="line"/>
      <point x="866" y="658"/>
      <point x="806" y="588"/>
      <point x="779" y="559" type="curve"/>
      <point x="1013" y="222" type="line" smooth="yes"/>
      <point x="1077.04" y="128.685"/>
      <point x="1090.98" y="97.2432"/>
      <point x="1207" y="81" type="curve"/>
      <point x="1247" y="-13" type="line"/>
      <point x="1198" y="-4"/>
      <point x="1114" y="0"/>
      <point x="997" y="0" type="curve" smooth="yes"/>
      <point x="880" y="0"/>
      <point x="800" y="-4"/>
      <point x="758" y="-13" type="curve"/>
      <point x="749" y="71" type="line"/>
      <point x="806" y="78"/>
      <point x="835" y="92"/>
      <point x="835" y="112" type="curve" smooth="yes"/>
      <point x="835" y="125"/>
      <point x="814" y="161"/>
      <point x="773" y="221" type="curve" smooth="yes"/>
      <point x="624" y="434" type="line"/>
      <point x="485" y="242" type="line" smooth="yes"/>
      <point x="436" y="175"/>
      <point x="412" y="132"/>
      <point x="412" y="113" type="curve" smooth="yes"/>
      <point x="412" y="94"/>
      <point x="437" y="80"/>
      <point x="486" y="71" type="curve"/>
      <point x="452" y="-13" type="line"/>
      <point x="426.425" y="-6.60629"/>
      <point x="330.916" y="0.125261"/>
      <point x="231.65" y="0.125261" type="curve" smooth="yes"/>
      <point x="160.135" y="0.125261"/>
      <point x="86.6692" y="-3.36866"/>
      <point x="36" y="-13" type="curve"/>
      <point x="72" y="71" type="line"/>
      <point x="227.632" y="87.8251"/>
      <point x="241.036" y="133.14"/>
      <point x="312" y="221" type="curve"/>
      <point x="554" y="515" type="line"/>
      <point x="321" y="835" type="line" smooth="yes"/>
      <point x="303" y="859"/>
      <point x="277" y="888"/>
      <point x="242" y="921" type="curve"/>
      <point x="212" y="931"/>
      <point x="180" y="936"/>
      <point x="145" y="936" type="curve" smooth="yes"/>
      <point x="112" y="936" type="line"/>
      <point x="85" y="1032" type="line"/>
      <point x="126" y="1045"/>
      <point x="191" y="1052"/>
      <point x="282" y="1052" type="curve" smooth="yes"/>
      <point x="447" y="1052"/>
      <point x="561" y="1045"/>
      <point x="622" y="1032" type="curve"/>
      <point x="639" y="936" type="line"/>
      <point x="583" y="936" type="line" smooth="yes"/>
      <point x="549" y="936"/>
      <point x="525" y="931"/>
      <point x="510" y="921" type="curve"/>
      <point x="528" y="892"/>
      <point x="552" y="864"/>
      <point x="573" y="835" type="curve" smooth="yes"/>
      <point x="713" y="642" type="line"/>
      <point x="758" y="699"/>
      <point x="824" y="792"/>
    </contour>
  </outline>
</glyph>
<glyph name="y" format="1">
  <advance width="1317"/>
  <unicode hex="0079"/>
  <outline>
    <contour>
      <point x="8" y="1031" type="line"/>
      <point x="75" y="1052"/>
      <point x="205" y="1052" type="qcurve" smooth="yes"/>
      <point x="443" y="1052"/>
      <point x="536" y="1031" type="qcurve"/>
      <point x="551" y="935" type="line"/>
      <point x="496" y="935" type="line" smooth="yes"/>
      <point x="437" y="935"/>
      <point x="411" y="920" type="qcurve"/>
      <point x="414" y="907"/>
      <point x="534" y="605"/>
      <point x="561" y="536" type="qcurve" smooth="yes"/>
      <point x="706" y="171" type="line"/>
      <point x="970" y="835" type="line"/>
      <point x="977" y="858"/>
      <point x="991" y="901"/>
      <point x="996" y="921" type="qcurve"/>
      <point x="970" y="936"/>
      <point x="918" y="936" type="qcurve" smooth="yes"/>
      <point x="862" y="936" type="line"/>
      <point x="874" y="1032" type="line"/>
      <point x="945" y="1052"/>
      <point x="1259" y="1052"/>
      <point x="1317" y="1032" type="qcurve"/>
      <point x="1317" y="936" type="line"/>
      <point x="1263" y="936" type="line" smooth="yes"/>
      <point x="1209" y="936"/>
      <point x="1171" y="921" type="qcurve"/>
      <point x="1165" y="915"/>
      <point x="1097" y="761" type="qcurve" smooth="yes"/>
      <point x="682" y="-196" type="line" smooth="yes"/>
      <point x="578" y="-435"/>
      <point x="406" y="-475" type="qcurve" smooth="yes"/>
      <point x="350" y="-488"/>
      <point x="258" y="-488"/>
      <point x="232.5" y="-485.5" type="qcurve" smooth="yes"/>
      <point x="207" y="-484"/>
      <point x="186" y="-480" type="qcurve" smooth="yes"/>
      <point x="142" y="-473"/>
      <point x="130" y="-460" type="qcurve"/>
      <point x="152" y="-321" type="line"/>
      <point x="228" y="-349"/>
      <point x="349" y="-349"/>
      <point x="383" y="-340" type="qcurve" smooth="yes"/>
      <point x="416" y="-332"/>
      <point x="448" y="-300" type="qcurve" smooth="yes"/>
      <point x="505" y="-243"/>
      <point x="590" y="-47" type="qcurve"/>
      <point x="217" y="834" type="line" smooth="yes"/>
      <point x="193" y="890"/>
      <point x="170" y="920" type="qcurve"/>
      <point x="131" y="935"/>
      <point x="79" y="935" type="qcurve" smooth="yes"/>
      <point x="25" y="935" type="line"/>
    </contour>
  </outline>
</glyph>
<glyph name="z" format="1">
  <advance width="1095"/>
  <unicode hex="007A"/>
  <outline>
    <contour>
      <point x="108" y="1037" type="line"/>
      <point x="405" y="1032" type="line"/>
      <point x="865" y="1032" type="line"/>
      <point x="913" y="1030"/>
      <point x="927" y="1021" type="qcurve" smooth="yes"/>
      <point x="952" y="1004"/>
      <point x="952" y="955" type="qcurve" smooth="yes"/>
      <point x="952" y="877" type="line"/>
      <point x="295" y="105" type="line"/>
      <point x="698" y="105" type="line" smooth="yes"/>
      <point x="796" y="105"/>
      <point x="834" y="127" type="qcurve"/>
      <point x="876" y="279" type="line"/>
      <point x="924" y="283"/>
      <point x="972" y="283" type="qcurve"/>
      <point x="978" y="115" type="line" smooth="yes"/>
      <point x="979" y="101"/>
      <point x="979" y="78"/>
      <point x="980" y="70" type="qcurve"/>
      <point x="980" y="-10" type="line"/>
      <point x="900" y="0"/>
      <point x="778" y="0" type="qcurve" smooth="yes"/>
      <point x="133" y="0" type="line" smooth="yes"/>
      <point x="107" y="0"/>
      <point x="99" y="10" type="qcurve" smooth="yes"/>
      <point x="86" y="29"/>
      <point x="86" y="81" type="qcurve" smooth="yes"/>
      <point x="86" y="140" type="line"/>
      <point x="756" y="927" type="line"/>
      <point x="390" y="927" type="line" smooth="yes"/>
      <point x="292" y="927"/>
      <point x="254" y="905" type="qcurve"/>
      <point x="212" y="753" type="line"/>
      <point x="164" y="749"/>
      <point x="116" y="749" type="qcurve"/>
      <point x="108" y="877"/>
      <point x="108" y="944" type="qcurve" smooth="yes"/>
    </contour>
  </outline>
</glyph>
<glyph name="braceleft" format="1">
  <advance width="702"/>
  <unicode hex="007B"/>
  <outline>
    <contour>
      <point x="394" y="1554" type="qcurve" smooth="yes"/>
      <point x="446" y="1564"/>
      <point x="599" y="1564"/>
      <point x="599" y="1510" type="qcurve" smooth="yes"/>
      <point x="599" y="1494" type="line"/>
      <point x="466" y="1486"/>
      <point x="427" y="1449" type="qcurve" smooth="yes"/>
      <point x="393" y="1417"/>
      <point x="393" y="1317" type="qcurve" smooth="yes"/>
      <point x="393" y="910" type="line" smooth="yes"/>
      <point x="393" y="708"/>
      <point x="258" y="665" type="qcurve"/>
      <point x="396" y="621"/>
      <point x="396" y="422" type="qcurve" smooth="yes"/>
      <point x="396" y="16" type="line" smooth="yes"/>
      <point x="396" y="-68"/>
      <point x="432" y="-117"/>
      <point x="448.5" y="-125.5" type="qcurve" smooth="yes"/>
      <point x="466" y="-134"/>
      <point x="488" y="-142" type="qcurve" smooth="yes"/>
      <point x="526" y="-155"/>
      <point x="599" y="-161" type="qcurve"/>
      <point x="599" y="-177" type="line" smooth="yes"/>
      <point x="599" y="-209"/>
      <point x="587" y="-222" type="qcurve"/>
      <point x="551" y="-232"/>
      <point x="438" y="-232"/>
      <point x="339" y="-211"/>
      <point x="304" y="-183" type="qcurve" smooth="yes"/>
      <point x="232" y="-125"/>
      <point x="232" y="17" type="qcurve" smooth="yes"/>
      <point x="232" y="437" type="line" smooth="yes"/>
      <point x="232" y="521"/>
      <point x="172" y="620"/>
      <point x="102" y="646" type="qcurve"/>
      <point x="101" y="660"/>
      <point x="102" y="692"/>
      <point x="100" y="703" type="qcurve"/>
      <point x="171" y="738"/>
      <point x="194" y="770" type="qcurve" smooth="yes"/>
      <point x="232" y="823"/>
      <point x="232" y="896" type="qcurve" smooth="yes"/>
      <point x="232" y="1323" type="line" smooth="yes"/>
      <point x="232" y="1522"/>
    </contour>
  </outline>
</glyph>
<glyph name="bar" format="1">
  <advance width="1168"/>
  <unicode hex="007C"/>
  <outline>
    <contour>
      <point x="580" y="1595" type="line" smooth="yes"/>
      <point x="641" y="1595"/>
      <point x="656" y="1548" type="qcurve"/>
      <point x="656" y="-248" type="line"/>
      <point x="586" y="-248" type="line" smooth="yes"/>
      <point x="548" y="-248"/>
      <point x="519" y="-237" type="qcurve"/>
      <point x="510" y="-165"/>
      <point x="510" y="-66" type="qcurve" smooth="yes"/>
      <point x="510" y="1595" type="line"/>
    </contour>
  </outline>
</glyph>
<glyph name="braceright" format="1">
  <advance width="701"/>
  <unicode hex="007d"/>
  <outline>
    <contour>
      <point x="465" y="922" type="line" smooth="yes"/>
      <point x="464.943" y="919.081"/>
      <point x="464.914" y="916.212"/>
      <point x="464.914" y="913.391" type="curve" smooth="yes"/>
      <point x="464.914" y="799.807"/>
      <point x="511.236" y="764.741"/>
      <point x="598" y="732" type="curve" smooth="no"/>
      <point x="598" y="646" type="line" smooth="no"/>
      <point x="485" y="608"/>
      <point x="465" y="517"/>
      <point x="465" y="370" type="curve" smooth="yes"/>
      <point x="465" y="17" type="line" smooth="yes"/>
      <point x="465" y="-173"/>
      <point x="384" y="-232"/>
      <point x="191" y="-232" type="curve" smooth="yes"/>
      <point x="132" y="-232"/>
      <point x="102" y="-214"/>
      <point x="102" y="-177" type="curve" smooth="yes"/>
      <point x="102" y="-161" type="line" smooth="no"/>
      <point x="259.485" y="-150.139"/>
      <point x="304.735" y="-135.723"/>
      <point x="307" y="16" type="curve" smooth="no"/>
      <point x="307" y="358" type="line" smooth="yes"/>
      <point x="307" y="529.218"/>
      <point x="327.488" y="628.903"/>
      <point x="443" y="665" type="curve" smooth="no"/>
      <point x="352" y="689"/>
      <point x="307" y="775"/>
      <point x="307" y="924" type="curve" smooth="yes"/>
      <point x="307" y="1293" type="line" smooth="yes"/>
      <point x="307" y="1464.31"/>
      <point x="267.698" y="1482.02"/>
      <point x="102" y="1494" type="curve" smooth="no"/>
      <point x="102" y="1510" type="line" smooth="yes"/>
      <point x="102" y="1546"/>
      <point x="130" y="1564"/>
      <point x="184" y="1564" type="curve" smooth="yes"/>
      <point x="388" y="1564"/>
      <point x="465" y="1508"/>
      <point x="465" y="1295" type="curve" smooth="yes"/>
    </contour>
  </outline>
</glyph>
<glyph name="asciitilde" format="1">
  <advance width="1205"/>
  <unicode hex="007E"/>
  <outline>
    <contour>
      <point x="189" y="398" type="qcurve"/>
      <point x="126" y="465"/>
      <point x="113" y="495" type="qcurve"/>
      <point x="132" y="572"/>
      <point x="220" y="624" type="qcurve" smooth="yes"/>
      <point x="299" y="672"/>
      <point x="405" y="671"/>
      <point x="483" y="651"/>
      <point x="564" y="622"/>
      <point x="604.5" y="604.5" type="qcurve" smooth="yes"/>
      <point x="646" y="586"/>
      <point x="684" y="572" type="qcurve" smooth="yes"/>
      <point x="776" y="538"/>
      <point x="864" y="538"/>
      <point x="930" y="559"/>
      <point x="956" y="575" type="qcurve" smooth="yes"/>
      <point x="1002" y="604"/>
      <point x="1026" y="645" type="qcurve"/>
      <point x="1076" y="580"/>
      <point x="1090" y="543" type="qcurve"/>
      <point x="1068" y="473"/>
      <point x="994" y="431" type="qcurve" smooth="yes"/>
      <point x="929" y="394"/>
      <point x="804" y="394"/>
      <point x="720" y="414"/>
      <point x="640" y="444"/>
      <point x="562" y="480"/>
      <point x="524" y="495" type="qcurve" smooth="yes"/>
      <point x="434" y="530"/>
      <point x="374" y="530" type="qcurve" smooth="yes"/>
      <point x="270" y="530"/>
    </contour>
  </outline>
</glyph>
<glyph name="cent" format="1">
  <advance width="1206"/>
  <unicode hex="00a2"/>
  <outline>
    <contour>
      <point x="753" y="1187" type="curve" smooth="yes"/>
      <point x="863" y="1187"/>
      <point x="1030" y="1171"/>
      <point x="1072" y="1108" type="curve" smooth="no"/>
      <point x="1072" y="1093"/>
      <point x="1071" y="1078"/>
      <point x="1069" y="1061" type="curve" smooth="no"/>
      <point x="1020" y="885" type="line" smooth="no"/>
      <point x="920" y="906" type="line" smooth="no"/>
      <point x="878" y="999"/>
      <point x="825" y="1060"/>
      <point x="713" y="1072" type="curve" smooth="no"/>
      <point x="713" y="213" type="line" smooth="no"/>
      <point x="824" y="213"/>
      <point x="920" y="259"/>
      <point x="999" y="350" type="curve" smooth="no"/>
      <point x="1077" y="312" type="line" smooth="no"/>
      <point x="1026" y="177"/>
      <point x="905" y="103"/>
      <point x="713" y="90" type="curve" smooth="no"/>
      <point x="713" y="-76" type="line" smooth="no"/>
      <point x="668" y="-76" type="line" smooth="yes"/>
      <point x="605" y="-76"/>
      <point x="601" y="-59"/>
      <point x="601" y="2" type="curve" smooth="yes"/>
      <point x="601" y="92" type="line" smooth="no"/>
      <point x="331" y="121"/>
      <point x="162" y="307"/>
      <point x="162" y="602" type="curve" smooth="yes"/>
      <point x="162" y="912"/>
      <point x="339" y="1112"/>
      <point x="601" y="1168" type="curve" smooth="no"/>
      <point x="601" y="1347" type="line" smooth="no"/>
      <point x="645" y="1347" type="line" smooth="no"/>
      <point x="704" y="1346"/>
      <point x="713" y="1332"/>
      <point x="713" y="1274" type="curve" smooth="yes"/>
      <point x="713" y="1184" type="line" smooth="no"/>
      <point x="727" y="1186"/>
      <point x="740" y="1187"/>
    </contour>
    <contour>
      <point x="601" y="1064" type="line" smooth="no"/>
      <point x="454" y="1006"/>
      <point x="382" y="851"/>
      <point x="382" y="636" type="curve" smooth="yes"/>
      <point x="382" y="433"/>
      <point x="455" y="292"/>
      <point x="601" y="235" type="curve" smooth="no"/>
    </contour>
  </outline>
</glyph>
<glyph name="sterling" format="1">
  <advance width="1218"/>
  <unicode hex="00A3"/>
  <outline>
    <contour>
      <point x="551" y="529" type="qcurve" smooth="yes"/>
      <point x="551" y="310"/>
      <point x="430" y="118" type="qcurve"/>
      <point x="702" y="118" type="line" smooth="yes"/>
      <point x="779" y="118"/>
      <point x="890" y="125"/>
      <point x="933" y="145" type="qcurve" smooth="yes"/>
      <point x="1014" y="183"/>
      <point x="1079" y="333" type="qcurve"/>
      <point x="1158" y="299" type="line"/>
      <point x="1158" y="142"/>
      <point x="1132" y="10" type="qcurve"/>
      <point x="1013" y="-7"/>
      <point x="630" y="-7"/>
      <point x="474" y="-6"/>
      <point x="399" y="-5" type="qcurve" smooth="yes"/>
      <point x="319" y="-4"/>
      <point x="150" y="0" type="qcurve"/>
      <point x="118" y="14"/>
      <point x="100" y="57"/>
      <point x="100" y="92" type="qcurve"/>
      <point x="238" y="135"/>
      <point x="296" y="196" type="qcurve" smooth="yes"/>
      <point x="356" y="259"/>
      <point x="356" y="522"/>
      <point x="340" y="698" type="qcurve"/>
      <point x="131" y="698" type="line"/>
      <point x="131" y="748" type="line" smooth="yes"/>
      <point x="132" y="788"/>
      <point x="142" y="795" type="qcurve" smooth="yes"/>
      <point x="155" y="805"/>
      <point x="192" y="805" type="qcurve" smooth="yes"/>
      <point x="325" y="805" type="line"/>
      <point x="294" y="991"/>
      <point x="294" y="1170"/>
      <point x="334" y="1286"/>
      <point x="401" y="1370"/>
      <point x="490" y="1424"/>
      <point x="540" y="1440" type="qcurve" smooth="yes"/>
      <point x="627" y="1468"/>
      <point x="783" y="1468"/>
      <point x="900" y="1459"/>
      <point x="956" y="1448" type="qcurve" smooth="yes"/>
      <point x="1091" y="1422"/>
      <point x="1126" y="1375" type="qcurve"/>
      <point x="1127" y="1321"/>
      <point x="1128" y="1208"/>
      <point x="1131" y="1151" type="qcurve"/>
      <point x="1008" y="1130" type="line"/>
      <point x="978" y="1242"/>
      <point x="914" y="1290" type="qcurve" smooth="yes"/>
      <point x="848" y="1340"/>
      <point x="616" y="1341"/>
      <point x="505" y="1202"/>
      <point x="505" y="1078" type="qcurve" smooth="yes"/>
      <point x="505" y="1008"/>
      <point x="512" y="955" type="qcurve" smooth="yes"/>
      <point x="530" y="805" type="line"/>
      <point x="867" y="805" type="line"/>
      <point x="867" y="756" type="line" smooth="yes"/>
      <point x="866" y="717"/>
      <point x="854" y="709" type="qcurve" smooth="yes"/>
      <point x="839" y="698"/>
      <point x="802" y="698" type="qcurve" smooth="yes"/>
      <point x="543" y="698" type="line"/>
      <point x="551" y="602"/>
    </contour>
  </outline>
</glyph>
<glyph name="currency" format="1">
  <advance width="1251"/>
  <unicode hex="00A4"/>
  <outline>
    <contour>
      <point x="308" y="730" type="qcurve" smooth="yes"/>
      <point x="308" y="660"/>
      <point x="358" y="542"/>
      <point x="402" y="499" type="qcurve" smooth="yes"/>
      <point x="494" y="408"/>
      <point x="627" y="408" type="qcurve" smooth="yes"/>
      <point x="763" y="408"/>
      <point x="855" y="502" type="qcurve" smooth="yes"/>
      <point x="947" y="595"/>
      <point x="947" y="731" type="qcurve" smooth="yes"/>
      <point x="947" y="868"/>
      <point x="763" y="1056"/>
      <point x="627" y="1055.5" type="qcurve" smooth="yes"/>
      <point x="491" y="1054"/>
      <point x="400" y="962" type="qcurve" smooth="yes"/>
      <point x="308" y="868"/>
    </contour>
    <contour>
      <point x="356" y="1093" type="line"/>
      <point x="478" y="1184"/>
      <point x="770" y="1184"/>
      <point x="895" y="1092" type="qcurve"/>
      <point x="1027" y="1224" type="line"/>
      <point x="1065" y="1186"/>
      <point x="1097" y="1147"/>
      <point x="1097" y="1110"/>
      <point x="1096" y="1108" type="qcurve" smooth="yes"/>
      <point x="989" y="1002" type="line"/>
      <point x="1079" y="885"/>
      <point x="1079" y="574"/>
      <point x="988" y="462" type="qcurve"/>
      <point x="1118" y="330" type="line"/>
      <point x="1052" y="264"/>
      <point x="1024" y="252" type="qcurve"/>
      <point x="995" y="263"/>
      <point x="912" y="354"/>
      <point x="897" y="369" type="qcurve"/>
      <point x="773" y="279"/>
      <point x="476" y="279"/>
      <point x="357" y="369" type="qcurve"/>
      <point x="226" y="240" type="line"/>
      <point x="159" y="304"/>
      <point x="146" y="328" type="qcurve"/>
      <point x="159" y="356"/>
      <point x="184" y="381" type="qcurve" smooth="yes"/>
      <point x="266" y="462" type="line"/>
      <point x="176" y="576"/>
      <point x="176" y="886"/>
      <point x="266" y="1000" type="qcurve"/>
      <point x="133" y="1131" type="line"/>
      <point x="156" y="1152"/>
      <point x="203" y="1200"/>
      <point x="226" y="1210" type="qcurve"/>
      <point x="257" y="1192"/>
      <point x="276" y="1173" type="qcurve" smooth="yes"/>
    </contour>
  </outline>
</glyph>
<glyph name="yen" format="1">
  <advance width="1624"/>
  <unicode hex="00a5"/>
  <outline>
    <contour>
      <point x="1186" y="349" type="line" smooth="yes"/>
      <point x="1186" y="292"/>
      <point x="1172" y="289"/>
      <point x="1119" y="289" type="curve" smooth="yes"/>
      <point x="911" y="289" type="line" smooth="no"/>
      <point x="911" y="250" type="line" smooth="yes"/>
      <point x="911" y="200"/>
      <point x="916" y="159"/>
      <point x="926" y="126" type="curve" smooth="no"/>
      <point x="948" y="120"/>
      <point x="982" y="117"/>
      <point x="1028" y="117" type="curve" smooth="yes"/>
      <point x="1119" y="117" type="line" smooth="no"/>
      <point x="1119" y="-19" type="line" smooth="no"/>
      <point x="1018" y="-6"/>
      <point x="915" y="0"/>
      <point x="812" y="0" type="curve" smooth="yes"/>
      <point x="709" y="0"/>
      <point x="600" y="-6"/>
      <point x="486" y="-19" type="curve" smooth="no"/>
      <point x="486" y="117" type="line" smooth="no"/>
      <point x="575" y="117" type="line" smooth="yes"/>
      <point x="624" y="117"/>
      <point x="658" y="120"/>
      <point x="678" y="126" type="curve" smooth="no"/>
      <point x="688" y="156"/>
      <point x="693" y="196"/>
      <point x="693" y="247" type="curve" smooth="yes"/>
      <point x="693" y="289" type="line" smooth="no"/>
      <point x="426" y="289" type="line" smooth="no"/>
      <point x="426" y="356" type="line" smooth="no"/>
      <point x="445" y="378"/>
      <point x="478" y="389"/>
      <point x="527" y="389" type="curve" smooth="yes"/>
      <point x="693" y="389" type="line" smooth="no"/>
      <point x="693" y="488" type="line" smooth="no"/>
      <point x="688" y="497" type="line" smooth="no"/>
      <point x="426" y="497" type="line" smooth="no"/>
      <point x="426" y="564" type="line" smooth="no"/>
      <point x="447" y="587"/>
      <point x="482" y="598"/>
      <point x="531" y="598" type="curve" smooth="yes"/>
      <point x="633" y="598" type="line" smooth="no"/>
      <point x="283" y="1197" type="line" smooth="yes"/>
      <point x="255" y="1243"/>
      <point x="244" y="1279"/>
      <point x="215" y="1317" type="curve" smooth="no"/>
      <point x="192" y="1324"/>
      <point x="157" y="1328"/>
      <point x="108" y="1328" type="curve" smooth="yes"/>
      <point x="34" y="1328" type="line" smooth="no"/>
      <point x="10" y="1430" type="line" smooth="no"/>
      <point x="78" y="1439"/>
      <point x="160" y="1443"/>
      <point x="255" y="1443" type="curve" smooth="yes"/>
      <point x="448" y="1443"/>
      <point x="575" y="1438"/>
      <point x="638" y="1428" type="curve" smooth="no"/>
      <point x="650" y="1328" type="line" smooth="no"/>
      <point x="579" y="1328" type="line" smooth="yes"/>
      <point x="530" y="1328"/>
      <point x="498" y="1324"/>
      <point x="481" y="1317" type="curve" smooth="no"/>
      <point x="483" y="1294"/>
      <point x="496" y="1263"/>
      <point x="521" y="1222" type="curve" smooth="no"/>
      <point x="847" y="659" type="line" smooth="no"/>
      <point x="971.369" y="871.238"/>
      <point x="1071.09" y="1058.78"/>
      <point x="1146" y="1230" type="curve" smooth="no"/>
      <point x="1162" y="1270"/>
      <point x="1172" y="1299"/>
      <point x="1176" y="1317" type="curve" smooth="no"/>
      <point x="1159" y="1324"/>
      <point x="1126" y="1328"/>
      <point x="1078" y="1328" type="curve" smooth="yes"/>
      <point x="1008" y="1328" type="line" smooth="no"/>
      <point x="1029" y="1430" type="line" smooth="no"/>
      <point x="1102" y="1439"/>
      <point x="1184" y="1443"/>
      <point x="1275" y="1443" type="curve" smooth="yes"/>
      <point x="1454" y="1443"/>
      <point x="1567" y="1438"/>
      <point x="1614" y="1428" type="curve" smooth="no"/>
      <point x="1574" y="1328" type="line" smooth="no"/>
      <point x="1492" y="1328" type="line" smooth="yes"/>
      <point x="1444" y="1328"/>
      <point x="1408" y="1324"/>
      <point x="1384" y="1317" type="curve" smooth="no"/>
      <point x="1357" y="1280"/>
      <point x="1332" y="1240"/>
      <point x="1310" y="1197" type="curve" smooth="yes"/>
      <point x="1291" y="1161" type="line" smooth="yes"/>
      <point x="1233" y="1050"/>
      <point x="1162" y="926"/>
      <point x="1077" y="789" type="curve" smooth="yes"/>
      <point x="960" y="598" type="line" smooth="no"/>
      <point x="1186" y="598" type="line" smooth="no"/>
      <point x="1186" y="557" type="line" smooth="yes"/>
      <point x="1186" y="501"/>
      <point x="1173" y="497"/>
      <point x="1120" y="497" type="curve" smooth="yes"/>
      <point x="911" y="497" type="line" smooth="no"/>
      <point x="911" y="389" type="line" smooth="no"/>
      <point x="1186" y="389" type="line" smooth="no"/>
    </contour>
  </outline>
</glyph>
